<svg xmlns="http://www.w3.org/2000/svg" xmlns:xlink="http://www.w3.org/1999/xlink" viewBox="0 0 65.305 61.235">
  <defs>
    <style>
      .cls-1 {
        fill: url(#linear-gradient);
      }
    </style>
    <linearGradient id="linear-gradient" x1="0.603" y1="-0.04" x2="-0.845" y2="1.42" gradientUnits="objectBoundingBox">
      <stop offset="0" stop-color="#39f0cf"/>
      <stop offset="1" stop-color="#0063ae"/>
    </linearGradient>
  </defs>
  <g id="Group_277" data-name="Group 277" transform="translate(0 0)">
    <path id="Path_346" data-name="Path 346" class="cls-1" d="M182.453,0C171.571,0,160,3.572,160,10.206V18.37a2.041,2.041,0,0,0,4.082,0V16.24c4.337,2.73,11.482,4.172,18.37,4.172s14.033-1.442,18.37-4.172v2.13c0,1.99-5.026,5.179-14.454,5.97a2.045,2.045,0,0,0,.166,4.082.842.842,0,0,0,.179-.013c5.32-.447,10.614-1.824,14.122-4.057v2.181c0,1.748-3.7,4.248-10.563,5.46a2.037,2.037,0,0,0,.344,4.044,1.7,1.7,0,0,0,.357-.038,27.215,27.215,0,0,0,9.849-3.444V34.7c0,1.748-3.7,4.248-10.563,5.46A2.037,2.037,0,0,0,190.6,44.2a1.7,1.7,0,0,0,.357-.038,27.216,27.216,0,0,0,9.849-3.444v2.143c0,1.748-3.7,4.248-10.563,5.46a2.037,2.037,0,0,0,.344,4.044,1.7,1.7,0,0,0,.357-.038,27.216,27.216,0,0,0,9.849-3.444v2.143c0,1.99-5.026,5.179-14.454,5.97a2.045,2.045,0,0,0,.166,4.082.842.842,0,0,0,.179-.013c9.058-.765,18.2-4.146,18.2-10.04V10.206C204.906,3.572,193.335,0,182.453,0Zm0,16.329c-11.214,0-18.37-3.623-18.37-6.123s7.157-6.123,18.37-6.123,18.37,3.623,18.37,6.123S193.666,16.329,182.453,16.329Z" transform="translate(-139.588)"/>
    <path id="Path_347" data-name="Path 347" class="cls-1" d="M22.453,228.741c10.882,0,22.453-3.572,22.453-10.206V202.206c0-6.634-11.571-10.206-22.453-10.206S0,195.572,0,202.206v16.329C0,225.169,11.571,228.741,22.453,228.741Zm18.37-18.37c0,2.5-7.157,6.124-18.37,6.124s-18.37-3.623-18.37-6.124v-2.13c4.337,2.73,11.482,4.172,18.37,4.172s14.033-1.442,18.37-4.172Zm-18.37,14.288c-11.214,0-18.37-3.623-18.37-6.123V216.4c4.337,2.73,11.482,4.172,18.37,4.172s14.033-1.442,18.37-4.172v2.13C40.823,221.036,33.666,224.659,22.453,224.659Zm0-28.576c11.214,0,18.37,3.623,18.37,6.123s-7.157,6.123-18.37,6.123-18.37-3.623-18.37-6.123S11.239,196.082,22.453,196.082Z" transform="translate(0 -167.506)"/>
  </g>
</svg>
