<?xml version="1.0" encoding="utf-8"?>
<!-- Generator: Adobe Illustrator 21.1.0, SVG Export Plug-In . SVG Version: 6.00 Build 0)  -->
<svg version="1.1" id="Слой_1" xmlns="http://www.w3.org/2000/svg" xmlns:xlink="http://www.w3.org/1999/xlink" x="0px" y="0px"
	 viewBox="0 0 198.4 240.9" style="enable-background:new 0 0 198.4 240.9;" xml:space="preserve">
<style type="text/css">
	.st0{fill:url(#Path_371_1_);}
	.st1{fill:url(#Path_372_1_);}
	.st2{fill:url(#Path_373_1_);}
	.st3{fill:url(#Path_374_1_);}
	.st4{fill:url(#Path_375_1_);}
	.st5{fill:url(#Path_376_1_);}
	.st6{fill:url(#Path_377_1_);}
</style>
<g id="_5features" transform="matrix(0.921, 0.391, -0.391, 0.921, 25.673, 0)">
	
		<linearGradient id="Path_371_1_" gradientUnits="userSpaceOnUse" x1="-523.5921" y1="939.6968" x2="-526.9188" y2="930.8689" gradientTransform="matrix(27.4966 -12.338 -11.6734 -29.0622 25497.3633 20816.8496)">
		<stop  offset="0" style="stop-color:#112A7C"/>
		<stop  offset="1" style="stop-color:#035796"/>
	</linearGradient>
	<path id="Path_371" class="st0" d="M153.2,40.3l-3.8-1.8c-0.3-0.1-0.4-0.4-0.4-0.7c0.4-1.7,0.6-3.4,0.6-5.1c0.1-1.7,0.1-3.4,0-5
		c0-0.3,0.2-0.6,0.5-0.7l4-2.2c4.7-2.6,6.6-8,4.3-12l-5.8-9.6c-1.1-1.9-3.2-3.3-5.6-3.8c-2.4-0.5-5.1,0-7.4,1.3l-4,2.2
		c-0.3,0.2-0.6,0.1-0.8,0c-2.9-1.9-6-3.4-9.4-4.5c-0.3-0.1-0.4-0.3-0.4-0.6l0.2-4c0.3-4.8-3.8-8.4-9.1-8.2c0,0,0,0,0,0l-12.7,0.7
		c-5.3,0.3-9.9,4.4-10.2,9.2c0,0,0,0,0,0l-0.2,4c0,0.3-0.2,0.5-0.4,0.6c-3.5,1.5-6.9,3.4-10,5.6c-0.2,0.2-0.6,0.2-0.8,0.1L77.8,4
		c-4.4-2.1-10.4-0.4-13.3,3.8c0,0,0,0,0,0.1l-7,10.3c-2.9,4.3-1.7,9.4,2.8,11.6c0,0,0,0,0.1,0l3.8,1.8c0.3,0.1,0.4,0.4,0.4,0.7
		c-0.4,1.7-0.6,3.4-0.6,5.1c-0.1,1.7-0.1,3.4,0,5c0,0.3-0.2,0.6-0.5,0.7l-4,2.2c-4.7,2.6-6.6,8-4.3,12l5.8,9.6c2.4,4,8.2,5.1,13,2.5
		l4-2.2c0.3-0.2,0.6-0.1,0.8,0c2.9,1.9,6,3.4,9.4,4.5c0.3,0.1,0.4,0.3,0.4,0.6l-0.2,4c-0.3,4.8,3.8,8.4,9.1,8.2c0,0,0,0,0,0
		l12.7-0.7c5.3-0.3,9.9-4.4,10.2-9.2c0,0,0,0,0,0l0.2-4.1c0-0.3,0.2-0.5,0.4-0.6c3.6-1.5,6.9-3.4,10-5.6c0.2-0.2,0.6-0.2,0.8-0.1
		l3.8,1.8c4.4,2.1,10.4,0.4,13.3-3.8c0,0,0,0,0-0.1l7-10.3C158.9,47.6,157.6,42.5,153.2,40.3L153.2,40.3z M148.6,48.4l-7,10.3
		c-0.3,0.3-0.7,0.5-1.1,0.3l-3.8-1.8c-3.3-1.6-7.5-1.1-10.7,1.2c-2.5,1.8-5.2,3.2-8,4.4c-3.7,1.6-6.2,4.8-6.4,8.3l-0.2,4
		c0,0.4-0.4,0.7-0.8,0.7l-12.7,0.7c-0.4,0-0.7-0.3-0.7-0.6l0.2-4.1c0.2-3.5-1.9-6.5-5.4-7.7c-2.7-0.9-5.2-2.1-7.5-3.6
		c-3-2-7.2-2-10.7-0.1l-4,2.2c-0.4,0.2-0.9,0.1-1.1-0.2L62.9,53c-0.1-0.2-0.1-0.4,0-0.5c0.1-0.2,0.2-0.3,0.4-0.5l4-2.2
		c3.5-1.9,5.6-5.4,5.2-8.9c-0.2-2.6,0-5.3,0.5-8c0.7-3.5-1-6.8-4.2-8.4L65,22.7c-0.3-0.2-0.4-0.6-0.2-1l7-10.3
		c0.1-0.2,0.3-0.3,0.5-0.3c0.2-0.1,0.4-0.1,0.6,0l3.8,1.8c3.3,1.6,7.5,1.1,10.7-1.2c2.5-1.8,5.1-3.3,8-4.4c3.7-1.6,6.2-4.8,6.4-8.3
		l0.2-4c0-0.4,0.4-0.7,0.8-0.7l12.7-0.7c0.4,0,0.7,0.3,0.7,0.6l-0.2,4c-0.2,3.5,1.9,6.5,5.4,7.7c2.7,0.9,5.2,2.1,7.5,3.6
		c3,2,7.2,2,10.7,0.1l4-2.2c0.2-0.1,0.4-0.2,0.6-0.1c0.2,0,0.3,0.1,0.5,0.3l5.8,9.6c0.1,0.2,0.1,0.4,0,0.5c-0.1,0.2-0.2,0.3-0.4,0.5
		l-4,2.2c-3.5,1.9-5.6,5.4-5.2,8.9c0.2,2.6,0,5.3-0.5,8c-0.7,3.5,1,6.8,4.2,8.4l3.8,1.8C148.8,47.7,148.9,48.1,148.6,48.4
		L148.6,48.4z"/>
	<g id="Group_281" transform="translate(0)">
		
			<linearGradient id="Path_372_1_" gradientUnits="userSpaceOnUse" x1="-482.0414" y1="919.0468" x2="-485.4191" y2="910.0834" gradientTransform="matrix(11.7778 -5.0001 -5.0001 -11.7778 10389.958 8421.2412)">
			<stop  offset="0" style="stop-color:#112A7C"/>
			<stop  offset="1" style="stop-color:#035796"/>
		</linearGradient>
		<path id="Path_372" class="st1" d="M107.9,15.2c-12.2,0.7-22.7,10.1-23.3,21.1c-0.7,11,8.7,19.4,21,18.7
			c12.2-0.7,22.7-10.1,23.3-21.1c0,0,0,0,0,0C129.6,22.9,120.2,14.6,107.9,15.2z M106,47c-7.4,0.4-13-4.6-12.6-11.2
			c0.4-6.6,6.7-12.3,14-12.7s13,4.6,12.6,11.2l0,0C119.7,41,113.4,46.6,106,47z"/>
		
			<linearGradient id="Path_373_1_" gradientUnits="userSpaceOnUse" x1="-536.3774" y1="945.9891" x2="-539.7651" y2="936.9993" gradientTransform="matrix(46.3894 -25.6887 -19.6941 -60.5097 43655.2227 43378.1133)">
			<stop  offset="0" style="stop-color:#112A7C"/>
			<stop  offset="1" style="stop-color:#035796"/>
		</linearGradient>
		<path id="Path_373" class="st2" d="M177.5,76.1c28.2-37.8,19.4-85.6-19.8-106.8c-13.3-7.2-29-10.7-45.4-10l-1.1,0.1
			C88.4-39.4,66-30.2,48.9-15C17.8,12.4,10.2,53.6,30.5,83.6c7.4,10.9,18.1,19.7,31,25.3l-25.6,31.3c-2.7,3.3-2.2,7.6,1.2,9.7
			c1.3,0.8,2.8,1.2,4.5,1.1l18.7-1l-0.4,7.4c-0.3,4.7,3.8,8.2,9,8l60.9-3.2c5.2-0.3,9.7-4.3,10-9l0.4-7.4l18.6-1
			c4.3-0.2,8-3.6,8.2-7.4c0.1-1.5-0.3-2.9-1.2-4l-22-28.7C157.1,97.6,168.7,87.8,177.5,76.1z M60.6,142l-16.5,0.9l17.8-21.6
			L60.6,142z M130.7,153.6c0,0.3-0.3,0.6-0.6,0.6c0,0,0,0,0,0l-60.9,3.2c-0.3,0-0.6-0.2-0.6-0.5c0,0,0,0,0,0l0.1-2.4l62.4-7.9
			L130.7,153.6L130.7,153.6z M131.6,138.5l-62.4,7.9l0.5-7.9l62.4-7.9L131.6,138.5z M157,136.9l-16.5,0.9l1.2-20.7L157,136.9z
			 M136.5,99.4c-1.6,0.7-2.7,2.2-2.7,3.7l-0.2,3.5l-13.8,1.8c-2.3,0.3-4.2,2.1-4.3,4.2c-0.2,2.2,1.7,3.8,4.1,3.7c0.2,0,0.3,0,0.5,0
			l13-1.7l-0.5,7.9l-62.4,7.9l0.5-7.9l27.6-3.5c2.3-0.3,4.2-2.1,4.3-4.2c0.2-2.2-1.7-3.8-4.1-3.7c-0.2,0-0.3,0-0.5,0l-26.9,3.5
			l0.5-8.1c0.1-1.5-0.8-2.9-2.3-3.4c-26.9-10.3-42.9-34.5-41-61.9c2.9-38.6,39.6-71.4,82.6-73.9l1-0.1c43.3-1.8,76,28.3,73.2,67.2
			C182.9,61.3,164.1,86.5,136.5,99.4L136.5,99.4z"/>
	</g>
	
		<linearGradient id="Path_374_1_" gradientUnits="userSpaceOnUse" x1="-203.5122" y1="762.2928" x2="-206.9327" y2="753.216" gradientTransform="matrix(2.3707 -1.6718 -1.0064 -3.938 1348.8042 2851.7988)">
		<stop  offset="0" style="stop-color:#112A7C"/>
		<stop  offset="1" style="stop-color:#035796"/>
	</linearGradient>
	<path id="Path_374" class="st3" d="M97.4,192.9c-2.5,0.1-4.6,2-4.7,4.2c0,0,0,0,0,0l-0.3,5.3c-0.1,2.2,1.8,3.9,4.2,3.8
		c2.5-0.1,4.6-2,4.7-4.2c0,0,0,0,0,0l0.3-5.3C101.8,194.5,99.9,192.8,97.4,192.9C97.4,192.9,97.4,192.9,97.4,192.9z"/>
	
		<linearGradient id="Path_375_1_" gradientUnits="userSpaceOnUse" x1="-197.9727" y1="791.3304" x2="-201.5871" y2="781.7391" gradientTransform="matrix(2.3707 -5.6809 -1.0064 -13.3814 1341.9741 9620.8164)">
		<stop  offset="0" style="stop-color:#112A7C"/>
		<stop  offset="1" style="stop-color:#035796"/>
	</linearGradient>
	<path id="Path_375" class="st4" d="M75.3,167.7c-2.5,0.1-4.6,2-4.7,4.2c0,0,0,0,0,0l-2.2,37.2c-0.1,2.2,1.8,3.9,4.2,3.8
		c2.5-0.1,4.6-2,4.7-4.2l2.2-37.2C79.7,169.2,77.8,167.5,75.3,167.7C75.3,167.7,75.3,167.7,75.3,167.7L75.3,167.7z"/>
	
		<linearGradient id="Path_376_1_" gradientUnits="userSpaceOnUse" x1="-185.8659" y1="786.3801" x2="-189.4803" y2="776.7886" gradientTransform="matrix(2.3707 -5.6816 -1.0064 -13.383 1355.6342 9621.9668)">
		<stop  offset="0" style="stop-color:#112A7C"/>
		<stop  offset="1" style="stop-color:#035796"/>
	</linearGradient>
	<path id="Path_376" class="st5" d="M122.6,165.1c-2.5,0.1-4.6,2-4.7,4.2c0,0,0,0,0,0l-2.2,37.2c-0.1,2.2,1.8,3.9,4.2,3.8
		c2.5-0.1,4.6-2,4.7-4.2l2.2-37.2C127,166.7,125.1,165,122.6,165.1C122.7,165.1,122.7,165.1,122.6,165.1L122.6,165.1z"/>
	
		<linearGradient id="Path_377_1_" gradientUnits="userSpaceOnUse" x1="-197.4678" y1="775.1011" x2="-200.9241" y2="765.9291" gradientTransform="matrix(2.3707 -2.3351 -1.0064 -5.5004 1348.8042 3964.635)">
		<stop  offset="0" style="stop-color:#112A7C"/>
		<stop  offset="1" style="stop-color:#035796"/>
	</linearGradient>
	<path id="Path_377" class="st6" d="M99,166.4c-2.5,0.1-4.6,2-4.7,4.2c0,0,0,0,0,0l-0.6,10.6c-0.1,2.2,1.8,3.9,4.2,3.8
		c2.5-0.1,4.6-2,4.7-4.2l0.6-10.6C103.3,168,101.5,166.3,99,166.4C99,166.4,99,166.4,99,166.4z"/>
</g>
</svg>
