<svg xmlns="http://www.w3.org/2000/svg" xmlns:xlink="http://www.w3.org/1999/xlink" viewBox="0 0 72.032 87.669">
  <defs>
    <style>
      .cls-1 {
        fill: url(#linear-gradient);
      }
    </style>
    <linearGradient id="linear-gradient" x1="0.712" y1="-0.178" x2="-0.316" y2="2.55" gradientUnits="objectBoundingBox">
      <stop offset="0" stop-color="#112a7c"/>
      <stop offset="1" stop-color="#035796"/>
    </linearGradient>
  </defs>
  <g id="_5features" data-name="5features" transform="matrix(0.921, 0.391, -0.391, 0.921, 25.673, 0)">
    <path id="Path_371" data-name="Path 371" class="cls-1" d="M80.264,61.572l-1.128-.653a.248.248,0,0,1-.119-.218,11.169,11.169,0,0,0,.1-1.623,14.884,14.884,0,0,0-.1-1.623.213.213,0,0,1,.119-.218l1.128-.653a2.806,2.806,0,0,0,1.029-3.8L79.452,49.6a2.779,2.779,0,0,0-1.683-1.307,2.745,2.745,0,0,0-2.118.277l-1.128.653a.207.207,0,0,1-.238-.02,12.077,12.077,0,0,0-2.811-1.623.218.218,0,0,1-.119-.2V46.091A2.788,2.788,0,0,0,68.564,43.3H64.9a2.788,2.788,0,0,0-2.791,2.791v1.287a.209.209,0,0,1-.119.2A12.823,12.823,0,0,0,59.181,49.2a.207.207,0,0,1-.238.02l-1.128-.653a2.771,2.771,0,0,0-3.8,1.029l-1.841,3.187a2.771,2.771,0,0,0,1.029,3.8l1.128.653a.248.248,0,0,1,.119.218,11.169,11.169,0,0,0-.1,1.623,14.883,14.883,0,0,0,.1,1.623.213.213,0,0,1-.119.218l-1.128.653a2.806,2.806,0,0,0-1.029,3.8l1.841,3.187a2.806,2.806,0,0,0,3.8,1.029l1.128-.653a.207.207,0,0,1,.238.02,12.077,12.077,0,0,0,2.811,1.623.218.218,0,0,1,.119.2v1.287A2.788,2.788,0,0,0,64.9,74.855h3.662a2.788,2.788,0,0,0,2.791-2.791V70.758a.209.209,0,0,1,.119-.2,12.823,12.823,0,0,0,2.811-1.623.207.207,0,0,1,.238-.02l1.128.653a2.771,2.771,0,0,0,3.8-1.029l1.841-3.187a2.788,2.788,0,0,0-1.029-3.781Zm-1.188,2.534-1.841,3.187a.243.243,0,0,1-.317.079l-1.128-.653a2.753,2.753,0,0,0-3.088.2A9.367,9.367,0,0,1,70.465,68.2a2.79,2.79,0,0,0-1.7,2.574v1.287a.22.22,0,0,1-.218.218H64.882a.22.22,0,0,1-.218-.218V70.758a2.79,2.79,0,0,0-1.7-2.574A10.931,10.931,0,0,1,60.725,66.9a2.78,2.78,0,0,0-3.088-.2l-1.128.653a.254.254,0,0,1-.317-.079l-1.841-3.167a.2.2,0,0,1-.02-.178.3.3,0,0,1,.1-.139l1.128-.653a2.767,2.767,0,0,0,1.366-2.771,10.494,10.494,0,0,1,0-2.574,2.817,2.817,0,0,0-1.366-2.771l-1.128-.653a.243.243,0,0,1-.079-.317l1.841-3.187a.2.2,0,0,1,.139-.1.2.2,0,0,1,.178.02l1.128.653a2.753,2.753,0,0,0,3.088-.2,9,9,0,0,1,2.237-1.287,2.79,2.79,0,0,0,1.7-2.574V46.091a.22.22,0,0,1,.218-.218h3.662a.22.22,0,0,1,.218.218v1.287a2.79,2.79,0,0,0,1.7,2.574A10.931,10.931,0,0,1,72.7,51.238a2.75,2.75,0,0,0,3.088.2l1.128-.653a.2.2,0,0,1,.178-.02.3.3,0,0,1,.139.1l1.841,3.187a.2.2,0,0,1,.02.178.3.3,0,0,1-.1.139l-1.128.653A2.767,2.767,0,0,0,76.5,57.791a10.495,10.495,0,0,1,0,2.574,2.817,2.817,0,0,0,1.366,2.771L79,63.789a.243.243,0,0,1,.079.317Zm0,0" transform="translate(-41.542 -34.728)"/>
    <g id="Group_281" data-name="Group 281" transform="translate(0)">
      <path id="Path_372" data-name="Path 372" class="cls-1" d="M101.294,90.7a6.394,6.394,0,1,0,6.394,6.394,6.4,6.4,0,0,0-6.394-6.394Zm0,10.235a3.84,3.84,0,1,1,3.84-3.84,3.844,3.844,0,0,1-3.84,3.84Zm0,0" transform="translate(-76.112 -72.745)"/>
      <path id="Path_373" data-name="Path 373" class="cls-1" d="M46.36,38.8A25.183,25.183,0,0,0,25.494,0h-.317a25.069,25.069,0,0,0-17.6,7.206A25.124,25.124,0,0,0,3.936,38.7a25.255,25.255,0,0,0,9.4,8.691L6.45,57.033A2.249,2.249,0,0,0,8.271,60.6h5.385v2.376A2.737,2.737,0,0,0,16.388,65.7H33.967A2.737,2.737,0,0,0,36.7,62.972V60.6h5.365a2.249,2.249,0,0,0,1.821-3.563l-6.869-9.621A25.493,25.493,0,0,0,46.36,38.8Zm-32.7,19.242H8.885l4.771-6.671Zm20.489,4.949a.177.177,0,0,1-.178.178H16.388a.177.177,0,0,1-.178-.178V62.22l17.916-1.485v2.257Zm0-4.85L16.23,59.627V57.073l17.916-1.485Zm7.325-.1H36.7V51.371ZM34.878,45.611a1.26,1.26,0,0,0-.732,1.148v1.128l-3.959.337a1.271,1.271,0,0,0-1.168,1.267A1.258,1.258,0,0,0,30.4,50.758l3.742-.317v2.554L16.23,54.48V51.926l7.938-.653a1.271,1.271,0,0,0,1.168-1.267,1.258,1.258,0,0,0-1.386-1.267l-7.74.653V46.779a1.239,1.239,0,0,0-.732-1.148A22.7,22.7,0,0,1,2.55,24.963,22.711,22.711,0,0,1,25.177,2.554h.277a22.626,22.626,0,0,1,9.423,43.057Zm0,0" transform="translate(0.004)"/>
    </g>
    <path id="Path_374" data-name="Path 374" class="cls-1" d="M121.987,379.4a1.284,1.284,0,0,0-1.287,1.287v1.7a1.287,1.287,0,1,0,2.574,0v-1.7a1.284,1.284,0,0,0-1.287-1.287Zm0,0" transform="translate(-96.805 -304.293)"/>
    <path id="Path_375" data-name="Path 375" class="cls-1" d="M87.487,336.3a1.284,1.284,0,0,0-1.287,1.287v11.957a1.287,1.287,0,0,0,2.574,0V337.587a1.284,1.284,0,0,0-1.287-1.287Zm0,0" transform="translate(-69.135 -269.725)"/>
    <path id="Path_376" data-name="Path 376" class="cls-1" d="M156.487,336.3a1.284,1.284,0,0,0-1.287,1.287v11.957a1.287,1.287,0,0,0,2.574,0V337.587a1.284,1.284,0,0,0-1.287-1.287Zm0,0" transform="translate(-124.475 -269.725)"/>
    <path id="Path_377" data-name="Path 377" class="cls-1" d="M121.987,336.3a1.284,1.284,0,0,0-1.287,1.287v3.4a1.287,1.287,0,0,0,2.574,0v-3.4a1.284,1.284,0,0,0-1.287-1.287Zm0,0" transform="translate(-96.805 -269.725)"/>
  </g>
</svg>
