<svg xmlns="http://www.w3.org/2000/svg" xmlns:xlink="http://www.w3.org/1999/xlink" viewBox="0 0 56.319 90.699">
  <defs>
    <style>
      .cls-1 {
        fill: url(#linear-gradient);
      }
    </style>
    <linearGradient id="linear-gradient" x1="0.712" y1="-0.178" x2="-0.316" y2="2.55" gradientUnits="objectBoundingBox">
      <stop offset="0" stop-color="#39f0cf"/>
      <stop offset="1" stop-color="#0063ae"/>
    </linearGradient>
  </defs>
  <g id="Group_282" data-name="Group 282" transform="translate(0 0)">
    <path id="Path_371" data-name="Path 371" class="cls-1" d="M83.631,63.733,82.369,63a.278.278,0,0,1-.133-.244,12.491,12.491,0,0,0,.111-1.815,16.644,16.644,0,0,0-.111-1.815.239.239,0,0,1,.133-.244l1.262-.731a3.138,3.138,0,0,0,1.151-4.25L82.724,50.34a3.107,3.107,0,0,0-1.882-1.461,3.069,3.069,0,0,0-2.369.31l-1.262.731a.232.232,0,0,1-.266-.022A13.505,13.505,0,0,0,73.8,48.082a.243.243,0,0,1-.133-.221V46.421A3.118,3.118,0,0,0,70.548,43.3h-4.1a3.118,3.118,0,0,0-3.121,3.121V47.86a.233.233,0,0,1-.133.221A14.34,14.34,0,0,0,60.054,49.9a.232.232,0,0,1-.266.022l-1.262-.731a3.1,3.1,0,0,0-4.25,1.151L52.218,53.9a3.1,3.1,0,0,0,1.151,4.25l1.262.731a.278.278,0,0,1,.133.244,12.49,12.49,0,0,0-.111,1.815,16.644,16.644,0,0,0,.111,1.815.239.239,0,0,1-.133.244l-1.262.731a3.138,3.138,0,0,0-1.151,4.25l2.059,3.564a3.138,3.138,0,0,0,4.25,1.151l1.262-.731a.232.232,0,0,1,.266.022A13.505,13.505,0,0,0,63.2,73.806a.243.243,0,0,1,.133.221v1.439a3.118,3.118,0,0,0,3.121,3.121h4.1a3.118,3.118,0,0,0,3.121-3.121V74.005a.233.233,0,0,1,.133-.221,14.34,14.34,0,0,0,3.144-1.815.232.232,0,0,1,.266-.022l1.262.731a3.1,3.1,0,0,0,4.25-1.151l2.059-3.564a3.117,3.117,0,0,0-1.151-4.228ZM82.3,66.567l-2.059,3.564a.271.271,0,0,1-.354.089l-1.262-.731a3.078,3.078,0,0,0-3.453.221,10.475,10.475,0,0,1-2.5,1.439,3.121,3.121,0,0,0-1.9,2.878v1.439a.246.246,0,0,1-.244.244h-4.1a.246.246,0,0,1-.244-.244V74.005a3.121,3.121,0,0,0-1.9-2.878,12.224,12.224,0,0,1-2.5-1.439,3.109,3.109,0,0,0-3.453-.221l-1.262.731a.284.284,0,0,1-.354-.089l-2.059-3.542a.22.22,0,0,1-.022-.2.339.339,0,0,1,.111-.155L56,65.482a3.094,3.094,0,0,0,1.528-3.1,11.735,11.735,0,0,1,0-2.878A3.15,3.15,0,0,0,56,56.406l-1.262-.731a.271.271,0,0,1-.089-.354l2.059-3.564a.229.229,0,0,1,.155-.111.223.223,0,0,1,.2.022l1.262.731a3.078,3.078,0,0,0,3.453-.221,10.062,10.062,0,0,1,2.5-1.439,3.121,3.121,0,0,0,1.9-2.878V46.421a.246.246,0,0,1,.244-.244h4.1a.246.246,0,0,1,.244.244V47.86a3.121,3.121,0,0,0,1.9,2.878,12.224,12.224,0,0,1,2.5,1.439,3.076,3.076,0,0,0,3.453.221l1.262-.731a.22.22,0,0,1,.2-.022.339.339,0,0,1,.155.111L82.3,55.321a.22.22,0,0,1,.022.2.339.339,0,0,1-.111.155l-1.262.731a3.094,3.094,0,0,0-1.528,3.1,11.735,11.735,0,0,1,0,2.878,3.15,3.15,0,0,0,1.528,3.1l1.262.731a.271.271,0,0,1,.089.354Zm0,0" transform="translate(-40.329 -33.714)"/>
    <g id="Group_281" data-name="Group 281" transform="translate(0)">
      <path id="Path_372" data-name="Path 372" class="cls-1" d="M102.05,90.7a7.15,7.15,0,1,0,7.15,7.15,7.162,7.162,0,0,0-7.15-7.15Zm0,11.445a4.295,4.295,0,1,1,4.295-4.295,4.3,4.3,0,0,1-4.295,4.295Zm0,0" transform="translate(-73.89 -70.621)"/>
      <path id="Path_373" data-name="Path 373" class="cls-1" d="M51.843,43.39A28.161,28.161,0,0,0,28.51,0h-.354A28.034,28.034,0,0,0,8.475,8.058,28.1,28.1,0,0,0,4.4,43.279,28.242,28.242,0,0,0,14.918,53l-7.7,10.781A2.515,2.515,0,0,0,9.25,67.764h6.021V70.42a3.061,3.061,0,0,0,3.055,3.055H37.985A3.061,3.061,0,0,0,41.04,70.42V67.764h6a2.515,2.515,0,0,0,2.037-3.985L41.394,53.02a28.508,28.508,0,0,0,10.449-9.63ZM15.272,64.908H9.937l5.335-7.46Zm22.913,5.534a.2.2,0,0,1-.2.2H18.327a.2.2,0,0,1-.2-.2v-.863l20.035-1.66v2.524Zm0-5.424L18.15,66.679V63.823l20.035-1.66Zm8.191-.111H41.04v-7.46ZM39,51.005a1.409,1.409,0,0,0-.819,1.284v1.262l-4.428.376a1.421,1.421,0,0,0-1.306,1.417A1.407,1.407,0,0,0,34,56.761l4.184-.354v2.856L18.15,60.923V58.067l8.877-.731a1.421,1.421,0,0,0,1.306-1.417,1.407,1.407,0,0,0-1.55-1.417l-8.656.731V52.312a1.386,1.386,0,0,0-.819-1.284A25.39,25.39,0,0,1,2.852,27.916a25.4,25.4,0,0,1,25.3-25.06h.31A25.3,25.3,0,0,1,39,51.005Zm0,0" transform="translate(0.004)"/>
    </g>
    <path id="Path_374" data-name="Path 374" class="cls-1" d="M122.139,379.4a1.436,1.436,0,0,0-1.439,1.439v1.9a1.439,1.439,0,1,0,2.878,0v-1.9a1.436,1.436,0,0,0-1.439-1.439Zm0,0" transform="translate(-93.979 -295.409)"/>
    <path id="Path_375" data-name="Path 375" class="cls-1" d="M87.639,336.3a1.436,1.436,0,0,0-1.439,1.439V351.11a1.439,1.439,0,0,0,2.878,0V337.739a1.436,1.436,0,0,0-1.439-1.439Zm0,0" transform="translate(-67.116 -261.851)"/>
    <path id="Path_376" data-name="Path 376" class="cls-1" d="M156.639,336.3a1.436,1.436,0,0,0-1.439,1.439V351.11a1.439,1.439,0,0,0,2.878,0V337.739a1.436,1.436,0,0,0-1.439-1.439Zm0,0" transform="translate(-120.841 -261.851)"/>
    <path id="Path_377" data-name="Path 377" class="cls-1" d="M122.139,336.3a1.436,1.436,0,0,0-1.439,1.439v3.808a1.439,1.439,0,0,0,2.878,0v-3.808a1.436,1.436,0,0,0-1.439-1.439Zm0,0" transform="translate(-93.979 -261.851)"/>
  </g>
</svg>
