<?xml version="1.0" encoding="utf-8"?>
<!-- Generator: Adobe Illustrator 21.1.0, SVG Export Plug-In . SVG Version: 6.00 Build 0)  -->
<svg version="1.1" id="Слой_1" xmlns="http://www.w3.org/2000/svg" xmlns:xlink="http://www.w3.org/1999/xlink" x="0px" y="0px"
	 viewBox="0 0 198.4 240.9" style="enable-background:new 0 0 198.4 240.9;" xml:space="preserve">
<style type="text/css">
	.st0{fill:url(#Path_371_1_);}
	.st1{fill:url(#Path_372_1_);}
	.st2{fill:url(#Path_373_1_);}
	.st3{fill:url(#Path_374_1_);}
	.st4{fill:url(#Path_375_1_);}
	.st5{fill:url(#Path_376_1_);}
	.st6{fill:url(#Path_377_1_);}
</style>
<g id="_5features" transform="matrix(0.921, 0.391, -0.391, 0.921, 25.673, 0)">
	
		<linearGradient id="Path_371_1_" gradientUnits="userSpaceOnUse" x1="-751.5752" y1="-550.7725" x2="-754.8436" y2="-542.0993" gradientTransform="matrix(29.8887 2.216713e-05 3.101581e-05 31.5904 22563.7207 17370.5059)">
		<stop  offset="0" style="stop-color:#112A7C"/>
		<stop  offset="1" style="stop-color:#035796"/>
	</linearGradient>
	<path id="Path_371" class="st0" d="M144.3,44.1l-3.5-1.9c-0.3-0.1-0.4-0.4-0.4-0.7c0.3-1.6,0.4-3.3,0.3-5c0-1.7-0.1-3.3-0.2-4.9
		c0-0.3,0.2-0.6,0.4-0.7l3.5-2c4.1-2.3,5.5-7.5,3.3-11.6L142,7.7c-1.1-1.9-3-3.4-5.2-4c-2.2-0.6-4.5-0.2-6.5,0.9l-3.5,2
		c-0.3,0.2-0.5,0.1-0.7,0c-2.7-2-5.5-3.6-8.6-4.8c-0.3-0.1-0.4-0.3-0.4-0.6l0-3.9c0-4.7-3.8-8.4-8.5-8.5l0,0l-11.3,0.1
		c-4.7,0-8.6,3.9-8.7,8.5l0,0l0,3.9c0,0.3-0.2,0.5-0.3,0.6c-3.1,1.3-6,3-8.7,5C79.6,7.1,79.2,7.1,79,7L75.4,5
		c-4-2.3-9.3-0.9-11.7,3.1c0,0,0,0,0,0.1L57.9,18c-2.4,4.1-1.1,9.1,3,11.5c0,0,0,0,0.1,0l3.5,1.9c0.3,0.1,0.4,0.4,0.4,0.7
		c-0.3,1.6-0.4,3.3-0.3,5c0,1.7,0.1,3.3,0.2,4.9c0,0.3-0.2,0.6-0.4,0.7l-3.5,2c-4.1,2.3-5.5,7.5-3.3,11.6l5.6,9.7
		c2.3,4,7.5,5.4,11.7,3.1l3.5-2c0.3-0.2,0.5-0.1,0.7,0c2.7,2,5.5,3.6,8.6,4.8c0.3,0.1,0.4,0.3,0.4,0.6l0,3.9c0,4.7,3.8,8.4,8.5,8.5
		l0,0l11.3-0.1c4.7,0,8.6-3.9,8.7-8.5l0,0l0-4c0-0.3,0.2-0.5,0.3-0.6c3.1-1.3,6-3,8.7-5c0.2-0.2,0.5-0.2,0.7-0.1l3.5,1.9
		c4,2.3,9.3,0.9,11.7-3.1c0,0,0,0,0-0.1l5.8-9.8C149.7,51.5,148.3,46.4,144.3,44.1L144.3,44.1z M140.5,51.8l-5.8,9.8
		c-0.3,0.3-0.6,0.5-1,0.2l-3.5-1.9c-3-1.7-6.7-1.4-9.5,0.7c-2.1,1.6-4.5,2.9-6.9,3.9c-3.2,1.4-5.3,4.4-5.3,7.8l0,3.9
		c0,0.4-0.3,0.7-0.7,0.6L96.6,77c-0.4,0-0.6-0.3-0.7-0.6l0-4c0-3.4-2-6.5-5.2-7.8c-2.4-1-4.7-2.3-6.9-3.9c-2.8-2.1-6.5-2.3-9.5-0.6
		l-3.5,2c-0.3,0.2-0.8,0.1-1-0.2l-5.6-9.5c-0.1-0.2-0.1-0.4,0-0.5c0.1-0.2,0.2-0.3,0.3-0.5l3.5-2c3-1.7,4.7-5,4.2-8.5
		c-0.3-2.6-0.2-5.2,0.1-7.8c0.5-3.4-1.2-6.7-4.1-8.4l-3.5-1.9c-0.3-0.2-0.4-0.6-0.2-1l5.8-9.8c0.1-0.2,0.3-0.3,0.4-0.3
		c0.2-0.1,0.4-0.1,0.5,0l3.5,1.9c3,1.7,6.7,1.4,9.5-0.7c2.1-1.6,4.4-3,6.9-3.9c3.2-1.4,5.3-4.4,5.3-7.8l0-3.9c0-0.4,0.3-0.7,0.7-0.6
		l11.3-0.1c0.4,0,0.6,0.3,0.7,0.6l0,3.9c0,3.4,2,6.5,5.2,7.8c2.4,1,4.7,2.3,6.9,3.9c2.8,2.1,6.5,2.3,9.5,0.6l3.5-2
		c0.2-0.1,0.3-0.2,0.5-0.1c0.2,0,0.3,0.1,0.5,0.3l5.6,9.7c0.1,0.2,0.1,0.4,0,0.5c-0.1,0.2-0.2,0.3-0.3,0.5l-3.5,2
		c-3,1.7-4.7,5-4.2,8.5c0.3,2.6,0.2,5.2-0.1,7.8c-0.5,3.4,1.2,6.7,4.1,8.4l3.5,1.9C140.7,51.1,140.8,51.5,140.5,51.8L140.5,51.8z"/>
	<g id="Group_281" transform="translate(0)">
		
			<linearGradient id="Path_372_1_" gradientUnits="userSpaceOnUse" x1="-710.2969" y1="-550.6831" x2="-713.6078" y2="-541.897" gradientTransform="matrix(12.8024 2.743281e-05 -2.743281e-05 12.8024 9195.0049 7059.9878)">
			<stop  offset="0" style="stop-color:#112A7C"/>
			<stop  offset="1" style="stop-color:#035796"/>
		</linearGradient>
		<path id="Path_372" class="st1" d="M102.7,17.4C91.9,17.5,83,26.2,82.9,37c-0.1,10.8,8.6,19.4,19.6,19.3
			c10.8-0.1,19.8-8.9,19.8-19.6l0,0C122.4,25.9,113.7,17.4,102.7,17.4z M102.5,48.5c-6.6,0.1-11.8-5.1-11.7-11.6s5.4-11.7,11.9-11.8
			c6.5-0.1,11.8,5.1,11.7,11.6l0,0C114.4,43.2,109.1,48.4,102.5,48.5z"/>
		
			<linearGradient id="Path_373_1_" gradientUnits="userSpaceOnUse" x1="-764.1627" y1="-550.628" x2="-767.506" y2="-541.7558" gradientTransform="matrix(50.425 0 9.922364e-06 65.7737 38631.8242 36138.125)">
			<stop  offset="0" style="stop-color:#112A7C"/>
			<stop  offset="1" style="stop-color:#035796"/>
		</linearGradient>
		<path id="Path_373" class="st2" d="M167.6,80.3C191,44.5,180.9-2.7,145-25.3c-12.2-7.7-26.3-11.8-40.9-11.9l-1,0
			C82.8-37,63.3-29.1,48.8-14.9C22.3,10.5,17.4,50.5,36.9,80.9c7.1,11,17,20.1,28.8,26.2l-21.4,29.5c-2.3,3.1-1.6,7.3,1.5,9.6
			c1.2,0.8,2.6,1.3,4.1,1.3l16.6-0.1l0,7.2c-0.1,4.6,3.8,8.2,8.4,8.3l54.1-0.3c4.6-0.1,8.4-3.8,8.5-8.4l0-7.2l16.5-0.1
			c3.8,0,7-3.2,7-6.9c0-1.5-0.4-2.9-1.3-4l-20.9-29.2C150.4,100.4,160.3,91.4,167.6,80.3z M66.4,139.5l-14.7,0.1l14.9-20.4
			L66.4,139.5z M129.4,154.1c0,0.3-0.2,0.6-0.5,0.6l0,0L74.8,155c-0.3,0-0.5-0.2-0.6-0.5l0,0l0-2.3l55.3-4.9L129.4,154.1
			L129.4,154.1z M129.5,139.4l-55.3,4.9l0.1-7.7l55.3-4.9L129.5,139.4z M152.1,139l-14.7,0.1l0.1-20.2L152.1,139z M132.1,101.3
			c-1.4,0.6-2.3,2-2.2,3.5l0,3.4l-12.2,1.1c-2,0.2-3.6,1.9-3.6,3.9c-0.1,2.1,1.7,3.8,3.8,3.8c0.2,0,0.3,0,0.4,0l11.5-1.1l-0.1,7.7
			l-55.3,4.9l0.1-7.7l24.4-2.2c2-0.2,3.6-1.9,3.6-3.9c0.1-2.1-1.7-3.8-3.8-3.8c-0.2,0-0.3,0-0.4,0l-23.8,2.2l0.1-7.9
			c0-1.5-0.8-2.9-2.2-3.4C47.9,90.4,32.6,66,33,39.2C33.8,1.5,65-29,103.2-29.4l0.9-0.1c38.5,0.2,69,31.3,68.3,69.3
			C171.7,66,156.1,89.9,132.1,101.3L132.1,101.3z"/>
	</g>
	
		<linearGradient id="Path_374_1_" gradientUnits="userSpaceOnUse" x1="-424.1935" y1="-525.1091" x2="-427.5547" y2="-516.1897" gradientTransform="matrix(2.5769 3.017222e-05 -4.926802e-05 4.2806 1194.3872 2436.2937)">
		<stop  offset="0" style="stop-color:#112A7C"/>
		<stop  offset="1" style="stop-color:#035796"/>
	</linearGradient>
	<path id="Path_374" class="st3" d="M101.6,191.1c-2.2,0-4,1.7-4,3.9l0,0l0,5.2c0,2.2,1.8,3.9,3.9,3.9c2.2,0,4-1.7,4-3.9l0,0l0-5.2
		C105.6,192.9,103.8,191.1,101.6,191.1L101.6,191.1z"/>
	
		<linearGradient id="Path_375_1_" gradientUnits="userSpaceOnUse" x1="-429.6882" y1="-543.9244" x2="-433.2693" y2="-534.4215" gradientTransform="matrix(2.5769 1.845550e-05 -4.927750e-05 14.5455 1187.5571 8066.1143)">
		<stop  offset="0" style="stop-color:#112A7C"/>
		<stop  offset="1" style="stop-color:#035796"/>
	</linearGradient>
	<path id="Path_375" class="st4" d="M80.7,165.4c-2.2,0-4,1.7-4,3.9l0,0l-0.2,36.4c0,2.2,1.8,3.9,3.9,3.9c2.2,0,4-1.7,4-3.9
		l0.2-36.4C84.7,167.1,82.9,165.3,80.7,165.4L80.7,165.4L80.7,165.4z"/>
	
		<linearGradient id="Path_376_1_" gradientUnits="userSpaceOnUse" x1="-418.6748" y1="-543.9442" x2="-422.2559" y2="-534.441" gradientTransform="matrix(2.5769 0 -4.927750e-05 14.5472 1201.2172 8067.0728)">
		<stop  offset="0" style="stop-color:#112A7C"/>
		<stop  offset="1" style="stop-color:#035796"/>
	</linearGradient>
	<path id="Path_376" class="st5" d="M122.8,165c-2.2,0-4,1.7-4,3.9l0,0l-0.2,36.4c0,2.2,1.8,3.9,3.9,3.9c2.2,0,4-1.7,4-3.9l0.2-36.4
		C126.7,166.8,125,165,122.8,165C122.8,165,122.8,165,122.8,165L122.8,165z"/>
	
		<linearGradient id="Path_377_1_" gradientUnits="userSpaceOnUse" x1="-424.1216" y1="-535.0865" x2="-427.523" y2="-526.06" gradientTransform="matrix(2.5769 2.938771e-05 -4.926959e-05 5.9789 1194.3872 3360.6509)">
		<stop  offset="0" style="stop-color:#112A7C"/>
		<stop  offset="1" style="stop-color:#035796"/>
	</linearGradient>
	<path id="Path_377" class="st6" d="M101.8,165.2c-2.2,0-4,1.7-4,3.9l0,0l0,10.4c0,2.2,1.8,3.9,3.9,3.9c2.2,0,4-1.7,4-3.9l0-10.4
		C105.7,167,104,165.2,101.8,165.2L101.8,165.2z"/>
</g>
</svg>
