<svg xmlns="http://www.w3.org/2000/svg" viewBox="0 0 41 41">
  <defs>
    <style>
      .cls-1 {
        fill: #f0efeb;
      }
    </style>
  </defs>
  <g id="BiTalk" transform="translate(0)">
    <path id="Path_382" data-name="Path 382" class="cls-1" d="M43.7,5.8l2.6.7,1.25-4.75,3.45.9A20.235,20.235,0,0,0,40.95,0H40.9l4.05,1.05Z" transform="translate(-20.45)"/>
    <path id="Path_383" data-name="Path 383" class="cls-1" d="M31.1,0a19.741,19.741,0,0,0-9.8,2.55L29.85,4.8Z" transform="translate(-10.65)"/>
    <path id="Path_384" data-name="Path 384" class="cls-1" d="M43.25,28.2a3.586,3.586,0,0,0,2.1-.8,3.729,3.729,0,0,0,1.05-3.9,3.438,3.438,0,0,0-1.35-1.6,16.2,16.2,0,0,0-3.75-1.35l-3.15-.85L36.3,26.85l3.15.85A12.236,12.236,0,0,0,43.25,28.2Z" transform="translate(-18.15 -9.85)"/>
    <path id="Path_385" data-name="Path 385" class="cls-1" d="M31.1,5.45,29.85,10.2a13.021,13.021,0,0,1,2.9,1.5,7.469,7.469,0,0,1,2.65,3.4,6.147,6.147,0,0,1,.2,3.9,6.857,6.857,0,0,1-1.3,2.55,7.022,7.022,0,0,1-2.35,1.8,9.705,9.705,0,0,1-3.45.85,13.24,13.24,0,0,1,2.8,1.95A6.923,6.923,0,0,1,33.15,33a7.444,7.444,0,0,1-2.5,3.9,9.079,9.079,0,0,1-4.7,1.95,16.642,16.642,0,0,1-3.5-.05L21.6,42H20.5a21.16,21.16,0,0,1-3.15-.25l1-3.8h-.1l-2.5-.65-1,3.9a22.05,22.05,0,0,1-3.9-1.6l.9-3.35L4.5,34.35c-.35-.45-.65-.85-1-1.35l1.35-2.85a7.053,7.053,0,0,0,1.95.3,1.094,1.094,0,0,0,.7-.4,6.684,6.684,0,0,0,.6-1.6L12.3,12.3a5.54,5.54,0,0,0,.25-1.7,1.425,1.425,0,0,0-.4-.7,4.506,4.506,0,0,0-1.5-.6L9.55,9,10.6,5A20.654,20.654,0,0,0,0,23,20.2,20.2,0,0,0,3.55,34.5c.3.45.65.9,1,1.35a19.845,19.845,0,0,0,6.3,5.2,22.05,22.05,0,0,0,3.9,1.6,22.684,22.684,0,0,0,2.65.6,22.286,22.286,0,0,0,3.15.25,8.1,8.1,0,0,0,1.1-.05,20.49,20.49,0,0,0,9.45-38Z" transform="translate(0 -2.5)"/>
    <path id="Path_386" data-name="Path 386" class="cls-1" d="M30.45,50.9a5.784,5.784,0,0,0,1.25.45l2.1.55a13.934,13.934,0,0,0,3.15.45,3.908,3.908,0,0,0,2.45-.9,4.026,4.026,0,0,0,1.5-2.35,4.142,4.142,0,0,0-.05-2.35,3.825,3.825,0,0,0-1.45-1.8,10.776,10.776,0,0,0-3.55-1.4L32.1,42.6l-1.6,6.2a11.63,11.63,0,0,0-.3,1.6A.694.694,0,0,0,30.45,50.9Z" transform="translate(-15.1 -21.3)"/>
    <path id="Path_387" data-name="Path 387" class="cls-1" d="M21.2,5h0c0,.05.05.05,0,0Z" transform="translate(-10.6 -2.5)"/>
    <path id="Path_388" data-name="Path 388" class="cls-1" d="M40.9,0Z" transform="translate(-20.45)"/>
    <path id="Path_389" data-name="Path 389" class="cls-1" d="M61.7,5.45l-.6-.15a2.065,2.065,0,0,1,.55.35Z" transform="translate(-30.55 -2.65)"/>
  </g>
</svg>
