<svg xmlns="http://www.w3.org/2000/svg" xmlns:xlink="http://www.w3.org/1999/xlink" viewBox="0 0 124.477 124.444">
  <defs>
    <style>
      .cls-1 {
        fill: url(#linear-gradient);
      }
    </style>
    <linearGradient id="linear-gradient" x1="0.5" x2="0.5" y2="1" gradientUnits="objectBoundingBox">
      <stop offset="0" stop-color="#00c6f5"/>
      <stop offset="1" stop-color="#0afa79"/>
    </linearGradient>
  </defs>
  <g id="block-icon-4" transform="translate(0.025 0.025)">
    <path id="Path_382" data-name="Path 382" class="cls-1" d="M51.586,24.662a2.266,2.266,0,0,0,2.276-2.276V7.846l5.184,5.184a2.094,2.094,0,0,0,1.644.632,2.663,2.663,0,0,0,1.644-.632,2.367,2.367,0,0,0,0-3.287l-9.1-9.1a2.367,2.367,0,0,0-3.287,0l-9.1,9.1a2.324,2.324,0,0,0,3.287,3.287L49.31,7.846v14.54a2.266,2.266,0,0,0,2.276,2.276" transform="translate(10.627 0)"/>
    <path id="Path_383" data-name="Path 383" class="cls-1" d="M51.586,78.9a2.266,2.266,0,0,0-2.276,2.276v14.54l-5.184-5.184a2.324,2.324,0,1,0-3.287,3.287l9.1,9.1a2.094,2.094,0,0,0,1.644.632,2.663,2.663,0,0,0,1.644-.632l9.1-9.1a2.324,2.324,0,1,0-3.287-3.287l-5.184,5.184V81.3a2.3,2.3,0,0,0-2.276-2.4" transform="translate(10.627 20.864)"/>
    <path id="Path_384" data-name="Path 384" class="cls-1" d="M24.662,51.586a2.266,2.266,0,0,0-2.276-2.276H7.846l5.184-5.184a2.324,2.324,0,1,0-3.287-3.287l-9.1,9.1a2.367,2.367,0,0,0,0,3.287l9.1,9.1a2.663,2.663,0,0,0,1.644.632,2.663,2.663,0,0,0,1.644-.632,2.367,2.367,0,0,0,0-3.287L7.846,53.862h14.54a2.266,2.266,0,0,0,2.276-2.276" transform="translate(0 10.627)"/>
    <path id="Path_385" data-name="Path 385" class="cls-1" d="M93.819,40.939a2.324,2.324,0,0,0-3.287,3.287l5.184,5.184H81.176a2.276,2.276,0,1,0,0,4.552h14.54l-5.184,5.184a2.367,2.367,0,0,0,0,3.287,2.094,2.094,0,0,0,1.644.632,2.663,2.663,0,0,0,1.644-.632l9.1-9.1a2.367,2.367,0,0,0,0-3.287Z" transform="translate(20.864 10.654)"/>
    <path id="Path_386" data-name="Path 386" class="cls-1" d="M13.9,16.152v12.9a2.276,2.276,0,0,0,4.552,0V21.841L28.693,32.083a2.094,2.094,0,0,0,1.644.632,2.663,2.663,0,0,0,1.644-.632,2.367,2.367,0,0,0,0-3.287L21.739,18.554h7.207a2.276,2.276,0,0,0,0-4.552H16.176A2.09,2.09,0,0,0,13.9,16.152" transform="translate(3.681 3.705)"/>
    <path id="Path_387" data-name="Path 387" class="cls-1" d="M71.071,86.117a2.266,2.266,0,0,0,2.276,2.276h12.9a2.266,2.266,0,0,0,2.276-2.276V73.347a2.276,2.276,0,0,0-4.552,0V80.68L73.726,70.439a2.324,2.324,0,0,0-3.287,3.287L80.68,83.967H73.473a2.131,2.131,0,0,0-2.4,2.149" transform="translate(18.452 18.452)"/>
    <path id="Path_388" data-name="Path 388" class="cls-1" d="M31.98,70.339a2.367,2.367,0,0,0-3.287,0L18.452,80.58V73.247a2.276,2.276,0,1,0-4.552,0v12.9a2.266,2.266,0,0,0,2.276,2.276h12.9a2.276,2.276,0,0,0,0-4.552H21.865L32.107,73.626a2.5,2.5,0,0,0-.126-3.287" transform="translate(3.681 18.426)"/>
    <path id="Path_389" data-name="Path 389" class="cls-1" d="M86.143,31.348a2.266,2.266,0,0,0,2.276-2.276v-12.9A2.266,2.266,0,0,0,86.143,13.9H73.373a2.276,2.276,0,1,0,0,4.552H80.58L70.339,28.693a2.367,2.367,0,0,0,0,3.287,2.094,2.094,0,0,0,1.644.632,2.663,2.663,0,0,0,1.644-.632L83.867,21.739v7.207a2.377,2.377,0,0,0,2.276,2.4" transform="translate(18.426 3.681)"/>
    <path id="Path_390" data-name="Path 390" class="cls-1" d="M66.886,79.42A40.629,40.629,0,0,0,72.07,68.926h6.2A26.21,26.21,0,0,1,66.886,79.42M33,68.8h6.575a40.6,40.6,0,0,0,5.31,10.747A25.728,25.728,0,0,1,33,68.8M44,32.133c-.632.885-1.138,1.77-1.77,2.782a44.08,44.08,0,0,0-3.161,7.46h-6.2A28.08,28.08,0,0,1,44,32.133M78.265,42.5H72.322a35.763,35.763,0,0,0-3.161-7.46,30.249,30.249,0,0,0-1.644-2.655A24.424,24.424,0,0,1,78.265,42.5m-4.8,4.552h6.828a25.878,25.878,0,0,1,0,17.2h-7.08a42.855,42.855,0,0,0,1.011-8.6,32.527,32.527,0,0,0-.759-8.6m-15.552,17.2v-17.2H68.782a38.144,38.144,0,0,1,.885,8.6,34.214,34.214,0,0,1-1.138,8.6Zm0,16.942V68.8h9.23c-2.149,6.069-5.563,11-9.23,12.391M53.357,68.8V81.064c-3.54-1.644-6.828-6.448-8.977-12.264Zm0-38.689V42.5H44c2.149-6.2,5.563-11,9.356-12.391m4.552-.126c3.92,1.391,7.46,6.2,9.609,12.517H57.909ZM41.851,55.65a48.348,48.348,0,0,1,.885-8.6H53.357v17.2H42.989a34.214,34.214,0,0,1-1.138-8.6m-11,8.6a25.878,25.878,0,0,1,0-17.2h7.207a48.32,48.32,0,0,0-.759,8.6,41.832,41.832,0,0,0,1.011,8.6ZM55.633,24.8a31.384,31.384,0,0,0-11.759,2.276,30.826,30.826,0,0,0,11.759,59.3,29.215,29.215,0,0,0,11.759-2.4A30.756,30.756,0,0,0,55.633,24.8" transform="translate(6.58 6.563)"/>
  </g>
</svg>
