<svg xmlns="http://www.w3.org/2000/svg" xmlns:xlink="http://www.w3.org/1999/xlink" viewBox="0 0 220 220">
  <defs>
    <style>
      .cls-1 {
        opacity: 0.298;
        fill: url(#linear-gradient);
      }

      .cls-2 {
        fill: url(#linear-gradient-2);
      }
    </style>
    <linearGradient id="linear-gradient" x1="1.265" y1="1.105" x2="0.084" y2="-0.056" gradientUnits="objectBoundingBox">
      <stop offset="0" stop-color="#3499ff"/>
      <stop offset="1" stop-color="#3a3985"/>
    </linearGradient>
    <linearGradient id="linear-gradient-2" x1="5.285" y1="-4.98" x2="-4.991" y2="6.486" gradientUnits="objectBoundingBox">
      <stop offset="0" stop-color="#00c6f5"/>
      <stop offset="1" stop-color="#0afa79"/>
    </linearGradient>
  </defs>
  <g id="block-icon-3" transform="translate(-187 -7262.09)">
    <circle id="Ellipse_455" data-name="Ellipse 455" class="cls-1" cx="110" cy="110" r="110" transform="translate(187 7262.09)"/>
    <g id="Group_326" data-name="Group 326" transform="translate(239.476 7296)">
      <g id="Group_303" data-name="Group 303" transform="translate(13.778 90.437)">
        <path id="Path_362" data-name="Path 362" class="cls-2" d="M24.889,96.112a9.015,9.015,0,0,1-7.065-6.006c2.473-.236,7.065-.942,9.067-3.768l5.181,3.179c-.589,3.65-4.946,6.594-7.183,6.594m-7.183-8.949c.353-4.946,2.708-7.3,7.183-7.3,4.121,0,6.477,2,7.065,6.123l-4.828-2.944a1.4,1.4,0,0,0-2,.471.411.411,0,0,1-.118.236c-.824,2.237-4.828,3.179-7.3,3.415M34.545,97.407a8.073,8.073,0,0,0-3.3-1.3,10.746,10.746,0,0,0,3.886-7.419C35.134,78.92,29.6,76.8,24.889,76.8s-10.245,2-10.245,11.893a9.721,9.721,0,0,0,3.886,7.419,7.78,7.78,0,0,0-6.83,7.772v.707h2.944v-.707a4.775,4.775,0,0,1,4.828-4.828H30.423a4.85,4.85,0,0,1,4.828,4.828v.707H38.2v-.707a8.053,8.053,0,0,0-3.65-6.477" transform="translate(-11.7 -76.8)"/>
      </g>
      <g id="Group_304" data-name="Group 304" transform="translate(77.013 90.437)">
        <path id="Path_363" data-name="Path 363" class="cls-2" d="M78.471,96.112a9.015,9.015,0,0,1-7.065-6.006c2.473-.236,7.065-.942,9.067-3.768l5.181,3.179c-.471,3.65-4.946,6.594-7.183,6.594m-7.183-8.949c.353-4.946,2.708-7.3,7.183-7.3,4.121,0,6.477,2,7.065,6.123l-4.828-2.944a1.4,1.4,0,0,0-2,.471.411.411,0,0,1-.118.236c-.707,2.237-4.71,3.179-7.3,3.415M88.245,97.407a8.073,8.073,0,0,0-3.3-1.3,10.746,10.746,0,0,0,3.886-7.419C88.834,78.92,83.3,76.8,78.589,76.8s-10.245,2-10.245,11.893a9.721,9.721,0,0,0,3.886,7.419,7.78,7.78,0,0,0-6.83,7.772v.707h2.944v-.707a4.775,4.775,0,0,1,4.828-4.828H84.123a4.85,4.85,0,0,1,4.828,4.828v.707H91.9v-.707a8.716,8.716,0,0,0-3.65-6.477" transform="translate(-65.4 -76.8)"/>
      </g>
      <g id="Group_305" data-name="Group 305" transform="translate(45.218 80.663)">
        <path id="Path_364" data-name="Path 364" class="cls-2" d="M51.589,87.694a9.015,9.015,0,0,1-7.065-6.006c2.473-.236,7.065-.942,9.067-3.768L58.772,81.1c-.589,3.65-4.946,6.594-7.183,6.594m-7.183-8.949c.353-4.946,2.708-7.3,7.183-7.3,4.121,0,6.477,2,7.065,6.123l-4.828-2.944a1.4,1.4,0,0,0-2,.471.411.411,0,0,1-.118.236c-.824,2.355-4.828,3.179-7.3,3.415M61.245,88.99a7.912,7.912,0,0,0-3.3-1.178,10.746,10.746,0,0,0,3.886-7.419C61.834,70.62,56.3,68.5,51.589,68.5s-10.245,2-10.245,11.893a9.721,9.721,0,0,0,3.886,7.419,7.78,7.78,0,0,0-6.83,7.772v.707h2.944v-.707a4.775,4.775,0,0,1,4.828-4.828H57.123a4.85,4.85,0,0,1,4.828,4.828v.707H64.9v-.707a8.441,8.441,0,0,0-3.65-6.594" transform="translate(-38.4 -68.5)"/>
      </g>
      <g id="Group_306" data-name="Group 306" transform="translate(33.678 75.246)">
        <path id="Path_365" data-name="Path 365" class="cls-2" d="M31.9,63.9l-3.3.353a30.12,30.12,0,0,0,.589,3.179l3.179-.824A21.735,21.735,0,0,1,31.9,63.9" transform="translate(-28.6 -63.9)"/>
      </g>
      <g id="Group_307" data-name="Group 307" transform="translate(38.271 85.609)">
        <path id="Path_366" data-name="Path 366" class="cls-2" d="M35.208,72.7l-2.708,2c.589.824,1.3,1.649,2,2.473l2.355-2.355a25.865,25.865,0,0,0-1.649-2.12" transform="translate(-32.5 -72.7)"/>
      </g>
      <g id="Group_308" data-name="Group 308" transform="translate(34.503 62.882)">
        <path id="Path_367" data-name="Path 367" class="cls-2" d="M30.36,53.4a13.45,13.45,0,0,0-1.06,3.062l3.179.942a24.664,24.664,0,0,1,.942-2.708Z" transform="translate(-29.3 -53.4)"/>
      </g>
      <g id="Group_309" data-name="Group 309" transform="translate(35.209 80.663)">
        <path id="Path_368" data-name="Path 368" class="cls-2" d="M32.962,68.5,29.9,69.678a13.551,13.551,0,0,0,1.413,2.944l2.826-1.649A23.535,23.535,0,0,1,32.962,68.5" transform="translate(-29.9 -68.5)"/>
      </g>
      <g id="Group_310" data-name="Group 310" transform="translate(33.561 69.123)">
        <path id="Path_369" data-name="Path 369" class="cls-2" d="M28.736,58.7a28.873,28.873,0,0,0-.236,3.179h3.3a22.868,22.868,0,0,1,.236-2.826Z" transform="translate(-28.5 -58.7)"/>
      </g>
      <g id="Group_311" data-name="Group 311" transform="translate(79.368 69.123)">
        <path id="Path_370" data-name="Path 370" class="cls-2" d="M70.7,58.7l-3.3.471A22.864,22.864,0,0,1,67.636,62h3.3a15.008,15.008,0,0,0-.236-3.3" transform="translate(-67.4 -58.7)"/>
      </g>
      <g id="Group_312" data-name="Group 312" transform="translate(79.015 75.129)">
        <path id="Path_371" data-name="Path 371" class="cls-2" d="M67.571,63.8a23.577,23.577,0,0,1-.471,2.826l3.179.824a30.125,30.125,0,0,0,.589-3.179Z" transform="translate(-67.1 -63.8)"/>
      </g>
      <g id="Group_313" data-name="Group 313" transform="translate(73.833 85.491)">
        <path id="Path_372" data-name="Path 372" class="cls-2" d="M64.466,72.6c-.589.707-1.178,1.531-1.766,2.12l2.355,2.355c.707-.824,1.413-1.649,2-2.473Z" transform="translate(-62.7 -72.6)"/>
      </g>
      <g id="Group_314" data-name="Group 314" transform="translate(77.837 62.882)">
        <path id="Path_373" data-name="Path 373" class="cls-2" d="M69.162,53.4,66.1,54.7a22.907,22.907,0,0,1,.942,2.591l3.179-.942a14.762,14.762,0,0,0-1.06-2.944" transform="translate(-66.1 -53.4)"/>
      </g>
      <g id="Group_315" data-name="Group 315" transform="translate(77.013 80.663)">
        <path id="Path_374" data-name="Path 374" class="cls-2" d="M66.578,68.5A25.192,25.192,0,0,1,65.4,71.091l2.944,1.649c.471-.942.942-1.884,1.413-2.944Z" transform="translate(-65.4 -68.5)"/>
      </g>
      <g id="Group_316" data-name="Group 316" transform="translate(34.503)">
        <path id="Path_375" data-name="Path 375" class="cls-2" d="M69.455,55.817A5.654,5.654,0,0,1,63.8,61.469H58.15V55.817A5.654,5.654,0,0,1,63.8,50.164h5.652ZM34.835,19.548A16.015,16.015,0,1,1,50.849,35.68,16.057,16.057,0,0,1,34.835,19.548m3.533,34.5A5.654,5.654,0,0,1,32.715,48.4V42.746h5.652A5.654,5.654,0,0,1,44.02,48.4V54.05ZM49.2,57.465v9.3a1.766,1.766,0,0,0,3.533,0v-2h11.3A9.071,9.071,0,0,0,73.105,55.7V48.28a1.811,1.811,0,0,0-1.766-1.766H63.92a9.071,9.071,0,0,0-9.067,9.067v5.652h-2.12V38.977a19.548,19.548,0,1,0-3.533,0V54.05H47.434V48.4a9.071,9.071,0,0,0-9.067-9.067H30.949A1.61,1.61,0,0,0,29.3,40.979V48.4a9.071,9.071,0,0,0,9.067,9.067Z" transform="translate(-29.3)"/>
      </g>
      <g id="Group_317" data-name="Group 317" transform="translate(48.987 9.538)">
        <path id="Path_376" data-name="Path 376" class="cls-2" d="M44.544,8.1v3.062H41.6V26.234h2.944v2.944h2.944V26.117h2.944v3.062h2.944v-3.3a4.512,4.512,0,0,0,2.944-4.239,4.708,4.708,0,0,0-1.178-3.062,4.708,4.708,0,0,0,1.178-3.062,4.356,4.356,0,0,0-2.944-4.239V8.1H50.432v3.062H47.488V8.1Zm7.3,15.073h-7.3V20.111h7.3a1.536,1.536,0,0,1,0,3.062m0-9.067a1.46,1.46,0,0,1,1.413,1.531,1.542,1.542,0,0,1-1.413,1.531h-7.3V14.106Z" transform="translate(-41.6 -8.1)"/>
      </g>
      <g id="Group_318" data-name="Group 318" transform="translate(0 41.804)">
        <path id="Path_377" data-name="Path 377" class="cls-2" d="M4.71,90.257c-.471-1.06-.824-2.237-1.178-3.3l3.3-1.178a32.654,32.654,0,0,0,1.178,3.062ZM2.473,83.78c-.353-1.178-.707-2.237-.942-3.415l3.415-.824c.236,1.06.589,2.12.824,3.179ZM.824,76.95C.589,75.773.471,74.6.353,73.418l3.533-.353c.118,1.06.236,2.12.471,3.3ZM0,70V66.47l3.533.118v3.179Zm3.886-6.594L.353,62.937A18.775,18.775,0,0,1,1.06,59.4l3.415.824A30.12,30.12,0,0,0,3.886,63.408Zm1.649-6.241-3.3-1.3c.471-1.178.942-2.237,1.413-3.3L6.83,54.223A20.493,20.493,0,0,0,5.535,57.167Zm2.826-5.535-2.944-2c.707-.942,1.413-1.884,2.237-2.826l2.708,2.355A14.112,14.112,0,0,0,8.361,51.633ZM12.6,46.8l-2.355-2.591c.824-.824,1.766-1.531,2.708-2.355l2.12,2.826A14.608,14.608,0,0,0,12.6,46.8Zm5.064-4-1.884-3.062c.942-.589,2-1.178,3.062-1.766l1.531,3.179A20.738,20.738,0,0,1,17.663,42.8Zm5.888-2.826-1.3-3.3A20.65,20.65,0,0,1,25.789,35.5l.824,3.415-.471-1.649.471,1.766A9.325,9.325,0,0,0,23.551,39.975Z" transform="translate(0 -35.5)"/>
      </g>
      <g id="Group_319" data-name="Group 319" transform="translate(87.729 41.804)">
        <path id="Path_378" data-name="Path 378" class="cls-2" d="M96.285,90.257l-3.3-1.3c.471-1.06.824-2.12,1.178-3.062l3.3,1.178A17.385,17.385,0,0,1,96.285,90.257ZM98.64,83.78l-3.415-1.06a31.565,31.565,0,0,0,.824-3.179l3.415.824C99.229,81.543,98.993,82.6,98.64,83.78Zm1.649-6.83-3.533-.589a31.739,31.739,0,0,0,.471-3.3l3.533.353C100.642,74.6,100.524,75.773,100.289,76.95ZM101.113,70l-3.533-.118V66.705l3.533-.118V70Zm-3.886-6.594a30.119,30.119,0,0,0-.589-3.179l3.415-.824.707,3.533Zm-1.649-6.241a32,32,0,0,0-1.3-2.944l3.179-1.649a16.368,16.368,0,0,1,1.413,3.3Zm-2.944-5.535a20.4,20.4,0,0,0-2-2.473L93.341,46.8c.824.942,1.531,1.884,2.237,2.826ZM88.513,46.8l-2.473-2.12,2.12-2.826a25.877,25.877,0,0,1,2.708,2.355Zm-5.181-4c-.942-.589-1.884-1.06-2.826-1.531l1.531-3.179A25.917,25.917,0,0,1,85.1,39.857Zm-5.77-2.826c-1.766-.707-2.944-.942-3.062-1.06l.824-3.415a32.748,32.748,0,0,1,3.533,1.178Z" transform="translate(-74.5 -35.5)"/>
      </g>
      <g id="Group_320" data-name="Group 320" transform="translate(11.54 116.697)">
        <path id="Path_379" data-name="Path 379" class="cls-2" d="M36.3,115.468H14.039A4.091,4.091,0,0,1,9.8,111.229v-7.89A4.091,4.091,0,0,1,14.039,99.1H36.177a4.091,4.091,0,0,1,4.239,4.239v7.89A3.934,3.934,0,0,1,36.3,115.468ZM14.039,100.984a2.3,2.3,0,0,0-2.473,2.473v7.89a2.352,2.352,0,0,0,2.473,2.473H36.177a2.352,2.352,0,0,0,2.473-2.473v-7.89a2.352,2.352,0,0,0-2.473-2.473Z" transform="translate(-9.8 -99.1)"/>
      </g>
      <g id="Group_321" data-name="Group 321" transform="translate(74.775 116.697)">
        <path id="Path_380" data-name="Path 380" class="cls-2" d="M89.877,115.468H67.739a4.091,4.091,0,0,1-4.239-4.239v-7.89A4.091,4.091,0,0,1,67.739,99.1H89.877a4.091,4.091,0,0,1,4.239,4.239v7.89A4.074,4.074,0,0,1,89.877,115.468ZM67.739,100.984a2.3,2.3,0,0,0-2.473,2.473v7.89a2.352,2.352,0,0,0,2.473,2.473H89.877a2.352,2.352,0,0,0,2.473-2.473v-7.89a2.352,2.352,0,0,0-2.473-2.473Z" transform="translate(-63.5 -99.1)"/>
      </g>
      <g id="Group_322" data-name="Group 322" transform="translate(42.981 107.041)">
        <path id="Path_381" data-name="Path 381" class="cls-2" d="M63,107.268H40.739a4.091,4.091,0,0,1-4.239-4.239v-7.89A4.091,4.091,0,0,1,40.739,90.9H63a4.091,4.091,0,0,1,4.239,4.239v7.89A4.134,4.134,0,0,1,63,107.268ZM40.739,92.784a2.3,2.3,0,0,0-2.473,2.473v7.89a2.352,2.352,0,0,0,2.473,2.473H63a2.352,2.352,0,0,0,2.473-2.473v-7.89A2.352,2.352,0,0,0,63,92.784Z" transform="translate(-36.5 -90.9)"/>
      </g>
      <g id="Group_323" data-name="Group 323" transform="translate(12.835 133.654)">
        <rect id="Rectangle_96" data-name="Rectangle 96" class="cls-2" width="27.673" height="2.944"/>
      </g>
      <g id="Group_324" data-name="Group 324" transform="translate(75.953 133.654)">
        <rect id="Rectangle_97" data-name="Rectangle 97" class="cls-2" width="27.673" height="2.944"/>
      </g>
      <g id="Group_325" data-name="Group 325" transform="translate(44.276 123.997)">
        <rect id="Rectangle_98" data-name="Rectangle 98" class="cls-2" width="27.673" height="2.944"/>
      </g>
    </g>
  </g>
</svg>
