<?xml version="1.0" encoding="utf-8"?>
<!-- Generator: Adobe Illustrator 21.1.0, SVG Export Plug-In . SVG Version: 6.00 Build 0)  -->
<svg version="1.1" id="Слой_1" xmlns="http://www.w3.org/2000/svg" xmlns:xlink="http://www.w3.org/1999/xlink" x="0px" y="0px"
	 viewBox="0 0 45 45" style="enable-background:new 0 0 45 45;" xml:space="preserve">
<style type="text/css">
	.st0{fill:none;}
	.st1{fill:#ED6C0C;}
	.st2{fill:#E05A00;}
	.st3{fill:#FFB600;}
	.st4{fill:#F6921E;}
	.st5{fill:#D85107;}
	.st6{fill:#E26600;}
</style>
<rect class="st0" width="45" height="45"/>
<rect class="st0" width="45" height="45"/>
<path class="st1" d="M20.5,22.8l-1.3,5.4c1.7,0.4,6.8,2.1,7.6-1C27.6,24,22.2,23.2,20.5,22.8"/>
<rect class="st0" width="45" height="45"/>
<path class="st2" d="M26.8,27.3c0.8-3.2-4.6-4-6.3-4.4l-1.3,5.3"/>
<rect class="st0" width="45" height="45"/>
<path class="st1" d="M22.4,15.4l-1.2,5c1.4,0.4,5.7,1.8,6.4-1C28.2,16.4,23.8,15.7,22.4,15.4"/>
<rect class="st0" width="45" height="45"/>
<path class="st2" d="M27.6,19.3c0.7-2.9-3.7-3.6-5.2-3.9l-1.2,5"/>
<rect class="st0" width="45" height="45"/>
<rect class="st0" width="45" height="45"/>
<path class="st3" d="M27.9,0.7C15.8-2.3,3.7,5.1,0.7,17.1c-3,12.1,4.3,24.3,16.4,27.3S41.4,40.1,44.4,28C47.3,15.9,40,3.8,27.9,0.7
	 M32.4,19.3c-0.3,2.2-1.5,3.3-3.2,3.7c2.2,1.1,3.4,2.9,2.2,6c-1.3,3.8-4.5,4.1-8.7,3.4l-1,4.1l-2.4-0.7l1-4c-0.7-0.2-1.3-0.4-2-0.5
	l-1,4l-2.4-0.7l1-4.1c-0.6-0.2-1.1-0.3-1.8-0.5L11,29.1l1.2-2.8l1.8,0.5c0.7,0.2,1-0.3,1.1-0.6l1.6-6.5c0.1,0,0.2,0,0.3,0.1
	c-0.1,0-0.2-0.1-0.3-0.1l1.1-4.6c0-0.6-0.2-1.2-1.1-1.4l-1.8-0.5l0.7-2.6l3.4,0.8c0.5,0.1,1,0.3,1.6,0.4l1-4L24,8.5l-1,3.9
	c0.7,0.2,1.3,0.3,2,0.5L25.9,9l2.4,0.7l-1,4C30.6,14.7,32.9,16.3,32.4,19.3"/>
<rect class="st0" width="45" height="45"/>
<path class="st4" d="M0.7,17.1c-3,12.1,4.3,24.3,16.4,27.3S41.4,40.1,44.4,28S40.1,3.7,28,0.7 M32.4,19.3c-0.3,2.2-1.5,3.3-3.2,3.7
	c2.2,1.1,3.4,2.9,2.2,6c-1.3,3.8-4.5,4.1-8.7,3.4l-1,4.1l-2.4-0.7l1-4c-0.7-0.2-1.3-0.4-2-0.5l-1,4l-2.4-0.7l1-4.1
	c-0.6-0.2-1.1-0.3-1.8-0.5L11,29.1l1.2-2.8l1.8,0.5c0.7,0.2,1-0.3,1.1-0.6l1.6-6.5c0.1,0,0.2,0,0.3,0.1c-0.1,0-0.2-0.1-0.3-0.1
	l1.1-4.6c0-0.6-0.2-1.2-1.1-1.4l-1.8-0.5l0.7-2.6l3.4,0.8c0.5,0.1,1,0.3,1.6,0.4l1-4L24,8.5l-1,3.9c0.7,0.2,1.3,0.3,2,0.5L25.9,9
	l2.4,0.7l-1,4C30.6,14.7,32.9,16.3,32.4,19.3"/>
<path class="st5" d="M44.1,28.8L32,16.6c0.5,0.7,0.7,1.7,0.6,2.8c-0.3,2.2-1.5,3.3-3.2,3.7c2.2,1.1,3.4,2.9,2.2,6
	c-1.3,3.8-4.5,4.1-8.7,3.4l-1,4.1l-2.5-0.8l1-4c-0.7-0.2-1.3-0.4-2-0.5l-1,4L16.8,35l9.6,9.6C34.6,43.2,41.7,37.2,44.1,28.8"/>
<rect class="st0" width="45" height="45"/>
<path class="st6" d="M11,29.2L11,29.2l4.2,4.2l0.7-3c-0.6-0.2-1.1-0.3-1.8-0.5L11,29.2z"/>
<rect class="st0" width="45" height="45"/>
<path class="st6" d="M27.8,12.5L27.8,12.5l-0.4,1.2c1.1,0.4,2.2,0.8,3,1.4L27.8,12.5z"/>
<rect class="st0" width="45" height="45"/>
<path class="st1" d="M24.1,8.5L24.1,8.5l-1,3.9c0.7,0.2,1.3,0.3,2,0.5l0.7-2.8L24.1,8.5z"/>
<rect class="st0" width="45" height="45"/>
<path class="st1" d="M28.5,9.6L28.5,9.6l-1,4l0.1,0.1c2.8,0.9,5,2.4,5,5l11.2,11.2c0.2-0.7,0.4-1.3,0.6-1.9c0.2-0.7,0.3-1.4,0.4-2.2
	L28.5,9.6z"/>
<rect class="st0" width="45" height="45"/>
<path class="st1" d="M30.7,43.5L22.1,35l-0.4,1.4l-2.4-0.7l0.7-2.9l-1.7-1.7l-1,4l-2.4-0.7v-0.1l-0.1,0.1L25,44.7
	C27,44.6,28.9,44.1,30.7,43.5"/>
<path class="st2" d="M33,42.4L22.9,32.2h-0.1l-1,4.1l-2.3-0.6l8.5,8.5C29.7,43.9,31.4,43.2,33,42.4"/>
</svg>
