<?xml version="1.0" encoding="utf-8"?>
<!-- Generator: Adobe Illustrator 21.1.0, SVG Export Plug-In . SVG Version: 6.00 Build 0)  -->
<svg version="1.1" id="Слой_1" xmlns="http://www.w3.org/2000/svg" xmlns:xlink="http://www.w3.org/1999/xlink" x="0px" y="0px"
	 viewBox="0 0 45 45" style="enable-background:new 0 0 45 45;" xml:space="preserve">
<style type="text/css">
	.st0{clip-path:url(#SVGID_2_);}
	.st1{clip-path:url(#SVGID_7_);}
	.st2{clip-path:url(#SVGID_8_);}
	.st3{clip-path:url(#SVGID_9_);}
	.st4{clip-path:url(#SVGID_10_);fill:#59AAE7;}
	.st5{clip-path:url(#SVGID_10_);fill:#3D9AE3;}
	.st6{clip-path:url(#SVGID_10_);fill:#FCFCFC;}
	.st7{clip-path:url(#SVGID_10_);fill:#D8D7DA;}
</style>
<g>
	<g>
		<g id="Векторный_смарт-объект">
			<defs>
				<rect id="SVGID_1_" width="45" height="45"/>
			</defs>
			<clipPath id="SVGID_2_">
				<use xlink:href="#SVGID_1_"  style="overflow:visible;"/>
			</clipPath>
			<g class="st0">
				<g>
					<defs>
						<rect id="SVGID_3_" width="45" height="45"/>
					</defs>
					<defs>
						<rect id="SVGID_4_" width="45" height="45"/>
					</defs>
					<defs>
						<rect id="SVGID_5_" width="45" height="45"/>
					</defs>
					<defs>
						<rect id="SVGID_6_" width="45" height="45"/>
					</defs>
					<clipPath id="SVGID_7_">
						<use xlink:href="#SVGID_3_"  style="overflow:visible;"/>
					</clipPath>
					<clipPath id="SVGID_8_" class="st1">
						<use xlink:href="#SVGID_4_"  style="overflow:visible;"/>
					</clipPath>
					<clipPath id="SVGID_9_" class="st2">
						<use xlink:href="#SVGID_5_"  style="overflow:visible;"/>
					</clipPath>
					<clipPath id="SVGID_10_" class="st3">
						<use xlink:href="#SVGID_6_"  style="overflow:visible;"/>
					</clipPath>
					<path class="st4" d="M22.5,0C34.9,0,45,10.1,45,22.5S34.9,45,22.5,45S0,34.9,0,22.5S10.1,0,22.5,0"/>
					<path class="st5" d="M22.5,0c-1,0-2,0.1-2.9,0.2c11,1.4,19.6,10.9,19.6,22.3s-8.5,20.9-19.6,22.3c1,0.1,1.9,0.2,2.9,0.2
						C34.9,45,45,34.9,45,22.5S34.9,0,22.5,0"/>
					<path class="st6" d="M14.5,27.3l-7.3-3.6c-0.2-0.1-0.2-0.4,0-0.5L34.8,9c0.2-0.1,0.4,0,0.4,0.3L30.4,33c0,0.2-0.2,0.3-0.4,0.2
						l-6.5-2.8c-0.1,0-0.2,0-0.2,0L15,35.1c-0.2,0.1-0.4,0-0.4-0.2v-7.2C14.6,27.5,14.6,27.4,14.5,27.3"/>
					<path class="st7" d="M17.6,29.8v-7.2c0,0,0-0.1,0.1-0.1l11.8-7.2c0.1-0.1,0.3,0.1,0.2,0.2l-9,9l0,0L19,27.6l-1.2,2.3
						C17.8,30,17.6,29.9,17.6,29.8"/>
				</g>
			</g>
		</g>
	</g>
</g>
</svg>
