<?xml version="1.0" encoding="utf-8"?>
<!-- Generator: Adobe Illustrator 21.1.0, SVG Export Plug-In . SVG Version: 6.00 Build 0)  -->
<svg version="1.1" id="Слой_1" xmlns="http://www.w3.org/2000/svg" xmlns:xlink="http://www.w3.org/1999/xlink" x="0px" y="0px"
	 viewBox="0 0 45 45" style="enable-background:new 0 0 45 45;" xml:space="preserve">
<style type="text/css">
	.st0{clip-path:url(#SVGID_2_);}
	.st1{clip-path:url(#SVGID_5_);}
	.st2{clip-path:url(#SVGID_6_);fill:#26A6D1;}
	.st3{clip-path:url(#SVGID_6_);fill:#FFFFFF;}
</style>
<g>
	<g>
		<g id="Векторный_смарт-объект">
			<defs>
				<rect id="SVGID_1_" width="45" height="45"/>
			</defs>
			<clipPath id="SVGID_2_">
				<use xlink:href="#SVGID_1_"  style="overflow:visible;"/>
			</clipPath>
			<g class="st0">
				<g>
					<defs>
						<rect id="SVGID_3_" width="45" height="45"/>
					</defs>
					<defs>
						<rect id="SVGID_4_" width="45" height="45"/>
					</defs>
					<clipPath id="SVGID_5_">
						<use xlink:href="#SVGID_3_"  style="overflow:visible;"/>
					</clipPath>
					<clipPath id="SVGID_6_" class="st1">
						<use xlink:href="#SVGID_4_"  style="overflow:visible;"/>
					</clipPath>
					<path class="st2" d="M22.5,0C34.9,0,45,10.1,45,22.5S34.9,45,22.5,45S0,34.9,0,22.5S10.1,0,22.5,0"/>
					<path class="st3" d="M36.6,15.2c-1,0.4-2,0.7-3.1,0.8c1.1-0.7,2-1.7,2.4-2.9c-1.1,0.6-2.2,1.1-3.5,1.3c-1-1-2.4-1.7-4-1.7
						c-3,0-5.5,2.4-5.5,5.3c0,0.4,0,0.8,0.1,1.2c-4.6-0.2-8.6-2.3-11.3-5.6c-0.5,0.8-0.7,1.7-0.7,2.7c0,1.8,1,3.5,2.4,4.4
						c-0.9,0-1.7-0.3-2.5-0.7v0.1c0,2.6,1.9,4.7,4.4,5.2c-0.5,0.1-0.9,0.2-1.4,0.2c-0.4,0-0.7,0-1-0.1c0.7,2.1,2.7,3.7,5.1,3.7
						c-1.9,1.4-4.2,2.3-6.8,2.3c-0.4,0-0.9,0-1.3-0.1c2.4,1.5,5.3,2.4,8.4,2.4c10.1,0,15.6-8.1,15.6-15.1v-0.7
						C34.9,17.2,35.8,16.2,36.6,15.2"/>
				</g>
			</g>
		</g>
	</g>
</g>
</svg>
