<?xml version="1.0" encoding="utf-8"?>
<!-- Generator: Adobe Illustrator 21.1.0, SVG Export Plug-In . SVG Version: 6.00 Build 0)  -->
<svg version="1.1" xmlns="http://www.w3.org/2000/svg" xmlns:xlink="http://www.w3.org/1999/xlink" x="0px" y="0px"
	 viewBox="0 0 60 58.5" style="enable-background:new 0 0 60 58.5;" xml:space="preserve">
<g id="Слой_2">
</g>
<g id="Слой_1">
	<path id="Git-icon" d="M56,14.9C53.4,10.4,49.6,6.6,45.1,4C40.5,1.3,35.3,0,30,0c-5.3,0-10.5,1.3-15.1,4C10.4,6.6,6.6,10.4,4,14.9
		C1.3,19.5,0,24.7,0,30c-0.1,6.3,1.9,12.5,5.7,17.6c3.6,5.1,8.8,8.9,14.8,10.8c0.5,0.2,1.1,0.1,1.6-0.3c0.3-0.3,0.5-0.7,0.5-1.2
		c0-0.1,0-0.8,0-2.1c0-1.3,0-2.5,0-3.5l-0.9,0.2c-0.7,0.1-1.4,0.2-2.2,0.1c-0.9,0-1.8-0.1-2.7-0.3c-1-0.2-1.9-0.6-2.6-1.2
		c-0.8-0.6-1.4-1.4-1.7-2.4L12,47c-0.3-0.7-0.7-1.4-1.2-2c-0.4-0.6-1-1.1-1.7-1.5l-0.3-0.2c-0.2-0.1-0.4-0.3-0.5-0.5
		c-0.1-0.2-0.3-0.3-0.4-0.5c-0.1-0.2,0-0.3,0.2-0.5c0.4-0.1,0.8-0.2,1.1-0.2l0.8,0.1c0.7,0.2,1.4,0.5,1.9,0.9c0.8,0.5,1.4,1.2,1.9,2
		c0.5,1,1.3,1.8,2.2,2.4c0.7,0.5,1.6,0.8,2.6,0.8c0.7,0,1.5-0.1,2.2-0.2c0.6-0.1,1.2-0.3,1.8-0.6c0.1-1.5,0.8-3,1.9-4
		c-1.3-0.1-2.7-0.4-4-0.7c-1.3-0.4-2.5-0.9-3.7-1.5c-1.2-0.7-2.3-1.5-3.2-2.6c-0.9-1.2-1.6-2.6-2.1-4.1c-0.6-1.9-0.8-3.9-0.8-5.9
		c-0.1-3,1-5.9,3.1-8c-1-2.6-0.9-5.5,0.3-8c1.1-0.2,2.3,0,3.4,0.5c1.1,0.4,2.2,0.9,3.3,1.5c0.7,0.4,1.2,0.8,1.7,1.1
		c4.9-1.4,10.1-1.4,15,0l1.5-0.9c1.1-0.7,2.3-1.3,3.6-1.7c1-0.5,2.1-0.6,3.2-0.4c1.2,2.5,1.3,5.4,0.3,8c2,2.2,3.1,5.1,3.1,8
		c0,2-0.2,4-0.8,5.9c-0.4,1.5-1.1,2.9-2.1,4.1c-0.9,1.1-2,1.9-3.2,2.6c-1.2,0.7-2.4,1.2-3.7,1.5c-1.3,0.3-2.7,0.6-4,0.7
		c1.4,1.2,2,3,2,5.5V57c0,0.4,0.2,0.9,0.5,1.2c0.4,0.3,1,0.4,1.5,0.3c6-1.9,11.1-5.7,14.8-10.8c3.8-5.1,5.8-11.3,5.7-17.6
		C60,24.7,58.6,19.5,56,14.9L56,14.9z"/>
</g>
</svg>
