<svg xmlns="http://www.w3.org/2000/svg" viewBox="0 0 352.391 352.391">
  <defs>
    <style>
      .cls-1, .cls-2, .cls-3, .cls-4, .cls-5 {
        fill: none;
        stroke-linecap: round;
        stroke-linejoin: round;
        stroke-miterlimit: 10;
      }

      .cls-1 {
        stroke: red;
      }

      .cls-1, .cls-2, .cls-3, .cls-5 {
        stroke-width: 10px;
      }

      .cls-2 {
        stroke: #ff8000;
      }

      .cls-3 {
        stroke: #41aa54;
      }

      .cls-4 {
        stroke: #01a0c6;
        stroke-width: 20px;
      }

      .cls-5 {
        stroke: #82027e;
      }
    </style>
  </defs>
  <g id="distribution-diagram" transform="translate(7 7)">
    <g id="Group_346" data-name="Group 346" transform="translate(107.016 3.768)">
      <path id="Path_402" data-name="Path 402" class="cls-1" d="M30.1,14.715A152.235,152.235,0,0,1,80.765,3.2" transform="translate(-30.1 -3.2)"/>
    </g>
    <g id="Group_347" data-name="Group 347" transform="translate(71.704 15.282)">
      <path id="Path_403" data-name="Path 403" class="cls-2" d="M20.9,25.775A138.243,138.243,0,0,1,56.212,6.2" transform="translate(-20.9 -6.2)"/>
    </g>
    <g id="Group_348" data-name="Group 348" transform="translate(3 34.857)">
      <path id="Path_404" data-name="Path 404" class="cls-3" d="M3,145.638C3,90.368,26.8,43.541,71.7,11.3" transform="translate(-3 -11.3)"/>
    </g>
    <g id="Group_349" data-name="Group 349" transform="translate(3 3)">
      <path id="Path_405" data-name="Path 405" class="cls-4" d="M169.2,3c91.734,0,166.2,74.462,166.2,166.2s-74.462,166.2-166.2,166.2S3,260.929,3,169.2" transform="translate(-3 -3)"/>
    </g>
    <g id="Group_350" data-name="Group 350" transform="translate(157.681 3)">
      <path id="Path_406" data-name="Path 406" class="cls-5" d="M43.3,3.384C47.138,3,51.36,3,54.815,3" transform="translate(-43.3 -3)"/>
    </g>
  </g>
</svg>
