<svg xmlns="http://www.w3.org/2000/svg" xmlns:xlink="http://www.w3.org/1999/xlink" viewBox="0 0 220 220">
  <defs>
    <style>
      .cls-1 {
        fill: url(#linear-gradient);
      }

      .cls-2 {
        opacity: 0.502;
        fill: url(#linear-gradient-3);
      }

      .cls-3 {
        clip-path: url(#clip-path);
      }
    </style>
    <linearGradient id="linear-gradient" x1="0.723" y1="-0.439" x2="-0.476" y2="4.328" gradientUnits="objectBoundingBox">
      <stop offset="0" stop-color="#39f0cf"/>
      <stop offset="1" stop-color="#0063ae"/>
    </linearGradient>
    <linearGradient id="linear-gradient-3" x1="1.265" y1="1.105" x2="0.084" y2="-0.056" gradientUnits="objectBoundingBox">
      <stop offset="0" stop-color="#1fb6fd"/>
      <stop offset="0.36" stop-color="#0d5ca0"/>
      <stop offset="1" stop-color="#0c2660"/>
    </linearGradient>
    <clipPath id="clip-path">
      <path id="Path_257" data-name="Path 257" class="cls-1" d="M0,22.342H89.382V-98.129H0Z" transform="translate(0 98.129)"/>
    </clipPath>
  </defs>
  <g id="explain-icon-2" transform="translate(65.18 49.785)">
    <circle id="Ellipse_450" data-name="Ellipse 450" class="cls-2" cx="110" cy="110" r="110" transform="translate(-65.18 -49.785)"/>
    <g id="Group_210" data-name="Group 210" class="cls-3" transform="translate(0 0)">
      <g id="Group_208" data-name="Group 208" transform="translate(9.715 46.634)">
        <path id="Path_255" data-name="Path 255" class="cls-1" d="M3.243,1.8A9.607,9.607,0,0,0,5.237,7.631H-8.416a1.947,1.947,0,0,1-1.942-1.945A1.946,1.946,0,0,1-8.416,3.744H-.644V-.142H-8.416a5.835,5.835,0,0,0-5.829,5.828,5.838,5.838,0,0,0,5.829,5.831H49.875a5.83,5.83,0,1,0,0-11.659H42.1V3.744h7.771a1.943,1.943,0,1,1,0,3.887H36.225A9.623,9.623,0,0,0,38.218,1.8,9.727,9.727,0,0,0,28.5-7.914,9.683,9.683,0,0,0,20.73-3.968a9.682,9.682,0,0,0-7.771-3.946A9.727,9.727,0,0,0,3.243,1.8M28.5-4.028A5.83,5.83,0,1,1,22.674,1.8,5.837,5.837,0,0,1,28.5-4.028M20.73,7.571c.016.021.033.038.05.06h-.1c.016-.022.034-.039.05-.06M18.787,1.8a5.828,5.828,0,1,1-5.828-5.83A5.835,5.835,0,0,1,18.787,1.8" transform="translate(14.245 7.914)"/>
      </g>
      <g id="Group_209" data-name="Group 209" transform="translate(0 69.951)">
        <path id="Path_256" data-name="Path 256" class="cls-1" d="M14.457.976a7.4,7.4,0,0,1-2.178-5.261H8.394a11.242,11.242,0,0,0,3.317,8.007l3.841,3.841A21.86,21.86,0,0,1,22,23.119,19.25,19.25,0,0,1,2.766,42.348h-43.15A19.249,19.249,0,0,1-59.613,23.119,21.854,21.854,0,0,1-53.17,7.566l3.841-3.841a11.252,11.252,0,0,0,3.317-8.009H-49.9A7.4,7.4,0,0,1-52.076.976l-3.841,3.841a25.712,25.712,0,0,0-7.582,18.3A23.143,23.143,0,0,0-40.384,46.235H2.765A23.144,23.144,0,0,0,25.882,23.119,25.717,25.717,0,0,0,18.3,4.818Z" transform="translate(63.5 4.285)"/>
      </g>
    </g>
    <path id="Path_258" data-name="Path 258" class="cls-1" d="M58.56-90.355h3.887v-7.774H58.56Z" transform="translate(13.333 98.129)"/>
    <g id="Group_211" data-name="Group 211" transform="translate(48.491 7.773)">
      <path id="Path_259" data-name="Path 259" class="cls-1" d="M6.518,1.8H-1.339v-5.83H-5.225V5.686h3.8l-9.63,12.381L-20.685,5.686h3.8v-13.6H-20.77V1.8h-7.858l17.574,22.6Z" transform="translate(28.628 7.914)"/>
    </g>
    <path id="Path_260" data-name="Path 260" class="cls-1" d="M45.9-94.242h3.887v-3.887H45.9Z" transform="translate(10.45 98.129)"/>
    <path id="Path_261" data-name="Path 261" class="cls-1" d="M23.741-94.242h3.886v-3.887H23.741Z" transform="translate(5.405 98.129)"/>
    <g id="Group_212" data-name="Group 212" transform="translate(5.743 7.773)">
      <path id="Path_262" data-name="Path 262" class="cls-1" d="M6.518,3.243H-1.34V-14.244H-5.227V7.13h3.8l-9.63,12.379L-20.685,7.13h3.8V-10.358h-3.887v13.6h-7.858l17.574,22.6Z" transform="translate(28.629 14.244)"/>
    </g>
    <path id="Path_263" data-name="Path 263" class="cls-1" d="M11.079-90.355h3.887v-7.774H11.079Z" transform="translate(2.522 98.129)"/>
    <g id="Group_217" data-name="Group 217" class="cls-3" transform="translate(0 0)">
      <g id="Group_213" data-name="Group 213" transform="translate(23.317 69.95)">
        <path id="Path_264" data-name="Path 264" class="cls-1" d="M3.964.721A17.521,17.521,0,0,1,15.027,4.669l2.461-3.008A21.408,21.408,0,0,0,3.964-3.166a21.373,21.373,0,0,0-16.547,34.9l3.008-2.461A17.485,17.485,0,0,1,3.964.721" transform="translate(17.409 3.166)"/>
      </g>
      <g id="Group_214" data-name="Group 214" transform="translate(31.164 77.799)">
        <path id="Path_265" data-name="Path 265" class="cls-1" d="M6.472,2.508A21.408,21.408,0,0,0,1.645-11.017L-1.363-8.556A17.514,17.514,0,0,1,2.586,2.508,17.508,17.508,0,0,1-14.9,20a17.521,17.521,0,0,1-11.063-3.948l-2.463,3.008A21.412,21.412,0,0,0-14.9,23.881,21.4,21.4,0,0,0,6.472,2.508" transform="translate(28.428 11.017)"/>
      </g>
      <g id="Group_215" data-name="Group 215" transform="translate(31.94 81.214)">
        <path id="Path_266" data-name="Path 266" class="cls-1" d="M1.893,1.78V1.62C3.863,1.3,4.241.068,4.241-1.822c0-3.263-1.752-3.819-4.717-3.819h-.48V-7.817H-4.142v2.175H-8.314V9.281h4.172v1.792H-.955V9.281H-.4c3.164,0,4.875-.5,4.875-4.158,0-1.871-.378-3.2-2.587-3.343M-4.335-2.378H-.992C.062-2.378.261-2,.261-1.105.261.088-.076.327-1.47.327H-4.335Zm3.005,8.4H-4.335V3.093h3.084C.043,3.093.5,3.271.5,4.505c0,1.214-.538,1.512-1.83,1.512" transform="translate(8.314 7.817)"/>
      </g>
      <g id="Group_216" data-name="Group 216" transform="translate(46.296 81.215)">
        <path id="Path_267" data-name="Path 267" class="cls-1" d="M2.435,1.4V.819c0-3.435-1.742-4.663-4.972-4.876V-6.131H-5.725v2.114C-8.863-3.73-10.7-2.531-10.7,1.575v3.86c0,4.482,2,5.467,4.972,5.676v1.649h3.188V11.137c3.759-.192,4.972-1.47,4.972-5.3V5.4h-4.1v.437c0,1.751-.8,1.871-2.447,1.871C-6.5,7.7-6.6,6.768-6.6,4.54V2.212c0-2.13.219-2.846,2.487-2.846,1.353,0,2.447.259,2.447,1.452V1.4Z" transform="translate(10.697 6.131)"/>
      </g>
    </g>
  </g>
</svg>
