<svg xmlns="http://www.w3.org/2000/svg" xmlns:xlink="http://www.w3.org/1999/xlink" viewBox="0 0 130.952 130.697">
  <defs>
    <style>
      .cls-1 {
        fill: url(#linear-gradient);
      }

      .cls-2 {
        clip-path: url(#clip-path);
      }
    </style>
    <linearGradient id="linear-gradient" x1="-0.32" y1="1.571" x2="1" gradientUnits="objectBoundingBox">
      <stop offset="0" stop-color="#00c6f5"/>
      <stop offset="1" stop-color="#0afa79"/>
    </linearGradient>
    <clipPath id="clip-path">
      <path id="Path_294" data-name="Path 294" class="cls-1" d="M0,30.547H130.952v-130.7H0Z" transform="translate(0 100.15)"/>
    </clipPath>
  </defs>
  <g id="explain-icon-4" transform="translate(0)">
    <g id="Group_232" data-name="Group 232" class="cls-2" transform="translate(0 0)">
      <g id="Group_226" data-name="Group 226" transform="translate(25.551 0.001)">
        <path id="Path_288" data-name="Path 288" class="cls-1" d="M9.361,0A40.052,40.052,0,1,0,49.413,40.052,40.1,40.1,0,0,0,9.361,0M45.09,37.945H31.657c-.039-1.175-.1-2.339-.2-3.464l-4.2.4c.093,1,.15,2.027.189,3.068H11.469V25.616a39.868,39.868,0,0,0,12.986-2.84,41.608,41.608,0,0,1,1.535,4.71l4.085-1.045a46.262,46.262,0,0,0-1.8-5.484,40.129,40.129,0,0,0,7.389-5.16A35.654,35.654,0,0,1,45.09,37.945M-2.77,56.259c-1,.317-1.984.69-2.957,1.09a46.819,46.819,0,0,1-2.948-15.19H7.254v12.33c-.629.034-1.257.031-1.879.093l.416,4.194c.488-.048.974-.035,1.46-.063V74.274A36.29,36.29,0,0,1-3.963,61.223c.817-.331,1.629-.681,2.468-.949ZM-6.021,13.872c-.651,1.041-1.246,2.117-1.806,3.213a35.838,35.838,0,0,1-6.084-4.231,35.736,35.736,0,0,1,15.246-7.7c-.771.69-1.561,1.428-2.371,2.281l3.059,2.9A33.715,33.715,0,0,1,7.254,5.831V21.4a35.612,35.612,0,0,1-11.282-2.49c.491-.957,1.013-1.894,1.583-2.8Zm17.49-8.031A36.35,36.35,0,0,1,22.747,18.914,35.681,35.681,0,0,1,11.469,21.4Zm5.961-.675a35.711,35.711,0,0,1,15.2,7.69,35.921,35.921,0,0,1-6.074,4.224A40.5,40.5,0,0,0,17.43,5.167M7.254,25.616V37.945H-8.7A46.741,46.741,0,0,1-5.738,22.773,39.787,39.787,0,0,0,7.254,25.616M1.228,74.924a35.717,35.717,0,0,1-15.123-7.657,36.262,36.262,0,0,1,6.041-4.193,40.476,40.476,0,0,0,9.082,11.85m10.24-.613V58.72a35.819,35.819,0,0,1,11.268,2.532A35.429,35.429,0,0,1,11.469,74.31M26.576,63.074a35.7,35.7,0,0,1,6.047,4.184,35.709,35.709,0,0,1-15.129,7.663,40.425,40.425,0,0,0,9.082-11.847M11.469,54.488V42.16H27.4a47.276,47.276,0,0,1-2.9,15.186,39.878,39.878,0,0,0-13.025-2.858M-16.943,15.8a40.1,40.1,0,0,0,7.386,5.159,50.815,50.815,0,0,0-3.364,16.989H-26.367A35.65,35.65,0,0,1-16.943,15.8M-26.367,42.16h13.43A51.106,51.106,0,0,0-9.6,59.179a40.553,40.553,0,0,0-7.368,5.1,35.638,35.638,0,0,1-9.4-22.117M35.665,64.307a40.164,40.164,0,0,0-7.341-5.131A51.021,51.021,0,0,0,31.657,42.16h13.43a35.625,35.625,0,0,1-9.422,22.147" transform="translate(30.691)"/>
      </g>
      <g id="Group_227" data-name="Group 227" transform="translate(96.969 47.408)">
        <path id="Path_289" data-name="Path 289" class="cls-1" d="M7.933,11.68,7.975-1.38,3.739-22.76,2.307-32.771A6.443,6.443,0,0,0-.47-37.2a6.43,6.43,0,0,0-5.147-.9,6.409,6.409,0,0,0-4.816,7.008,6.541,6.541,0,0,0-5.217,1.869,6.576,6.576,0,0,0-1.518,6.879,6.282,6.282,0,0,0-2.7,1.554,6.574,6.574,0,0,0-1.518,6.877,6.3,6.3,0,0,0-2.7,1.554,6.528,6.528,0,0,0-1.926,4.652,6.528,6.528,0,0,0,1.926,4.652L-17.5,3.523l-1.925,2.889V19.7h-2.108v25.3H7.975V19.7H6.33Zm-20.6-37.921A2.33,2.33,0,0,1-9.8-26.553l.907,6.349v1.086l-1.672-1.672L-12.668-22.9a2.341,2.341,0,0,1-.692-1.672,2.343,2.343,0,0,1,.692-1.672m-4.217,8.432a2.419,2.419,0,0,1,3.343,0l4,4A6.265,6.265,0,0,0-11-9.813v1.236l-3.779-3.779-2.108-2.109a2.341,2.341,0,0,1-.692-1.672,2.345,2.345,0,0,1,.692-1.672M-21.1-6.034a2.345,2.345,0,0,1-.692-1.67A2.346,2.346,0,0,1-21.1-9.376a2.363,2.363,0,0,1,3.343,0l5.27,5.27.043.042L-15.12-.053Zm5.888,13.724L-6.781-4.959V-9.813a2.109,2.109,0,0,1,2.108-2.108A2.109,2.109,0,0,1-2.565-9.813V4.942H1.651V-9.813a6.332,6.332,0,0,0-6.324-6.324v-4.215l-1.576-11.2A2.213,2.213,0,0,1-4.6-34.011a2.211,2.211,0,0,1,1.775.309,2.184,2.184,0,0,1,.954,1.527L-.417-22.048,3.759-1.173V11.06L2.03,19.7H-15.213ZM3.759,40.779h-21.08V23.915H3.759Z" transform="translate(26.008 38.294)"/>
      </g>
      <g id="Group_228" data-name="Group 228" transform="translate(-0.001 47.41)">
        <path id="Path_290" data-name="Path 290" class="cls-1" d="M6.864,5.689A6.574,6.574,0,0,0,5.336-1.152,6.511,6.511,0,0,0,2.648-2.743,6.574,6.574,0,0,0,1.12-9.583,6.547,6.547,0,0,0-4.1-11.45a6.4,6.4,0,0,0-4.814-7.008,6.416,6.416,0,0,0-5.148.9,6.434,6.434,0,0,0-2.776,4.427l-1.411,9.895-4.215,21.081L-22.5,30.907l1.655,8.432H-22.5v25.3H7.008v-25.3H4.9V26.053L2.975,23.165l6.577-6.577a6.523,6.523,0,0,0-2.688-10.9M2.356,5.175.248,7.283l-3.781,3.778V9.827A6.264,6.264,0,0,0-4.992,5.834l4-4a2.363,2.363,0,0,1,3.343,0,2.366,2.366,0,0,1,0,3.343M-1.861-6.6a2.341,2.341,0,0,1,.692,1.672,2.345,2.345,0,0,1-.692,1.672L-3.969-1.149-5.64.523V-.563l.907-6.352A2.334,2.334,0,0,1-1.861-6.6M2.791,60.419h-21.08V43.554H2.791Zm-19.351-21.08L-18.288,30.7V18.465l4.2-20.989,1.43-10.011a2.183,2.183,0,0,1,.955-1.527,2.2,2.2,0,0,1,1.774-.309,2.213,2.213,0,0,1,1.655,2.461l-1.557,10.9L-9.85,3.5h-.007a6.332,6.332,0,0,0-6.324,6.324V24.583h4.217V9.827A2.108,2.108,0,0,1-9.857,7.72,2.109,2.109,0,0,1-7.748,9.827v4.855L.684,27.33V39.339ZM6.571,13.607.589,19.589l-2.675-4.013.043-.042,5.27-5.271a2.365,2.365,0,0,1,3.343,0,2.365,2.365,0,0,1,0,3.343" transform="translate(22.505 18.652)"/>
      </g>
      <g id="Group_229" data-name="Group 229" transform="translate(48.254 5.869)">
        <path id="Path_291" data-name="Path 291" class="cls-1" d="M1.38,2.759a5.909,5.909,0,0,1-5.9-5.9,5.909,5.909,0,0,1,5.9-5.9,5.911,5.911,0,0,1,5.905,5.9,5.911,5.911,0,0,1-5.905,5.9" transform="translate(4.523 9.046)"/>
      </g>
      <g id="Group_230" data-name="Group 230" transform="translate(79.27 24.852)">
        <path id="Path_292" data-name="Path 292" class="cls-1" d="M1.38,2.759a5.909,5.909,0,0,1-5.9-5.9,5.909,5.909,0,0,1,5.9-5.9,5.909,5.909,0,0,1,5.9,5.9,5.909,5.909,0,0,1-5.9,5.9" transform="translate(4.523 9.046)"/>
      </g>
      <g id="Group_231" data-name="Group 231" transform="translate(52.002 51.439)">
        <path id="Path_293" data-name="Path 293" class="cls-1" d="M1.38,2.759a5.909,5.909,0,0,1-5.9-5.9,5.91,5.91,0,0,1,5.9-5.9,5.911,5.911,0,0,1,5.9,5.9,5.91,5.91,0,0,1-5.9,5.9" transform="translate(4.523 9.047)"/>
      </g>
    </g>
  </g>
</svg>
