<svg xmlns="http://www.w3.org/2000/svg" xmlns:xlink="http://www.w3.org/1999/xlink" viewBox="0 0 220 220">
  <defs>
    <style>
      .cls-1 {
        fill: url(#linear-gradient);
      }

      .cls-2 {
        opacity: 0.502;
        fill: url(#linear-gradient-2);
      }

      .cls-3 {
        clip-path: url(#clip-path);
      }
    </style>
    <linearGradient id="linear-gradient" x1="0.5" y1="-0.218" x2="1.755" y2="1.985" gradientUnits="objectBoundingBox">
      <stop offset="0" stop-color="#39f0cf"/>
      <stop offset="1" stop-color="#0063ae"/>
    </linearGradient>
    <linearGradient id="linear-gradient-2" x1="1.265" y1="1.105" x2="0.084" y2="-0.056" gradientUnits="objectBoundingBox">
      <stop offset="0" stop-color="#1fb6fd"/>
      <stop offset="0.36" stop-color="#0d5ca0"/>
      <stop offset="1" stop-color="#0c2660"/>
    </linearGradient>
    <clipPath id="clip-path">
      <path id="Path_287" data-name="Path 287" class="cls-1" d="M0,1.052H122.407V-82.589H0Z" transform="translate(0 82.589)"/>
    </clipPath>
  </defs>
  <g id="explain-icon-3" transform="translate(44.594 57.389)">
    <circle id="Ellipse_451" data-name="Ellipse 451" class="cls-2" cx="110" cy="110" r="110" transform="translate(-44.594 -57.389)"/>
    <g id="Group_219" data-name="Group 219" transform="translate(0 21.871)">
      <path id="Path_269" data-name="Path 269" class="cls-1" d="M0,.329,33.639,26.492v-11.7H59.672V9.007H27.853v5.658L9.425.329,27.853-14.007v5.659H53.889v-5.786H33.639v-11.7Z" transform="translate(0 25.833)"/>
    </g>
    <path id="Path_270" data-name="Path 270" class="cls-1" d="M70.494-64.838H58.922v-5.786H70.494Z" transform="translate(0.751 104.194)"/>
    <path id="Path_271" data-name="Path 271" class="cls-1" d="M37.215-22.615h4.438v4.438H37.215Z" transform="translate(0.474 104.806)"/>
    <path id="Path_272" data-name="Path 272" class="cls-1" d="M37.215-13.852h4.438v4.438H37.215Z" transform="translate(0.474 104.918)"/>
    <path id="Path_273" data-name="Path 273" class="cls-1" d="M41.6-18.232h4.438V-13.8H41.6Z" transform="translate(0.53 104.862)"/>
    <path id="Path_274" data-name="Path 274" class="cls-1" d="M32.835-18.232h4.437V-13.8H32.835Z" transform="translate(0.418 104.862)"/>
    <path id="Path_275" data-name="Path 275" class="cls-1" d="M87.7-78.151H92.14v-4.438H87.7Z" transform="translate(1.117 104.042)"/>
    <path id="Path_276" data-name="Path 276" class="cls-1" d="M87.7-73.827H92.14v4.438H87.7Z" transform="translate(1.117 104.153)"/>
    <path id="Path_277" data-name="Path 277" class="cls-1" d="M92.084-78.207h4.438v4.437H92.084Z" transform="translate(1.173 104.098)"/>
    <path id="Path_278" data-name="Path 278" class="cls-1" d="M83.322-78.207h4.437v4.437H83.322Z" transform="translate(1.062 104.098)"/>
    <path id="Path_279" data-name="Path 279" class="cls-1" d="M112.1-13.145h4.438v4.438H112.1Z" transform="translate(-64.13 13.145)"/>
    <path id="Path_280" data-name="Path 280" class="cls-1" d="M112.1.056h4.438V-4.382H112.1Z" transform="translate(-64.13 13.257)"/>
    <path id="Path_281" data-name="Path 281" class="cls-1" d="M116.484-4.326h4.438V-8.762h-4.438Z" transform="translate(-64.074 13.201)"/>
    <path id="Path_282" data-name="Path 282" class="cls-1" d="M107.722-8.763h4.437v4.437h-4.437Z" transform="translate(-64.186 13.201)"/>
    <g id="Group_224" data-name="Group 224" class="cls-3" transform="translate(0 21.453)">
      <g id="Group_220" data-name="Group 220" transform="translate(53.856 16.597)">
        <path id="Path_283" data-name="Path 283" class="cls-1" d="M6.857,1.247A25.373,25.373,0,0,1,22.881,6.965L26.447,2.61A30.952,30.952,0,0,0-24.1,26.576a31.014,31.014,0,0,0,6.992,19.59l4.356-3.566A25.325,25.325,0,0,1,6.857,1.247" transform="translate(24.1 4.382)"/>
      </g>
      <g id="Group_221" data-name="Group 221" transform="translate(65.223 27.965)">
        <path id="Path_284" data-name="Path 284" class="cls-1" d="M11.2,4.339A31,31,0,0,0,4.2-15.251L-.152-11.685A25.373,25.373,0,0,1,5.567,4.339,25.357,25.357,0,0,1-19.762,29.665a25.382,25.382,0,0,1-16.024-5.717L-39.352,28.3a31.016,31.016,0,0,0,19.59,6.99A30.993,30.993,0,0,0,11.2,4.339" transform="translate(39.352 15.251)"/>
      </g>
      <g id="Group_222" data-name="Group 222" transform="translate(66.345 32.912)">
        <path id="Path_285" data-name="Path 285" class="cls-1" d="M3.274,3.079V2.847c2.853-.461,3.4-2.248,3.4-4.985,0-4.726-2.536-5.532-6.83-5.532H-.85v-3.151H-5.467V-7.67h-6.042V13.943h6.042v2.6H-.85v-2.6H-.04c4.582,0,7.061-.721,7.061-6.023,0-2.709-.548-4.64-3.747-4.841m-9.02-6.023H-.9C.623-2.944.911-2.4.911-1.1.911.629.421.975-1.6.975H-5.745ZM-1.394,9.217H-5.745V4.981h4.466c1.874,0,2.537.259,2.537,2.046,0,1.757-.778,2.19-2.651,2.19" transform="translate(11.509 10.821)"/>
      </g>
      <g id="Group_223" data-name="Group 223" transform="translate(87.138 32.911)">
        <path id="Path_286" data-name="Path 286" class="cls-1" d="M4.213,2.415V1.579c0-4.975-2.524-6.753-7.2-7.062v-3H-7.606v3.064c-4.545.416-7.2,2.152-7.2,8.1V8.266c0,6.491,2.9,7.918,7.2,8.22v2.388h4.618V16.525c5.444-.279,7.2-2.13,7.2-7.684V8.207H-1.724v.635c0,2.536-1.152,2.709-3.544,2.709-3.458,0-3.6-1.354-3.6-4.582V3.6c0-3.084.317-4.121,3.6-4.121,1.959,0,3.544.374,3.544,2.1v.836Z" transform="translate(14.807 8.488)"/>
      </g>
    </g>
  </g>
</svg>
