<svg xmlns="http://www.w3.org/2000/svg" xmlns:xlink="http://www.w3.org/1999/xlink" viewBox="0 0 220 220">
  <defs>
    <style>
      .cls-1 {
        fill: url(#linear-gradient);
      }

      .cls-2 {
        opacity: 0.502;
        fill: url(#linear-gradient-2);
      }

      .cls-3 {
        clip-path: url(#clip-path);
      }
    </style>
    <linearGradient id="linear-gradient" x1="0.5" x2="0.101" y2="1.938" gradientUnits="objectBoundingBox">
      <stop offset="0" stop-color="#39f0cf"/>
      <stop offset="1" stop-color="#0063ae"/>
    </linearGradient>
    <linearGradient id="linear-gradient-2" x1="1.265" y1="1.105" x2="0.084" y2="-0.056" gradientUnits="objectBoundingBox">
      <stop offset="0" stop-color="#1fb6fd"/>
      <stop offset="0.36" stop-color="#0d5ca0"/>
      <stop offset="1" stop-color="#0c2660"/>
    </linearGradient>
    <clipPath id="clip-path">
      <path id="Path_294" data-name="Path 294" class="cls-1" d="M0,8.52H108.882V-100.15H0Z" transform="translate(0 100.15)"/>
    </clipPath>
  </defs>
  <g id="explain-icon-4" transform="translate(56 54.768)">
    <circle id="Ellipse_452" data-name="Ellipse 452" class="cls-2" cx="110" cy="110" r="110" transform="translate(-56 -54.768)"/>
    <g id="Group_232" data-name="Group 232" class="cls-3" transform="translate(0 0)">
      <g id="Group_226" data-name="Group 226" transform="translate(21.245 0)">
        <path id="Path_288" data-name="Path 288" class="cls-1" d="M2.611,0a33.3,33.3,0,1,0,0,66.6,33.3,33.3,0,1,0,0-66.6M32.318,31.55H21.149c-.033-.977-.084-1.944-.169-2.88L17.488,29c.077.829.125,1.685.157,2.551H4.363V21.3a33.149,33.149,0,0,0,10.8-2.361,34.6,34.6,0,0,1,1.276,3.916l3.4-.869a38.465,38.465,0,0,0-1.493-4.559,33.366,33.366,0,0,0,6.144-4.29A29.645,29.645,0,0,1,32.318,31.55M-7.476,46.777c-.832.264-1.649.574-2.459.906a38.928,38.928,0,0,1-2.451-12.63H.859V45.305c-.523.028-1.045.026-1.563.077l.346,3.487c.406-.04.809-.029,1.214-.052V61.756A30.174,30.174,0,0,1-8.468,50.905c.679-.276,1.354-.566,2.052-.789Zm-2.7-35.243c-.541.866-1.036,1.76-1.5,2.671a29.8,29.8,0,0,1-5.059-3.518,29.713,29.713,0,0,1,12.677-6.4c-.641.574-1.3,1.187-1.972,1.9L-3.49,8.6A28.033,28.033,0,0,1,.859,4.848V17.794a29.61,29.61,0,0,1-9.38-2.07c.408-.8.842-1.574,1.316-2.327ZM4.363,4.857a30.223,30.223,0,0,1,9.377,10.869,29.667,29.667,0,0,1-9.377,2.068ZM9.32,4.3A29.692,29.692,0,0,1,21.961,10.69a29.867,29.867,0,0,1-5.05,3.512A33.677,33.677,0,0,0,9.32,4.3M.859,21.3V31.55H-12.41A38.863,38.863,0,0,1-9.943,18.935,33.082,33.082,0,0,0,.859,21.3m-5.01,41A29.7,29.7,0,0,1-16.725,55.93,30.15,30.15,0,0,1-11.7,52.444,33.654,33.654,0,0,0-4.151,62.3m8.515-.51V48.824a29.782,29.782,0,0,1,9.369,2.105A29.458,29.458,0,0,1,4.363,61.786m12.561-9.342a29.687,29.687,0,0,1,5.028,3.479A29.691,29.691,0,0,1,9.373,62.294a33.612,33.612,0,0,0,7.551-9.85M4.363,45.305V35.054H17.609a39.309,39.309,0,0,1-2.415,12.627,33.157,33.157,0,0,0-10.83-2.376M-19.26,13.135a33.344,33.344,0,0,0,6.142,4.289,42.25,42.25,0,0,0-2.8,14.125H-27.1A29.641,29.641,0,0,1-19.26,13.135M-27.1,35.054H-15.93A42.493,42.493,0,0,0-13.156,49.2a33.719,33.719,0,0,0-6.126,4.239A29.632,29.632,0,0,1-27.1,35.054M24.482,53.469a33.4,33.4,0,0,0-6.1-4.267,42.422,42.422,0,0,0,2.771-14.148H32.316a29.621,29.621,0,0,1-7.834,18.415" transform="translate(30.691)"/>
      </g>
      <g id="Group_227" data-name="Group 227" transform="translate(80.626 39.418)">
        <path id="Path_289" data-name="Path 289" class="cls-1" d="M2.213,3.258,2.247-7.6-1.275-25.378-2.465-33.7a5.357,5.357,0,0,0-2.309-3.681,5.347,5.347,0,0,0-4.28-.751,5.329,5.329,0,0,0-4,5.827A5.438,5.438,0,0,0-17.4-30.753a5.468,5.468,0,0,0-1.262,5.719A5.223,5.223,0,0,0-20.9-23.741a5.466,5.466,0,0,0-1.262,5.718,5.238,5.238,0,0,0-2.244,1.292,5.428,5.428,0,0,0-1.6,3.868,5.428,5.428,0,0,0,1.6,3.868l5.469,5.469-1.6,2.4V9.925h-1.752V30.957H2.247V9.925H.88Zm-17.129-31.53a1.938,1.938,0,0,1,2.388-.259l.754,5.279v.9l-1.39-1.39-1.752-1.752a1.946,1.946,0,0,1-.575-1.39,1.948,1.948,0,0,1,.575-1.39m-3.506,7.011a2.012,2.012,0,0,1,2.78,0l3.328,3.329a5.209,5.209,0,0,0-1.213,3.319v1.028l-3.142-3.142-1.752-1.753A1.946,1.946,0,0,1-19-19.872a1.95,1.95,0,0,1,.575-1.39m-3.506,9.791A1.95,1.95,0,0,1-22.5-12.86a1.951,1.951,0,0,1,.575-1.39,1.965,1.965,0,0,1,2.78,0l4.382,4.382.036.035L-16.955-6.5Zm4.9,11.411,7.011-10.517v-4.036a1.754,1.754,0,0,1,1.752-1.752,1.754,1.754,0,0,1,1.753,1.752V-2.345h3.5V-14.613a5.265,5.265,0,0,0-5.258-5.258v-3.5L-9.58-32.685a1.84,1.84,0,0,1,1.375-2.048,1.838,1.838,0,0,1,1.476.257,1.816,1.816,0,0,1,.793,1.27l1.207,8.42L-1.258-7.429V2.742L-2.7,9.925H-17.032ZM-1.258,27.453H-18.785V13.43H-1.258Z" transform="translate(26.008 38.294)"/>
      </g>
      <g id="Group_228" data-name="Group 228" transform="translate(0 39.419)">
        <path id="Path_290" data-name="Path 290" class="cls-1" d="M1.915,1.587A5.466,5.466,0,0,0,.644-4.1,5.413,5.413,0,0,0-1.591-5.424a5.466,5.466,0,0,0-1.271-5.688A5.444,5.444,0,0,0-7.2-12.663a5.325,5.325,0,0,0-4-5.827,5.335,5.335,0,0,0-4.281.75,5.35,5.35,0,0,0-2.308,3.681l-1.173,8.227-3.5,17.528L-22.5,22.555l1.376,7.011H-22.5V50.6H2.034V29.565H.282V18.518l-1.6-2.4L4.15,10.648a5.428,5.428,0,0,0,1.6-3.868,5.434,5.434,0,0,0-1.6-3.869A5.453,5.453,0,0,0,1.915,1.587m-3.749-.428L-3.587,2.912-6.73,6.053V5.028a5.208,5.208,0,0,0-1.213-3.32l3.329-3.328a1.965,1.965,0,0,1,2.78,0,1.951,1.951,0,0,1,.575,1.39,1.952,1.952,0,0,1-.575,1.39M-5.34-8.631a1.946,1.946,0,0,1,.575,1.39,1.95,1.95,0,0,1-.575,1.39L-7.093-4.1l-1.39,1.39v-.9l.754-5.281a1.941,1.941,0,0,1,2.388.262m3.868,55.724H-19V33.07H-1.472ZM-17.561,29.565-19,22.381V12.21l3.488-17.451,1.189-8.324a1.815,1.815,0,0,1,.794-1.27,1.825,1.825,0,0,1,1.475-.257,1.84,1.84,0,0,1,1.376,2.046l-1.294,9.06-.012,3.754h-.005a5.265,5.265,0,0,0-5.258,5.258V17.3h3.506V5.028a1.753,1.753,0,0,1,1.752-1.752,1.753,1.753,0,0,1,1.753,1.752V9.064l7.011,10.517v9.985ZM1.67,8.17-3.3,13.144-5.528,9.807l.036-.035L-1.111,5.39a1.967,1.967,0,0,1,2.78,0,1.966,1.966,0,0,1,0,2.78" transform="translate(22.505 18.652)"/>
      </g>
      <g id="Group_229" data-name="Group 229" transform="translate(40.122 4.88)">
        <path id="Path_291" data-name="Path 291" class="cls-1" d="M.385.77A4.913,4.913,0,0,1-4.523-4.138,4.913,4.913,0,0,1,.385-9.046a4.915,4.915,0,0,1,4.91,4.908A4.915,4.915,0,0,1,.385.77" transform="translate(4.523 9.046)"/>
      </g>
      <g id="Group_230" data-name="Group 230" transform="translate(65.91 20.663)">
        <path id="Path_292" data-name="Path 292" class="cls-1" d="M.385.77A4.913,4.913,0,0,1-4.523-4.138,4.913,4.913,0,0,1,.385-9.046,4.913,4.913,0,0,1,5.293-4.138,4.913,4.913,0,0,1,.385.77" transform="translate(4.523 9.046)"/>
      </g>
      <g id="Group_231" data-name="Group 231" transform="translate(43.238 42.769)">
        <path id="Path_293" data-name="Path 293" class="cls-1" d="M.385.77A4.913,4.913,0,0,1-4.523-4.138,4.914,4.914,0,0,1,.385-9.047,4.915,4.915,0,0,1,5.294-4.138,4.914,4.914,0,0,1,.385.77" transform="translate(4.523 9.047)"/>
      </g>
    </g>
  </g>
</svg>
