<svg xmlns="http://www.w3.org/2000/svg" xmlns:xlink="http://www.w3.org/1999/xlink" viewBox="0 0 119.507 139.522">
  <defs>
    <style>
      .cls-1 {
        fill: url(#linear-gradient);
      }

      .cls-2 {
        clip-path: url(#clip-path);
      }
    </style>
    <linearGradient id="linear-gradient" y1="-3.028" x2="2.798" y2="2.089" gradientUnits="objectBoundingBox">
      <stop offset="0" stop-color="#00c6f5"/>
      <stop offset="1" stop-color="#0afa79"/>
    </linearGradient>
    <clipPath id="clip-path">
      <path id="Path_244" data-name="Path 244" class="cls-1" d="M0,35.049H119.507V-104.474H0Z" transform="translate(0 104.474)"/>
    </clipPath>
  </defs>
  <g id="explain-icon-1" transform="translate(0)">
    <g id="Group_200" data-name="Group 200" class="cls-2">
      <g id="Group_196" data-name="Group 196" transform="translate(35.924 95.592)">
        <path id="Path_240" data-name="Path 240" class="cls-1" d="M5.518,1a18.01,18.01,0,0,1,11.37,4.057l2.529-3.09a21.962,21.962,0,0,0-30.9,30.9l3.09-2.529A17.969,17.969,0,0,1,5.518,1" transform="translate(16.447 2.991)"/>
      </g>
      <g id="Group_197" data-name="Group 197" transform="translate(43.988 103.659)">
        <path id="Path_241" data-name="Path 241" class="cls-1" d="M9.01,3.492a22.008,22.008,0,0,0-4.96-13.9L.958-7.879A18,18,0,0,1,5.015,3.492a17.992,17.992,0,0,1-17.972,17.97A18.009,18.009,0,0,1-24.325,17.4L-26.856,20.5a22.014,22.014,0,0,0,13.9,4.96A21.991,21.991,0,0,0,9.01,3.492" transform="translate(26.856 10.408)"/>
      </g>
      <g id="Group_198" data-name="Group 198" transform="translate(44.786 107.168)">
        <path id="Path_242" data-name="Path 242" class="cls-1" d="M2.635,2.477V2.315c2.025-.327,2.413-1.6,2.413-3.538,0-3.353-1.8-3.926-4.846-3.926H-.291V-7.385H-3.567v2.236H-7.854V10.186h4.287v1.843H-.291V10.186H.283c3.252,0,5.009-.511,5.009-4.274,0-1.922-.387-3.292-2.658-3.435M-3.765-1.8H-.33C.753-1.8.959-1.407.959-.487.959.739.61.984-.821.984H-3.765ZM-.677,6.832H-3.765v-3H-.6c1.329,0,1.8.183,1.8,1.452,0,1.246-.552,1.553-1.88,1.553" transform="translate(7.854 7.385)"/>
      </g>
      <g id="Group_199" data-name="Group 199" transform="translate(59.539 107.169)">
        <path id="Path_243" data-name="Path 243" class="cls-1" d="M3.39,1.943V1.35c0-3.53-1.791-4.792-5.11-5.011V-5.792H-5v2.173c-3.225.3-5.11,1.526-5.11,5.747V6.094c0,4.606,2.059,5.618,5.11,5.833V13.62H-1.72V11.955c3.862-.2,5.11-1.51,5.11-5.451V6.052H-.822V6.5c0,1.8-.817,1.922-2.515,1.922-2.455,0-2.556-.962-2.556-3.252V2.782c0-2.188.224-2.925,2.556-2.925,1.39,0,2.515.267,2.515,1.493v.593Z" transform="translate(10.105 5.792)"/>
      </g>
    </g>
    <path id="Path_245" data-name="Path 245" class="cls-1" d="M0-81.555H119.182v-22.919H0Zm0-22.919,4.585,4.585H114.6v13.751H4.585Z" transform="translate(0 104.474)"/>
    <path id="Path_246" data-name="Path 246" class="cls-1" d="M6.865-97.609h4.583v4.583H6.865Z" transform="translate(2.303 106.777)"/>
    <path id="Path_247" data-name="Path 247" class="cls-1" d="M13.73-97.609h4.583v4.583H13.73Z" transform="translate(4.606 106.777)"/>
    <path id="Path_248" data-name="Path 248" class="cls-1" d="M20.595-97.609h4.583v4.583H20.595Z" transform="translate(6.909 106.777)"/>
    <g id="Group_201" data-name="Group 201" transform="translate(0 27.504)">
      <path id="Path_249" data-name="Path 249" class="cls-1" d="M0,0V91.678H27.5V87.094H4.585V0Z"/>
    </g>
    <g id="Group_202" data-name="Group 202" transform="translate(92.003 27.504)">
      <path id="Path_250" data-name="Path 250" class="cls-1" d="M5.757,0V87.094H-17.162v4.583h27.5V0Z" transform="translate(17.162)"/>
    </g>
    <g id="Group_206" data-name="Group 206" class="cls-2">
      <g id="Group_203" data-name="Group 203" transform="translate(61.789 29.221)">
        <path id="Path_251" data-name="Path 251" class="cls-1" d="M5.293,3.319A43.733,43.733,0,0,1,14.438,17L3.162,5.723a1.2,1.2,0,0,0-1.7,1.7L2.6,8.561.339,10.822-2.21,8.271.9,5.161a1.2,1.2,0,0,0,.353-.851A1.2,1.2,0,0,0,.9,3.461L-8.388-5.828A43.8,43.8,0,0,1,5.293,3.319M8.682-1.092,9.7-.072a.441.441,0,0,1,0,.624l-1.9,1.9c-.264-.279-.533-.557-.809-.833s-.556-.548-.833-.811l1.9-1.9a.439.439,0,0,1,.622,0M-14.574,21.042a1.2,1.2,0,0,0,.849-.353L-3.457,10.422l1.645,1.645L-12.079,22.335a1.2,1.2,0,0,0,0,1.7,1.2,1.2,0,0,0,.851.351,1.191,1.191,0,0,0,.848-.351L-.015,13.669a1.215,1.215,0,0,0,.354.053,1.2,1.2,0,0,0,.851-.353L4.3,10.261,16.452,22.412a1.206,1.206,0,0,0,.849.353h.013a1.2,1.2,0,0,0,1.193-1.2,1.228,1.228,0,0,0-.056-.367A44.709,44.709,0,0,0,9.409,4.246l2-1.994a2.849,2.849,0,0,0,0-4.022L10.382-2.792a2.846,2.846,0,0,0-4.022,0L4.366-.8A44.506,44.506,0,0,0-12.68-9.863,1.207,1.207,0,0,0-14-9.274a1.2,1.2,0,0,0,.2,1.434L-1.649,4.31-4.761,7.422a1.2,1.2,0,0,0-.3,1.2L-15.425,18.99a1.2,1.2,0,0,0,0,1.7,1.2,1.2,0,0,0,.851.353" transform="translate(15.776 9.894)"/>
      </g>
      <g id="Group_204" data-name="Group 204" transform="translate(23.114 67.898)">
        <path id="Path_252" data-name="Path 252" class="cls-1" d="M8.1.929l-27.682,27.68-1.644-1.644L6.45-.717a1.2,1.2,0,0,0,0-1.7,1.2,1.2,0,0,0-1.7,0L-23.78,26.114a1.2,1.2,0,0,0,0,1.7l3.345,3.344a1.2,1.2,0,0,0,.848.353,1.206,1.206,0,0,0,.852-.353L9.8,2.629A1.2,1.2,0,0,0,8.1.929" transform="translate(24.131 2.768)"/>
      </g>
      <g id="Group_205" data-name="Group 205" transform="translate(21.927 28.035)">
        <path id="Path_253" data-name="Path 253" class="cls-1" d="M7.337,8.334.3,13.353-19.224-6.165q.415-.853.879-1.684L-3.013,7.485a1.2,1.2,0,0,0,.851.351,1.2,1.2,0,0,0,.849-.351,1.2,1.2,0,0,0,0-1.7L-17.061-9.965a35.255,35.255,0,0,1,4.53-5.538,35.343,35.343,0,0,1,5.537-4.531L8.755-4.284a1.2,1.2,0,0,0,.849.353,1.2,1.2,0,0,0,.851-.353,1.2,1.2,0,0,0,0-1.7L-4.878-21.316q.831-.463,1.687-.879L16.324-2.677,11.306,4.366a1.2,1.2,0,0,0,.13,1.548l3.11,3.11L12,11.575,8.885,8.464a1.2,1.2,0,0,0-1.548-.13M44.22,47.585,42.8,46.167l2.576-2.579a1.2,1.2,0,1,0-1.7-1.7l-.231.234-29.3-29.3,1.645-1.645,30.15,30.15a1.2,1.2,0,0,0,1.7,0l1.494-1.494,1.418,1.418ZM53.105,40.4,49.987,37.28a1.2,1.2,0,0,0-1.7,0l-1.494,1.494-26.8-26.8L17.393,9.378a1.2,1.2,0,0,0-.3-1.2s-3.243-3.241-3.243-3.241l5.019-7.042a1.2,1.2,0,0,0-.13-1.548L-2.09-24.491a1.2,1.2,0,0,0-1.346-.244,36.579,36.579,0,0,0-10.8,7.533A36.554,36.554,0,0,0-21.764-6.4a1.2,1.2,0,0,0,.246,1.343L-.686,15.773a1.2,1.2,0,0,0,.851.353,1.208,1.208,0,0,0,.7-.223L7.9,10.883l3.241,3.241a1.2,1.2,0,0,0,1.2.3l29.4,29.4-1.494,1.494a1.2,1.2,0,0,0,0,1.7l3.117,3.118a1.2,1.2,0,0,0,1.7,0L53.105,42.1a1.2,1.2,0,0,0,0-1.7" transform="translate(21.871 24.842)"/>
      </g>
    </g>
  </g>
</svg>
