<svg xmlns="http://www.w3.org/2000/svg" xmlns:xlink="http://www.w3.org/1999/xlink" viewBox="0 0 220 220">
  <defs>
    <style>
      .cls-1 {
        fill: url(#linear-gradient);
      }

      .cls-2 {
        opacity: 0.502;
        fill: url(#linear-gradient-3);
      }

      .cls-3 {
        clip-path: url(#clip-path);
      }
    </style>
    <linearGradient id="linear-gradient" x1="-1.295" y1="0.5" x2="2.896" y2="-2.791" gradientUnits="objectBoundingBox">
      <stop offset="0" stop-color="#39f0cf"/>
      <stop offset="1" stop-color="#0063ae"/>
    </linearGradient>
    <linearGradient id="linear-gradient-3" x1="1.265" y1="1.105" x2="0.084" y2="-0.056" gradientUnits="objectBoundingBox">
      <stop offset="0" stop-color="#1fb6fd"/>
      <stop offset="0.36" stop-color="#0d5ca0"/>
      <stop offset="1" stop-color="#0c2660"/>
    </linearGradient>
    <clipPath id="clip-path">
      <path id="Path_244" data-name="Path 244" class="cls-1" d="M0,13.2H100.792V-104.474H0Z" transform="translate(0 104.474)"/>
    </clipPath>
  </defs>
  <g id="explain-icon-1" transform="translate(58.715 53.26)">
    <circle id="Ellipse_449" data-name="Ellipse 449" class="cls-2" cx="110" cy="110" r="110" transform="translate(-58.715 -53.26)"/>
    <g id="Group_200" data-name="Group 200" class="cls-3">
      <g id="Group_196" data-name="Group 196" transform="translate(30.298 80.623)">
        <path id="Path_240" data-name="Path 240" class="cls-1" d="M2.078.378A15.189,15.189,0,0,1,11.668,3.8L13.8,1.193A18.554,18.554,0,0,0,2.078-2.991,18.523,18.523,0,0,0-12.263,27.258l2.606-2.133A15.155,15.155,0,0,1,2.078.378" transform="translate(16.447 2.991)"/>
      </g>
      <g id="Group_197" data-name="Group 197" transform="translate(37.1 87.426)">
        <path id="Path_241" data-name="Path 241" class="cls-1" d="M3.393,1.315A18.562,18.562,0,0,0-.79-10.408L-3.4-8.275A15.185,15.185,0,0,1,.024,1.315,15.174,15.174,0,0,1-15.133,16.471a15.189,15.189,0,0,1-9.589-3.422l-2.134,2.607A18.567,18.567,0,0,0-15.133,19.84,18.547,18.547,0,0,0,3.393,1.315" transform="translate(26.856 10.408)"/>
      </g>
      <g id="Group_198" data-name="Group 198" transform="translate(37.772 90.386)">
        <path id="Path_242" data-name="Path 242" class="cls-1" d="M.992.933V.8C2.7.52,3.028-.55,3.028-2.188,3.028-5.016,1.509-5.5-1.06-5.5h-.416V-7.385H-4.238V-5.5H-7.854V7.434h3.616V8.989h2.763V7.434h.484c2.743,0,4.225-.431,4.225-3.6,0-1.621-.327-2.776-2.241-2.9m-5.4-3.6h2.9c.913,0,1.087.328,1.087,1.1,0,1.034-.294,1.241-1.5,1.241H-4.405Zm2.6,7.277h-2.6V2.072h2.673c1.121,0,1.517.154,1.517,1.224,0,1.051-.465,1.31-1.586,1.31" transform="translate(7.854 7.385)"/>
      </g>
      <g id="Group_199" data-name="Group 199" transform="translate(50.215 90.386)">
        <path id="Path_243" data-name="Path 243" class="cls-1" d="M1.277.732v-.5c0-2.977-1.51-4.041-4.309-4.226v-1.8H-5.8v1.833C-8.516-3.711-10.1-2.672-10.1.887V4.232c0,3.885,1.737,4.739,4.309,4.92v1.428h2.763v-1.4C.225,9.009,1.277,7.9,1.277,4.578V4.2H-2.276v.381C-2.276,6.1-2.965,6.2-4.4,6.2c-2.07,0-2.156-.811-2.156-2.743V1.439c0-1.845.189-2.467,2.156-2.467,1.173,0,2.121.225,2.121,1.259v.5Z" transform="translate(10.105 5.792)"/>
      </g>
    </g>
    <path id="Path_245" data-name="Path 245" class="cls-1" d="M0-85.144H100.518v-19.33H0Zm0-19.33,3.867,3.867H96.653v11.6H3.867Z" transform="translate(0 104.474)"/>
    <path id="Path_246" data-name="Path 246" class="cls-1" d="M6.865-97.609h3.866v3.866H6.865Z" transform="translate(0.867 105.341)"/>
    <path id="Path_247" data-name="Path 247" class="cls-1" d="M13.73-97.609H17.6v3.866H13.73Z" transform="translate(1.735 105.341)"/>
    <path id="Path_248" data-name="Path 248" class="cls-1" d="M20.595-97.609h3.866v3.866H20.595Z" transform="translate(2.602 105.341)"/>
    <g id="Group_201" data-name="Group 201" transform="translate(0 23.197)">
      <path id="Path_249" data-name="Path 249" class="cls-1" d="M0,0V77.321H23.2V73.456H3.867V0Z"/>
    </g>
    <g id="Group_202" data-name="Group 202" transform="translate(77.595 23.197)">
      <path id="Path_250" data-name="Path 250" class="cls-1" d="M2.168,0V73.456h-19.33v3.866h23.2V0Z" transform="translate(17.162)"/>
    </g>
    <g id="Group_206" data-name="Group 206" class="cls-3">
      <g id="Group_203" data-name="Group 203" transform="translate(52.113 24.645)">
        <path id="Path_251" data-name="Path 251" class="cls-1" d="M1.993,1.25A36.885,36.885,0,0,1,9.706,12.787L.2,3.277a1.015,1.015,0,0,0-1.434,0,1.015,1.015,0,0,0,0,1.434l.96.96L-2.184,7.578l-2.15-2.151L-1.711,2.8a1.015,1.015,0,0,0,.3-.717,1.012,1.012,0,0,0-.3-.716L-9.545-6.464A36.939,36.939,0,0,1,1.993,1.25M4.852-2.47l.861.861a.372.372,0,0,1,0,.526L4.11.519c-.223-.235-.449-.47-.683-.7s-.469-.462-.7-.684l1.6-1.6a.37.37,0,0,1,.525,0M-14.762,16.2a1.01,1.01,0,0,0,.716-.3l8.659-8.659L-4,8.629l-8.659,8.659a1.013,1.013,0,0,0,0,1.434,1.013,1.013,0,0,0,.717.3,1,1,0,0,0,.715-.3l8.743-8.743a1.025,1.025,0,0,0,.3.045,1.01,1.01,0,0,0,.717-.3L1.156,7.1,11.4,17.353a1.017,1.017,0,0,0,.716.3h.011a1.016,1.016,0,0,0,1.006-1.015,1.036,1.036,0,0,0-.047-.31A37.707,37.707,0,0,0,5.465,2.032L7.147.35a2.4,2.4,0,0,0,0-3.393L6.286-3.9a2.4,2.4,0,0,0-3.393,0L1.212-2.223A37.536,37.536,0,0,0-13.165-9.868a1.018,1.018,0,0,0-1.115.5,1.015,1.015,0,0,0,.17,1.21L-3.862,2.086-6.486,4.71a1.013,1.013,0,0,0-.251,1.015l-8.743,8.742a1.015,1.015,0,0,0,0,1.434,1.012,1.012,0,0,0,.717.3" transform="translate(15.776 9.894)"/>
      </g>
      <g id="Group_204" data-name="Group 204" transform="translate(19.495 57.265)">
        <path id="Path_252" data-name="Path 252" class="cls-1" d="M3.049.35-20.3,23.7l-1.387-1.387L1.661-1.038a1.013,1.013,0,0,0,0-1.434,1.015,1.015,0,0,0-1.434,0L-23.835,21.591a1.015,1.015,0,0,0,0,1.434l2.821,2.82a1.011,1.011,0,0,0,.715.3,1.017,1.017,0,0,0,.719-.3L4.483,1.784A1.014,1.014,0,1,0,3.049.35" transform="translate(24.131 2.768)"/>
      </g>
      <g id="Group_205" data-name="Group 205" transform="translate(18.493 23.645)">
        <path id="Path_253" data-name="Path 253" class="cls-1" d="M2.763,3.139-3.176,7.371-19.639-9.09q.35-.72.741-1.42L-5.966,2.422a1.016,1.016,0,0,0,.717.3,1.013,1.013,0,0,0,.716-.3,1.015,1.015,0,0,0,0-1.434L-17.814-12.295a29.734,29.734,0,0,1,3.821-4.671,29.808,29.808,0,0,1,4.67-3.822L3.959-7.5a1.01,1.01,0,0,0,.716.3,1.011,1.011,0,0,0,.717-.3,1.013,1.013,0,0,0,0-1.434L-7.539-21.868q.7-.39,1.423-.741L10.342-6.148,6.111-.208A1.016,1.016,0,0,0,6.22,1.1L8.843,3.721,6.693,5.872,4.069,3.248a1.016,1.016,0,0,0-1.305-.109m31.107,33.1-1.2-1.2,2.173-2.175a1.014,1.014,0,0,0-1.434-1.434l-.195.2L8.508,6.923,9.9,5.535,35.324,30.964a1.013,1.013,0,0,0,1.434,0l1.26-1.26,1.2,1.2Zm7.494-6.061-2.63-2.63a1.013,1.013,0,0,0-1.434,0l-1.26,1.26L13.433,6.207,11.245,4.019A1.014,1.014,0,0,0,10.995,3S8.26.27,8.26.27l4.233-5.939a1.014,1.014,0,0,0-.109-1.305L-5.188-24.546a1.014,1.014,0,0,0-1.135-.206A30.851,30.851,0,0,0-15.428-18.4a30.829,30.829,0,0,0-6.353,9.106,1.012,1.012,0,0,0,.207,1.133L-4,9.412a1.016,1.016,0,0,0,.717.3A1.019,1.019,0,0,0-2.7,9.522l5.94-4.233L5.976,8.022a1.012,1.012,0,0,0,1.015.251l24.794,24.8-1.26,1.26a1.015,1.015,0,0,0,0,1.434l2.629,2.63a1.014,1.014,0,0,0,1.435,0l6.776-6.777a1.013,1.013,0,0,0,0-1.434" transform="translate(21.871 24.842)"/>
      </g>
    </g>
  </g>
</svg>
