<?xml version="1.0" encoding="utf-8"?>
<!-- Generator: Adobe Illustrator 21.1.0, SVG Export Plug-In . SVG Version: 6.00 Build 0)  -->
<svg version="1.1" id="Capa_1" xmlns="http://www.w3.org/2000/svg" xmlns:xlink="http://www.w3.org/1999/xlink" x="0px" y="0px"
	 viewBox="0 0 49.7 49.7" style="enable-background:new 0 0 49.7 49.7;" xml:space="preserve">
<style type="text/css">
	.st0{fill:#FFFFFF;}
	.st1{fill:url(#SVGID_1_);}
</style>
<rect x="15.5" y="3.9" class="st0" width="19" height="39.8"/>
<g>
	<g>
		
			<linearGradient id="SVGID_1_" gradientUnits="userSpaceOnUse" x1="24.8003" y1="52" x2="24.8003" y2="2.4" gradientTransform="matrix(1 0 0 -1 0 52)">
			<stop  offset="0" style="stop-color:#1FB6FD"/>
			<stop  offset="0.1279" style="stop-color:#1EAFF6"/>
			<stop  offset="0.3181" style="stop-color:#1A9BE2"/>
			<stop  offset="0.5459" style="stop-color:#137CC1"/>
			<stop  offset="0.7351" style="stop-color:#0D5CA0"/>
			<stop  offset="0.876" style="stop-color:#0C3D7C"/>
			<stop  offset="1" style="stop-color:#0C2660"/>
		</linearGradient>
		<path class="st1" d="M24.8,0C11.1,0,0,11.1,0,24.8s11.1,24.8,24.8,24.8s24.8-11.1,24.8-24.8C49.7,11.1,38.5,0,24.8,0z M31,25.7h-4
			c0,6.5,0,14.4,0,14.4h-6c0,0,0-7.9,0-14.4h-2.8v-5.1H21v-3.3c0-2.4,1.1-6,6-6h4.4v4.9c0,0-2.7,0-3.2,0S27,16.5,27,17.6v3h4.6
			L31,25.7z"/>
	</g>
</g>
</svg>
