<svg xmlns="http://www.w3.org/2000/svg" viewBox="0 0 60 58.531">
  <defs>
    <style>
      .cls-1 {
        fill: #fff;
      }
    </style>
  </defs>
  <path id="Git-icon" class="cls-1" d="M55.974,14.941A29.865,29.865,0,0,0,45.057,4.024,29.344,29.344,0,0,0,30,0,29.348,29.348,0,0,0,14.941,4.024,29.857,29.857,0,0,0,4.024,14.941,29.341,29.341,0,0,0,0,30,29.155,29.155,0,0,0,5.722,47.634a29.4,29.4,0,0,0,14.784,10.84,1.748,1.748,0,0,0,1.563-.274,1.527,1.527,0,0,0,.508-1.171q0-.117-.019-2.11t-.02-3.476l-.9.156a11.436,11.436,0,0,1-2.168.137,16.531,16.531,0,0,1-2.715-.274,6.071,6.071,0,0,1-2.617-1.171,4.96,4.96,0,0,1-1.718-2.4l-.391-.9A9.719,9.719,0,0,0,10.8,45a4.7,4.7,0,0,0-1.7-1.484l-.274-.2a2.875,2.875,0,0,1-.508-.469,2.15,2.15,0,0,1-.351-.547q-.117-.274.195-.45A2.537,2.537,0,0,1,9.3,41.678l.781.117a5.708,5.708,0,0,1,1.934.937,6.312,6.312,0,0,1,1.894,2.03A6.886,6.886,0,0,0,16.075,47.2a4.6,4.6,0,0,0,2.558.839,11.12,11.12,0,0,0,2.227-.194,7.76,7.76,0,0,0,1.758-.587,6.327,6.327,0,0,1,1.914-4.024,26.679,26.679,0,0,1-4-.7,15.939,15.939,0,0,1-3.671-1.524A10.515,10.515,0,0,1,13.71,38.4a12.571,12.571,0,0,1-2.05-4.1,19.511,19.511,0,0,1-.8-5.859,11.392,11.392,0,0,1,3.086-8.046,10.5,10.5,0,0,1,.274-7.968,5.475,5.475,0,0,1,3.359.527,23.3,23.3,0,0,1,3.261,1.5q1.036.624,1.661,1.054a28.222,28.222,0,0,1,15,0l1.484-.937a21.045,21.045,0,0,1,3.593-1.72,5.122,5.122,0,0,1,3.165-.429,10.4,10.4,0,0,1,.312,7.968,11.4,11.4,0,0,1,3.086,8.047,19.681,19.681,0,0,1-.8,5.878,12.116,12.116,0,0,1-2.069,4.1,10.918,10.918,0,0,1-3.164,2.6,15.965,15.965,0,0,1-3.672,1.524,26.775,26.775,0,0,1-4,.7q2.03,1.758,2.03,5.546v8.242A1.554,1.554,0,0,0,37.95,58.2a1.7,1.7,0,0,0,1.543.274A29.372,29.372,0,0,0,54.278,47.634,29.171,29.171,0,0,0,60,30a29.361,29.361,0,0,0-4.024-15.056Zm0,0" transform="translate(0 0)"/>
</svg>
