<svg xmlns="http://www.w3.org/2000/svg" viewBox="0 0 192.001 43.167">
  <defs>
    <style>
      .cls-1, .cls-2 {
        fill: #fff;
      }

      .cls-2 {
        fill-rule: evenodd;
      }
    </style>
  </defs>
  <g id="Logo" transform="translate(-0.1 0)">
    <path id="Path_1" data-name="Path 1" class="cls-1" d="M13.189,9.615a7.185,7.185,0,0,1,1.647,2.167,5.513,5.513,0,0,1,.433,2.427,5.3,5.3,0,0,1-1.994,4.334,6.073,6.073,0,0,1-.867.693,3.2,3.2,0,0,1-.953.433,5.116,5.116,0,0,1-1.214.173,3.848,3.848,0,0,1-1.56.173H3.654a4.563,4.563,0,0,1-1.647-.173A2.234,2.234,0,0,1,.88,19.15a4.808,4.808,0,0,1-.52-.693,2.755,2.755,0,0,1-.26-.78V3.894a3.064,3.064,0,0,1,.953-2.34A2.873,2.873,0,0,1,3.307.6H8.335a1.69,1.69,0,0,1,.693.087,1.475,1.475,0,0,1,.607.087,6.016,6.016,0,0,1,3.294,2.08,6.005,6.005,0,0,1,1.214,3.727,4.055,4.055,0,0,1-.173,1.474A12.968,12.968,0,0,1,13.189,9.615ZM6.428,8.055h.78c.433,0,.78,0,.953-.173a.524.524,0,0,0,.26-.52.787.787,0,0,0-.26-.607,3.233,3.233,0,0,0-1.04-.173h-.78l.087,1.474Zm0,5.981h1.04c.52,0,.953,0,1.127-.173.173-.087.26-.26.26-.607a.58.58,0,0,0-.347-.607,3.012,3.012,0,0,0-1.127-.173H6.341l.087,1.56Z" transform="translate(0 -0.08)"/>
    <path id="Path_2" data-name="Path 2" class="cls-1" d="M79.023,2.147A2.556,2.556,0,0,1,80.149.933,2.88,2.88,0,0,1,81.883.5,3.4,3.4,0,0,1,83.1.76a3,3,0,0,1,1.04.607,3.113,3.113,0,0,1,.607.867c.087.26.173.693.347,1.3L87.257,16.1c0,.173.087.433.087.607v.52a2.768,2.768,0,0,1-.26,1.214,2.458,2.458,0,0,1-.693.954A2.08,2.08,0,0,1,85.35,20a2.769,2.769,0,0,1-1.214.26,2.891,2.891,0,0,1-2.08-.693,2.466,2.466,0,0,1-1.04-1.82l-.693-3.641-1.3,3.467c-.607,1.82-1.734,2.687-3.294,2.687a3.039,3.039,0,0,1-1.994-.607,4.981,4.981,0,0,1-1.3-1.994l-1.3-3.467-.52,3.121a3.5,3.5,0,0,1-1.127,2.167,3.106,3.106,0,0,1-2.08.78,3.2,3.2,0,0,1-2.34-.953A3.42,3.42,0,0,1,64.2,16.8V16.1L66.454,3.534a3.924,3.924,0,0,1,1.04-2.167,2.812,2.812,0,0,1,2.08-.78,3.12,3.12,0,0,1,1.907.607,3.258,3.258,0,0,1,1.3,1.56l2.861,6.414Z" transform="translate(-8.537 -0.067)"/>
    <path id="Path_3" data-name="Path 3" class="cls-1" d="M99.081,20.457a9.958,9.958,0,0,1-2.861-.347,9.592,9.592,0,0,1-2.34-1.04,4.475,4.475,0,0,1-1.56-1.56,3.8,3.8,0,0,1-.52-1.994,4.392,4.392,0,0,1,.173-1.127,2.928,2.928,0,0,1,.607-.953,3.58,3.58,0,0,1,.954-.607,2.669,2.669,0,0,1,1.127-.26,5.073,5.073,0,0,1,1.127.173,2.661,2.661,0,0,1,1.127.693c.347.26.607.433.867.607a1.813,1.813,0,0,0,.52.347c.087.087.26.087.347.173h.347a.787.787,0,0,0,.607-.26,1.253,1.253,0,0,0,.173-.607.833.833,0,0,0-.52-.78.085.085,0,0,1-.087-.087.268.268,0,0,1-.173-.087c-.087,0-.173-.087-.347-.087a1.508,1.508,0,0,1-.607-.26l-.78-.26-.78-.26c-2.774-.953-4.247-2.86-4.247-5.548a6.334,6.334,0,0,1,.52-2.6,5.7,5.7,0,0,1,1.474-1.994,5.36,5.36,0,0,1,2.08-1.3A10.379,10.379,0,0,1,99.168,0,7.147,7.147,0,0,1,101.6.347a6.942,6.942,0,0,1,1.994.867,3.346,3.346,0,0,1,1.3,1.387,2.881,2.881,0,0,1,.433,1.734,2.856,2.856,0,0,1-.693,1.907,2.239,2.239,0,0,1-1.82.78,3.478,3.478,0,0,1-1.3-.26,6.838,6.838,0,0,1-1.387-.867,5.876,5.876,0,0,0-.78-.52.637.637,0,0,0-.52-.173,1.232,1.232,0,0,0-.52.173.787.787,0,0,0-.26.607.788.788,0,0,0,.347.693,8.232,8.232,0,0,0,1.56.607,9.456,9.456,0,0,1,2.34.953,9.281,9.281,0,0,1,1.82,1.127,5.978,5.978,0,0,1,1.474,1.994,6.634,6.634,0,0,1,.52,2.6,8.054,8.054,0,0,1-.433,2.514,5.843,5.843,0,0,1-1.387,2.08,6.681,6.681,0,0,1-2.34,1.474A7.916,7.916,0,0,1,99.081,20.457Z" transform="translate(-12.213)"/>
    <path id="Path_4" data-name="Path 4" class="cls-1" d="M132.974,17.463a5.77,5.77,0,0,1-1.387,2.08,2.89,2.89,0,0,1-1.994.607,3.478,3.478,0,0,1-1.3-.26,3.627,3.627,0,0,1-1.04-.693,3.117,3.117,0,0,1-.693-1.04,2.9,2.9,0,0,1-.26-1.3,3.418,3.418,0,0,1,.433-1.734L132.8,2.207A3.154,3.154,0,0,1,134.015.82,3.125,3.125,0,0,1,135.748.3a3.2,3.2,0,0,1,1.82.52,2.959,2.959,0,0,1,1.213,1.474l6.068,13.089a3.173,3.173,0,0,1,.347,1.56,2.768,2.768,0,0,1-.26,1.214,7.226,7.226,0,0,1-.693,1.04,3.116,3.116,0,0,1-1.04.693,2.894,2.894,0,0,1-1.3.26A2.954,2.954,0,0,1,140,19.543a5.083,5.083,0,0,1-1.387-2.08Z" transform="translate(-16.808 -0.04)"/>
    <path id="Path_5" data-name="Path 5" class="cls-1" d="M163.976,14.976a5.3,5.3,0,0,1,.433,1.04,4.218,4.218,0,0,1,.087,1.04,2.769,2.769,0,0,1-.26,1.214,2.459,2.459,0,0,1-.693.953,3.118,3.118,0,0,1-1.04.693,2.9,2.9,0,0,1-1.3.26,3.086,3.086,0,0,1-2.687-1.474l-2.6-4.334v2.687a3.479,3.479,0,0,1-.26,1.3,3.627,3.627,0,0,1-.693,1.04,3.849,3.849,0,0,1-.953.693,2.769,2.769,0,0,1-1.214.26,3.926,3.926,0,0,1-1.387-.26,3.576,3.576,0,0,1-1.127-.867,4.235,4.235,0,0,1-.78-2.774V4.227a8.937,8.937,0,0,1,.173-1.734,3.3,3.3,0,0,1,.78-1.127A3.969,3.969,0,0,1,151.58.673,7.888,7.888,0,0,1,153.4.5h2.687a10.547,10.547,0,0,1,1.82.087,6.692,6.692,0,0,1,1.3.173,5.712,5.712,0,0,1,2.08.953,9.279,9.279,0,0,1,1.647,1.56,7.248,7.248,0,0,1,1.04,1.994,6.463,6.463,0,0,1,.347,2.254,7.248,7.248,0,0,1-.433,2.514,11.327,11.327,0,0,1-1.56,2.427Z" transform="translate(-19.898 -0.067)"/>
    <path id="Path_6" data-name="Path 6" class="cls-1" d="M218.663,14.976a5.3,5.3,0,0,1,.433,1.04,4.216,4.216,0,0,1,.087,1.04,2.77,2.77,0,0,1-.26,1.214,2.459,2.459,0,0,1-.693.953,3.118,3.118,0,0,1-1.04.693,2.9,2.9,0,0,1-1.3.26A3.086,3.086,0,0,1,213.2,18.7l-2.687-4.421V16.97a3.48,3.48,0,0,1-.26,1.3,3.628,3.628,0,0,1-.694,1.04,3.848,3.848,0,0,1-.953.693,2.768,2.768,0,0,1-1.214.26,3.926,3.926,0,0,1-1.387-.26,3.576,3.576,0,0,1-1.127-.867,4.234,4.234,0,0,1-.78-2.774V4.227a8.94,8.94,0,0,1,.173-1.734,3.3,3.3,0,0,1,.78-1.127A3.971,3.971,0,0,1,206.18.673,7.888,7.888,0,0,1,208,.5h2.687a10.547,10.547,0,0,1,1.82.087,6.692,6.692,0,0,1,1.3.173,5.713,5.713,0,0,1,2.08.953,9.287,9.287,0,0,1,1.647,1.56,7.248,7.248,0,0,1,1.04,1.994,6.464,6.464,0,0,1,.347,2.254,7.249,7.249,0,0,1-.433,2.514,11.334,11.334,0,0,1-1.56,2.427Z" transform="translate(-27.169 -0.067)"/>
    <path id="Path_7" data-name="Path 7" class="cls-2" d="M32.416,11.742l-2.254.087L30.769,14l-1.907-1.214-.78,2.08-.78-2.08L25.395,14,26,11.829l-2.254-.087,1.82-1.474-1.82-1.474L26,8.708l-.607-2.167L27.3,7.755l.78-2.08.78,2.08,1.907-1.214-.607,2.167,2.254.087L30.6,10.268ZM37.7,9.055h-.78a7.5,7.5,0,0,0-.52-1.994l.693-.433c.173-.087.173-.26.087-.433L36.23,4.461c-.087-.087-.347-.173-.433-.087l-.693.433a11.832,11.832,0,0,0-1.474-1.474l.347-.693a.381.381,0,0,0-.087-.433l-1.647-.953c-.087-.087-.347,0-.433.087l-.433.693a9.143,9.143,0,0,0-2.08-.52V.647c0-.173-.087-.347-.26-.347H27.128c-.173,0-.26.173-.26.347v.867a7.5,7.5,0,0,0-1.994.52l-.433-.693c-.087-.173-.26-.173-.433-.087l-1.647.953a.381.381,0,0,0-.087.433l.433.693a11.832,11.832,0,0,0-1.474,1.474l-.867-.433a.381.381,0,0,0-.433.087L18.98,6.108c-.087.087,0,.347.087.433l.78.433a7.5,7.5,0,0,0-.52,1.994h-.78c-.173,0-.347.087-.347.26v1.907c0,.173.173.26.347.26h.78a7.5,7.5,0,0,0,.52,1.994l-.78.52c-.173.087-.173.26-.087.433l.954,1.647a.381.381,0,0,0,.433.087l.693-.433a11.832,11.832,0,0,0,1.474,1.474l-.433.693a.381.381,0,0,0,.087.433l1.647.953c.087.087.347,0,.433-.087l.433-.693a8.135,8.135,0,0,0,2.08.52v.78c0,.173.087.347.26.347h1.907c.173,0,.26-.173.26-.347v-.78a9.143,9.143,0,0,0,2.08-.52l.433.693c.087.173.26.173.433.087l1.647-.953a.381.381,0,0,0,.087-.433l-.433-.693a11.833,11.833,0,0,0,1.474-1.474l.693.433a.381.381,0,0,0,.433-.087l.953-1.647c.087-.087,0-.347-.087-.433l-.693-.433a8.465,8.465,0,0,0,.52-1.994h.78c.173,0,.347-.087.347-.26V9.315C38.05,9.142,37.877,9.055,37.7,9.055Z" transform="translate(-2.411 -0.04)"/>
    <path id="Path_8" data-name="Path 8" class="cls-2" d="M54.5,13.242l-2.167-.693-.26,2.254-1.387-1.82-1.56,1.734V12.462l-2.254.433,1.387-1.907-2.08-.953,2.167-.693L47.214,7.348l2.167.693.26-2.254,1.387,1.82,1.56-1.734V8.128l2.254-.433L53.369,9.6l2.08.954-2.167.693ZM60.39,11.6l-.867-.26a8.354,8.354,0,0,0,0-2.08l.78-.173c.173,0,.26-.173.26-.347l-.52-1.907c0-.173-.173-.26-.347-.173l-.78.173a6.235,6.235,0,0,0-1.04-1.82l.607-.607a.394.394,0,0,0,0-.433L57.1,2.58a.387.387,0,0,0-.433,0l-.607.607a7.607,7.607,0,0,0-1.82-1.04l.173-.78c0-.173,0-.347-.173-.347L52.329.5c-.173,0-.347.087-.347.26l-.173.78a8.354,8.354,0,0,0-2.08,0L49.555.76c0-.173-.173-.26-.347-.26L47.214.933c-.087,0-.173.173-.173.433l.173.78a6.235,6.235,0,0,0-1.82,1.04l-.607-.607a.394.394,0,0,0-.433,0L42.967,3.967a.387.387,0,0,0,0,.433l.607.607a7.607,7.607,0,0,0-1.04,1.82l-.78-.173c-.173,0-.347,0-.347.173l-.52,1.907c0,.173.087.347.26.347l.78.173a8.354,8.354,0,0,0,0,2.08l-.867.173c-.173,0-.26.173-.26.347l.52,1.907c0,.173.173.26.347.173l.78-.173a6.235,6.235,0,0,0,1.04,1.82l-.52.607a.394.394,0,0,0,0,.433l1.387,1.387a.387.387,0,0,0,.433,0l.607-.607a7.607,7.607,0,0,0,1.82,1.04l-.173.867c0,.173,0,.347.173.347l1.907.52c.173,0,.347-.087.347-.26l.173-.78a8.354,8.354,0,0,0,2.08,0l.173.78c0,.173.173.26.347.26l1.907-.52c.173,0,.26-.173.173-.347l-.173-.78a6.235,6.235,0,0,0,1.82-1.04l.52.52a.394.394,0,0,0,.433,0l1.387-1.387a.387.387,0,0,0,0-.433l-.433-.52a7.607,7.607,0,0,0,1.04-1.82l.78.173c.173,0,.347,0,.347-.173l.52-1.907C60.65,11.855,60.563,11.682,60.39,11.6Z" transform="translate(-5.421 -0.067)"/>
    <path id="Path_9" data-name="Path 9" class="cls-1" d="M200.362,42.735a4.051,4.051,0,0,1,.433.867,2.95,2.95,0,0,1,.087.867,3.724,3.724,0,0,1-.173,1.04,1.887,1.887,0,0,1-.607.78,3.114,3.114,0,0,1-.867.607,2.2,2.2,0,0,1-1.04.173,2.615,2.615,0,0,1-2.254-1.214l-2.167-3.641v2.254a3.233,3.233,0,0,1-.173,1.04,3.111,3.111,0,0,1-.607.867,4.764,4.764,0,0,1-.78.607,2.2,2.2,0,0,1-1.04.173,3.06,3.06,0,0,1-1.214-.26,2.716,2.716,0,0,1-.953-.693,3.6,3.6,0,0,1-.607-2.34V33.721a5.431,5.431,0,0,1,.173-1.387,2.458,2.458,0,0,1,.693-.954,5.837,5.837,0,0,1,.953-.607,5.657,5.657,0,0,1,1.474-.173h2.254a7.509,7.509,0,0,1,1.56.087,4.351,4.351,0,0,1,1.04.173,6.257,6.257,0,0,1,1.734.78,6.515,6.515,0,0,1,1.387,1.3,4.318,4.318,0,0,1,.867,1.647,6.763,6.763,0,0,1,.347,1.907,6.036,6.036,0,0,1-.433,2.167,7.762,7.762,0,0,1-1.3,1.994Z" transform="translate(-25.078 -4.075)"/>
    <path id="Path_10" data-name="Path 10" class="cls-1" d="M119.088,41.982a3.176,3.176,0,0,1,1.387.173,2.711,2.711,0,0,1,.867.433,2.34,2.34,0,0,1,.867,1.907,2.4,2.4,0,0,1-.26,1.127,3.113,3.113,0,0,1-.607.867c-.173.087-.26.173-.433.26s-.26.173-.433.173-.347.087-.607.087H113.54a2.531,2.531,0,0,1-.78-.173,2.494,2.494,0,0,1-1.56-1.994V33.054c0-.173,0-.26.087-.347,0-.087.087-.173.087-.347a1.262,1.262,0,0,1,.52-.78,3.447,3.447,0,0,1,2.167-.78h5.114a7.339,7.339,0,0,1,1.127.087,2.145,2.145,0,0,1,1.387.867,2.354,2.354,0,0,1,.52,1.474,2.4,2.4,0,0,1-.26,1.127,3.113,3.113,0,0,1-.607.867,3.513,3.513,0,0,1-.78.433,4.519,4.519,0,0,1-1.214.173h-2.687v1.127h2.167a2.5,2.5,0,0,1,1.647.52,1.616,1.616,0,0,1,.607,1.387,2.171,2.171,0,0,1-.693,1.56,1.742,1.742,0,0,1-.693.347,3.572,3.572,0,0,1-1.04.087h-1.907v1.3Z" transform="translate(-14.797 -4.102)"/>
    <path id="Path_11" data-name="Path 11" class="cls-1" d="M197.375,14.136a4.564,4.564,0,0,1,1.647.173,3.9,3.9,0,0,1,1.04.52,2.968,2.968,0,0,1,1.04,2.34,3.479,3.479,0,0,1-.26,1.3,2.367,2.367,0,0,1-.78,1.04c-.173.087-.26.26-.433.347a1.232,1.232,0,0,1-.52.173c-.173,0-.433.087-.694.087h-7.628a3.08,3.08,0,0,1-.867-.173,2.848,2.848,0,0,1-1.82-2.34V3.474a.782.782,0,0,1,.087-.433,3.756,3.756,0,0,0,.087-.433,2.245,2.245,0,0,1,.607-.953,4.12,4.12,0,0,1,2.6-.953h6.068a10.963,10.963,0,0,1,1.387.087,2.6,2.6,0,0,1,1.647,1.04,3.269,3.269,0,0,1,.607,1.82,3.477,3.477,0,0,1-.26,1.3,2.366,2.366,0,0,1-.78,1.04,2.066,2.066,0,0,1-.954.52,6.223,6.223,0,0,1-1.474.173h-3.207V8.068h2.514a2.66,2.66,0,0,1,1.907.607,2.219,2.219,0,0,1,.693,1.647,2.074,2.074,0,0,1-.867,1.82,1.558,1.558,0,0,1-.78.347,4.606,4.606,0,0,1-1.214.087h-2.34v1.56Z" transform="translate(-25.038 -0.093)"/>
    <path id="Path_12" data-name="Path 12" class="cls-2" d="M178.884,41.2l-1.82-.607L176.89,42.5l-1.127-1.56-1.3,1.387V40.423l-1.907.347,1.127-1.56-1.734-.78,1.82-.607-.953-1.647,1.82.607.173-1.907,1.127,1.56,1.3-1.387v1.907l1.907-.433-1.127,1.56,1.734.78-1.82.607Zm4.941-1.474-.693-.173a6.4,6.4,0,0,0,0-1.82l.693-.173c.173,0,.26-.173.173-.347l-.433-1.56c0-.173-.173-.173-.347-.173l-.693.173a9.028,9.028,0,0,0-.867-1.56l.52-.52a.387.387,0,0,0,0-.433l-1.127-1.127a.387.387,0,0,0-.433,0l-.52.52a6.655,6.655,0,0,0-1.56-.867l.173-.693c0-.173,0-.26-.173-.347l-1.56-.433a.45.45,0,0,0-.347.173l-.173.693a6.4,6.4,0,0,0-1.82,0l-.173-.693c0-.173-.173-.26-.347-.173l-1.56.433c-.087,0-.173.173-.173.347l.173.693a9.031,9.031,0,0,0-1.56.867l-.52-.52a.387.387,0,0,0-.433,0l-1.127,1.127a.387.387,0,0,0,0,.433l.52.52a6.653,6.653,0,0,0-.867,1.56l-.693-.173c-.173,0-.26,0-.347.173l-.433,1.56a.45.45,0,0,0,.173.347l.693.173a6.4,6.4,0,0,0,0,1.82l-.693.173c-.173,0-.26.173-.173.347l.433,1.56c0,.173.173.173.347.173l.693-.173a9.027,9.027,0,0,0,.867,1.56l-.433.52a.387.387,0,0,0,0,.433l1.127,1.127a.387.387,0,0,0,.433,0l.52-.52a6.655,6.655,0,0,0,1.56.867l-.173.693c0,.173,0,.26.173.347l1.56.433a.45.45,0,0,0,.347-.173l.173-.607a6.4,6.4,0,0,0,1.82,0l.173.607c0,.173.173.26.347.173l1.56-.433c.173,0,.173-.173.173-.347l-.173-.607a9.03,9.03,0,0,0,1.56-.867l.433.433a.387.387,0,0,0,.433,0l1.127-1.127a.387.387,0,0,0,0-.433l-.52-.52a6.654,6.654,0,0,0,.867-1.56l.693.173c.173,0,.26,0,.347-.173l.433-1.56C184.084,39.99,184,39.816,183.824,39.73Z" transform="translate(-22.236 -4.017)"/>
    <path id="Path_13" data-name="Path 13" class="cls-1" d="M104.429,30.4c-.867,0-2.774.347-2.774,3.294v3.814l-4.681-5.721A3.327,3.327,0,0,0,94.287,30.4c-.607,0-2.687.26-2.687,3.207V43.662c0,3.034,1.907,3.294,2.774,3.294s2.774-.347,2.774-3.294V40.022l4.507,5.548a3.569,3.569,0,0,0,2.774,1.56c.607,0,2.6-.26,2.6-3.034v-10.4C107.2,30.747,105.3,30.4,104.429,30.4Z" transform="translate(-12.186 -4.049)"/>
    <path id="Path_14" data-name="Path 14" class="cls-1" d="M135.322,30.7h-6.068c-3.207,0-3.554,1.734-3.554,2.514a2.476,2.476,0,0,0,2.254,2.427c.173,0,.607.087,1.56.087v8.061c0,2.947,1.907,3.294,2.774,3.294s2.774-.347,2.774-3.294V35.728c.953,0,1.387-.087,1.56-.087a2.348,2.348,0,0,0,2.254-2.427C138.789,32.434,138.442,30.7,135.322,30.7Z" transform="translate(-16.728 -4.089)"/>
    <path id="Path_15" data-name="Path 15" class="cls-1" d="M121.629.7h-7.281c-3.814,0-4.247,2.08-4.247,3.034a2.847,2.847,0,0,0,2.687,2.86,11.884,11.884,0,0,0,1.82.173V16.3c0,3.554,2.34,3.9,3.294,3.9s3.294-.347,3.294-3.9V6.768c1.214,0,1.56-.087,1.82-.087a2.847,2.847,0,0,0,2.687-2.86C125.789,2.78,125.443.7,121.629.7Z" transform="translate(-14.65 -0.093)"/>
    <path id="Path_16" data-name="Path 16" class="cls-1" d="M180.229.7h-7.281c-3.814,0-4.247,2.08-4.247,3.034a2.847,2.847,0,0,0,2.687,2.86,11.884,11.884,0,0,0,1.82.173V16.3c0,3.554,2.34,3.9,3.294,3.9s3.294-.347,3.294-3.9V6.768c1.214,0,1.56-.087,1.82-.087a2.847,2.847,0,0,0,2.687-2.86C184.389,2.78,183.956.7,180.229.7Z" transform="translate(-22.455 -0.093)"/>
    <path id="Path_17" data-name="Path 17" class="cls-1" d="M161.5,30.373a2.72,2.72,0,0,0-2.774,2.427l-.953,4.681-1.387-5.028a2.772,2.772,0,0,0-2.947-2.167,2.921,2.921,0,0,0-2.947,2.08L149.1,37.395l-1.04-4.941a2.63,2.63,0,0,0-2.687-2.254,2.8,2.8,0,0,0-1.907.607,2.231,2.231,0,0,0-.867,1.907,5.116,5.116,0,0,0,.173,1.214l2.514,9.968a3.545,3.545,0,0,0,6.935.26l1.214-4.421,1.3,4.594a3.181,3.181,0,0,0,3.294,2.514,3.088,3.088,0,0,0,2.427-.867,5.267,5.267,0,0,0,1.04-1.994l2.687-9.968a5.85,5.85,0,0,0,.173-1.214,2.34,2.34,0,0,0-.867-1.907A5.225,5.225,0,0,0,161.5,30.373Z" transform="translate(-18.979 -4.022)"/>
    <path id="Path_18" data-name="Path 18" class="cls-1" d="M218.289,42.315l-3.9-4.074,3.034-2.774c.347-.347.607-.52.607-.607a2.237,2.237,0,0,0-.087-3.467,2.8,2.8,0,0,0-1.82-.693,4.05,4.05,0,0,0-2.6,1.387l-2.774,2.6v-.693c0-2.947-1.907-3.294-2.774-3.294s-2.774.347-2.774,3.294v9.882c0,2.947,1.907,3.294,2.774,3.294s2.774-.347,2.774-3.294v-1.82l3.467,3.727a3.7,3.7,0,0,0,2.6,1.474,2.8,2.8,0,0,0,1.82-.693,2.452,2.452,0,0,0,.78-1.734A3.373,3.373,0,0,0,218.289,42.315Z" transform="translate(-27.316 -4.089)"/>
    <circle id="Ellipse_1" data-name="Ellipse 1" class="cls-1" cx="4.507" cy="4.507" r="4.507" transform="translate(68.319 33.979)"/>
  </g>
</svg>
