<?xml version="1.0" encoding="utf-8"?>
<!-- Generator: Adobe Illustrator 21.1.0, SVG Export Plug-In . SVG Version: 6.00 Build 0)  -->
<svg version="1.1" id="Слой_1" xmlns="http://www.w3.org/2000/svg" xmlns:xlink="http://www.w3.org/1999/xlink" x="0px" y="0px"
	 viewBox="0 0 722.8 161.6" style="enable-background:new 0 0 722.8 161.6;" xml:space="preserve">
<style type="text/css">
	.st0{fill:url(#SVGID_1_);}
	.st1{fill:url(#SVGID_2_);}
	.st2{fill:url(#SVGID_3_);}
	.st3{fill:url(#SVGID_4_);}
	.st4{fill:url(#SVGID_5_);}
	.st5{fill:url(#SVGID_6_);}
	.st6{fill:url(#SVGID_7_);}
	.st7{fill:url(#SVGID_8_);}
	.st8{fill:#FFFFFF;}
	.st9{fill:url(#SVGID_9_);}
	.st10{fill:url(#SVGID_10_);}
	.st11{fill:url(#SVGID_11_);}
	.st12{fill:#01A0C6;}
</style>
<g>
	
		<linearGradient id="SVGID_1_" gradientUnits="userSpaceOnUse" x1="-32.6857" y1="123.2701" x2="836.717" y2="163.4798" gradientTransform="matrix(1 0 0 -1 0 164)">
		<stop  offset="0" style="stop-color:#2E58A6"/>
		<stop  offset="1" style="stop-color:#01A0C6"/>
	</linearGradient>
	<path class="st0" d="M49.9,35.7c2.9,2.6,4.9,5.5,6.2,8.1c1.3,2.6,1.6,5.8,1.6,9.1c0,6.5-2.3,12-7.5,16.2c-1,1-2.3,1.9-3.3,2.6
		c-1,0.6-2.3,1.3-3.6,1.6s-2.9,0.6-4.6,0.6s-3.6,0.3-6.2,0.3H13.4c-2.6,0-4.6,0-6.2-0.6c-1.3-0.3-2.9-1.3-4.2-2.9
		c-0.7-0.6-1.3-1.6-2-2.6c-0.3-1-1-1.9-1-2.9c0-0.3,0-1,0-1.6c0-0.6,0-2.3,0-4.5V17.9v-3.6c0-3.6,1.3-6.8,3.6-8.8
		c2.3-2.3,5.2-3.6,8.8-3.6h10.4c2,0,3.6,0,4.9,0s2.6,0,3.6,0c1,0,2,0,2.6,0.3c0.7,0,1.6,0,2.3,0.3c5.2,1.3,9.1,3.9,12.4,7.8
		c2.9,3.9,4.6,8.4,4.6,14c0,1.9,0,3.9-0.7,5.5C52.2,31.5,51.2,33.5,49.9,35.7z M24.5,29.9h2.9c1.6,0,2.9,0,3.6-0.6
		c0.7-0.3,1-1,1-1.9c0-1-0.3-1.6-1-2.3c-0.7-0.3-2-0.6-3.6-0.6h-2.6L24.5,29.9L24.5,29.9z M24.5,52.3h3.9c2,0,3.6,0,4.2-0.6
		c0.7-0.3,1-1,1-2.3c0-1-0.3-1.9-1.3-2.3c-0.7-0.3-2.3-0.6-4.2-0.6h-3.9L24.5,52.3L24.5,52.3z"/>
	
		<linearGradient id="SVGID_2_" gradientUnits="userSpaceOnUse" x1="-32.1497" y1="111.66" x2="837.2873" y2="151.8714" gradientTransform="matrix(1 0 0 -1 0 164)">
		<stop  offset="0" style="stop-color:#2E58A6"/>
		<stop  offset="1" style="stop-color:#01A0C6"/>
	</linearGradient>
	<path class="st1" d="M265.1,7.8c1-1.9,2.3-3.6,4.2-4.5c2-1.3,3.9-1.6,6.5-1.6c1.3,0,2.9,0.3,4.6,1c1.6,0.6,2.9,1.3,3.9,2.3
		s1.6,1.9,2.3,3.2c0.3,1,1,2.6,1.3,4.9l8.2,47.1c0,0.6,0.3,1.6,0.3,2.3c0,0.6,0,1.3,0,1.9c0,1.6-0.3,3.2-1,4.5
		c-0.7,1.3-1.3,2.6-2.6,3.6c-1,1-2.3,1.9-3.9,2.3c-1.3,0.6-2.9,1-4.6,1c-2.9,0-5.9-0.6-7.8-2.6c-2.3-1.6-3.6-3.9-3.9-6.8L270,52.6
		l-4.9,13c-2.3,6.8-6.5,10.1-12.4,10.1c-2.9,0-5.5-0.6-7.5-2.3c-2-1.6-3.6-4.2-4.9-7.5l-4.9-13l-2,11.7c-0.7,3.6-2,6.2-4.2,8.1
		s-4.9,2.9-7.8,2.9c-3.6,0-6.5-1.3-8.8-3.6c-2.3-2.3-3.3-5.5-3.3-9.4c0-0.3,0-1,0-1.3c0-0.3,0-1,0-1.3l8.2-46.8
		c0.7-3.6,2-6.2,3.9-8.1c2-1.9,4.6-2.9,7.8-2.9c2.6,0,4.9,0.6,7.2,2.3c2.3,1.3,3.9,3.6,4.9,5.8L253,33.8L265.1,7.8z"/>
	
		<linearGradient id="SVGID_3_" gradientUnits="userSpaceOnUse" x1="-32.0222" y1="109.0447" x2="837.3958" y2="149.2552" gradientTransform="matrix(1 0 0 -1 0 164)">
		<stop  offset="0" style="stop-color:#2E58A6"/>
		<stop  offset="1" style="stop-color:#01A0C6"/>
	</linearGradient>
	<path class="st2" d="M326.7,76.7c-3.9,0-7.5-0.3-10.8-1.3c-3.3-1-6.2-2.3-8.8-3.9c-2.6-1.6-4.6-3.6-5.9-5.8c-1.3-2.3-2-4.5-2-7.5
		c0-1.6,0.3-2.9,0.7-4.2c0.3-1.3,1.3-2.3,2.3-3.6c1-1,2.3-1.6,3.6-2.3c1.3-0.6,2.9-1,4.2-1c1.3,0,2.9,0.3,4.2,0.6
		c1.3,0.3,2.9,1.3,4.2,2.6c1.3,1,2.3,1.6,3.3,2.3c0.7,0.6,1.3,1,2,1.3c0.3,0.3,1,0.3,1.3,0.6c0.3,0,0.7,0,1.3,0c1,0,1.6-0.3,2.3-1
		c0.3-0.6,0.7-1.3,0.7-2.3c0-1.3-0.7-2.3-2-2.9c0,0-0.3,0-0.3-0.3c0,0-0.3,0-0.7-0.3c-0.3,0-0.7-0.3-1.3-0.3c-0.3,0-1.3-0.3-2.3-1
		c-1-0.3-2-0.6-2.9-1c-1-0.3-2-0.6-2.9-1c-10.4-3.6-16-10.7-16-20.8c0-3.6,0.7-6.8,2-9.7c1.3-2.9,3.3-5.5,5.5-7.5
		c2.3-1.9,5.2-3.9,8.5-4.9c3.3-1,7.2-1.6,10.8-1.6c3.3,0,6.5,0.3,9.1,1.3c2.9,0.6,5.2,1.9,7.5,3.2c2,1.3,3.9,2.9,4.9,5.2
		c1.3,1.9,1.6,3.9,1.6,6.5c0,2.9-1,5.2-2.6,7.1c-1.6,1.9-3.9,2.9-6.8,2.9c-1.6,0-3.3-0.3-4.9-1c-1.3-0.6-3.3-1.6-5.2-3.2
		c-1.3-1-2.3-1.6-2.9-1.9s-1.3-0.3-2-0.3c-0.7,0-1.3,0.3-2,0.6c-0.3,0.3-0.7,1.3-0.7,1.9c0,1,0.3,1.9,1.3,2.6c1,0.6,2.9,1.3,5.9,2.3
		c3.3,1,6.2,1.9,8.8,3.6c2.6,1.3,4.9,2.6,6.8,4.2c2.3,1.9,3.9,4.2,5.5,7.5c1.3,2.9,2,6.5,2,9.7s-0.7,6.5-1.6,9.4
		c-1.3,2.9-2.9,5.8-5.2,7.8c-2.6,2.6-5.5,4.2-8.8,5.5C335.5,76,331.6,76.7,326.7,76.7z"/>
	
		<linearGradient id="SVGID_4_" gradientUnits="userSpaceOnUse" x1="-31.7542" y1="103.1216" x2="837.6825" y2="143.3329" gradientTransform="matrix(1 0 0 -1 0 164)">
		<stop  offset="0" style="stop-color:#2E58A6"/>
		<stop  offset="1" style="stop-color:#01A0C6"/>
	</linearGradient>
	<path class="st3" d="M437.2,65.3c-1.6,3.6-3.3,6.2-5.2,7.8c-2,1.6-4.2,2.3-7.5,2.3c-1.6,0-3.3-0.3-4.9-1c-1.3-0.6-2.6-1.3-3.9-2.6
		c-1-1-2-2.3-2.6-3.9c-0.7-1.3-1-2.9-1-4.9c0-1.9,0.3-4.2,1.6-6.5l22.8-48.4c1-2.3,2.6-3.9,4.6-5.2c2-1.3,4.2-1.9,6.5-1.9
		c2.6,0,4.9,0.6,6.8,1.9c2,1.3,3.6,2.9,4.6,5.5l22.8,49c1,1.6,1.3,3.9,1.3,5.8c0,1.6-0.3,3.2-1,4.5c-0.7,1.3-1.6,2.6-2.6,3.9
		c-1,1-2.3,1.9-3.9,2.6c-1.3,0.6-2.9,1-4.9,1c-2.6,0-5.2-0.6-7.2-2.3c-2-1.3-3.6-4.2-5.2-7.8C458.4,65.3,437.2,65.3,437.2,65.3z"/>
	
		<linearGradient id="SVGID_5_" gradientUnits="userSpaceOnUse" x1="-31.5706" y1="100.3244" x2="837.7751" y2="140.5315" gradientTransform="matrix(1 0 0 -1 0 164)">
		<stop  offset="0" style="stop-color:#2E58A6"/>
		<stop  offset="1" style="stop-color:#01A0C6"/>
	</linearGradient>
	<path class="st4" d="M541.9,55.5c0.7,1.3,1.3,2.6,1.6,3.9c0.3,1.3,0.3,2.6,0.3,3.9c0,1.6-0.3,3.2-1,4.5c-0.7,1.3-1.3,2.6-2.6,3.6
		c-1,1-2.3,1.9-3.9,2.6c-1.3,0.6-2.9,1-4.9,1c-4.6,0-7.5-1.9-10.1-5.5l-9.8-16.2V63c0,1.6-0.3,3.2-1,4.9c-0.7,1.3-1.3,2.6-2.6,3.9
		c-1,1-2.3,1.9-3.6,2.6c-1.3,0.6-2.9,1-4.6,1s-3.6-0.3-5.2-1c-1.6-0.6-2.9-1.9-4.2-3.2c-2-2.3-2.9-5.8-2.9-10.4V15.6
		c0-2.6,0.3-4.9,0.7-6.5c0.7-1.6,1.6-2.9,2.9-4.2c1.3-1.3,2.9-1.9,4.2-2.6c1.3-0.3,3.6-0.6,6.8-0.6h10.1c2.9,0,5.2,0,6.8,0.3
		c1.6,0,3.3,0.3,4.9,0.6c2.9,0.6,5.5,1.9,7.8,3.6S536,9.7,538,12c1.6,2.3,2.9,4.5,3.9,7.5c1,2.6,1.3,5.5,1.3,8.4
		c0,3.6-0.7,6.8-1.6,9.4c-1.3,2.9-3.3,5.8-5.9,9.1L541.9,55.5z"/>
	
		<linearGradient id="SVGID_6_" gradientUnits="userSpaceOnUse" x1="-31.1707" y1="92.087" x2="838.1754" y2="132.2941" gradientTransform="matrix(1 0 0 -1 0 164)">
		<stop  offset="0" style="stop-color:#2E58A6"/>
		<stop  offset="1" style="stop-color:#01A0C6"/>
	</linearGradient>
	<path class="st5" d="M720.5,55.5c0.7,1.3,1.3,2.6,1.6,3.9c0.3,1.3,0.3,2.6,0.3,3.9c0,1.6-0.3,3.2-1,4.5c-0.7,1.3-1.3,2.6-2.6,3.6
		c-1,1-2.3,1.9-3.9,2.6c-1.3,0.6-2.9,1-4.9,1c-4.6,0-7.5-1.9-10.1-5.5l-10.1-16.6V63c0,1.6-0.3,3.2-1,4.9c-0.7,1.3-1.3,2.6-2.6,3.9
		c-1,1-2.3,1.9-3.6,2.6c-1.3,0.6-2.9,1-4.6,1s-3.6-0.3-5.2-1c-1.6-0.6-2.9-1.9-4.2-3.2c-2-2.3-2.9-5.8-2.9-10.4V15.6
		c0-2.6,0.3-4.9,0.7-6.5c0.7-1.6,1.6-2.9,2.9-4.2c1.3-1.3,2.9-1.9,4.2-2.6c1.3-0.3,3.6-0.6,6.8-0.6h10.1c2.9,0,5.2,0,6.8,0.3
		c1.6,0,3.3,0.3,4.9,0.6c2.9,0.6,5.5,1.9,7.8,3.6c2.3,1.6,4.2,3.6,6.2,5.8c1.6,2.3,2.9,4.5,3.9,7.5c1,2.6,1.3,5.5,1.3,8.4
		c0,3.6-0.7,6.8-1.6,9.4c-1.3,2.9-3.3,5.8-5.9,9.1L720.5,55.5z"/>
	
		<linearGradient id="SVGID_7_" gradientUnits="userSpaceOnUse" x1="-32.5616" y1="120.5047" x2="836.8629" y2="160.7155" gradientTransform="matrix(1 0 0 -1 0 164)">
		<stop  offset="0" style="stop-color:#2E58A6"/>
		<stop  offset="1" style="stop-color:#01A0C6"/>
	</linearGradient>
	<path class="st6" d="M113.1,43.5l-8.5,0.3l2.3,8.1l-7.2-4.2l-3.3,7.8l-2.9-7.8l-7.2,4.5l2.3-8.1l-8.8-0.6l6.8-5.5l-6.8-5.5l8.5-0.3
		l-2-8.1l7.2,4.5l2.9-7.8l2.9,7.8l7.2-4.5l-2.3,8.1l8.5,0.3L106,38L113.1,43.5z M132.7,33.5h-2.9c-0.3-2.6-1-5.2-2-7.5l2.6-1.6
		c0.7-0.3,0.7-1,0.3-1.6l-3.6-6.2c-0.3-0.3-1-0.6-1.6-0.3l-2.6,1.6c-1.6-1.9-3.6-3.9-5.5-5.5l1.6-2.6c0.3-0.6,0-1.3-0.3-1.6
		l-6.2-3.6c-0.3-0.3-1.3,0-1.6,0.3l-1.6,2.6c-2.6-1-5.2-1.9-7.8-2.3V1.9c0-0.6-0.3-1.3-1-1.3h-7.2c-0.7,0-1,0.6-1,1.3v3.2
		c-2.6,0.3-5.2,1-7.5,1.9l-2.3-2.6c-0.3-0.6-1-0.6-1.6-0.3l-6.2,3.6c-0.3,0.3-0.7,1-0.3,1.6L76,12c-2,1.6-3.9,3.6-5.5,5.5l-2.6-1.6
		c-0.7-0.3-1.3,0-1.6,0.3l-3.6,6.2c-0.3,0.3,0,1.3,0.3,1.6l2.6,1.6c-1,2.3-1.6,4.9-2,7.5h-2.9c-0.7,0-1.3,0.3-1.3,1v7.1
		c0,0.6,0.7,1,1.3,1h2.9c0.3,2.6,1,5.2,2,7.5l-2.6,1.6c-0.7,0.3-0.7,1-0.3,1.6l3.6,6.2c0.3,0.3,1,0.6,1.6,0.3l2.6-1.6
		c1.6,1.9,3.6,3.9,5.5,5.5l-1.6,2.6c-0.3,0.6,0,1.3,0.3,1.6l6.2,3.6c0.3,0.3,1.3,0,1.6-0.3l1.6-2.6c2.3,1,5.2,1.6,7.8,1.9v2.9
		c0,0.6,0.3,1.3,1,1.3h7.2c0.7,0,1-0.6,1-1.3v-2.9c2.6-0.3,5.2-1,7.8-1.9l1.6,2.6c0.3,0.6,1,0.6,1.6,0.3l6.2-3.6
		c0.3-0.3,0.7-1,0.3-1.6l-1.6-2.6c2-1.6,3.9-3.6,5.5-5.5l2.6,1.6c0.7,0.3,1.3,0,1.6-0.3l3.6-6.2c0.3-0.3,0-1.3-0.3-1.6l-2.6-1.6
		c1-2.3,1.6-5.2,2-7.5h2.9c0.7,0,1.3-0.3,1.3-1v-7.1C134,34.1,133.4,33.5,132.7,33.5z"/>
	
		<linearGradient id="SVGID_8_" gradientUnits="userSpaceOnUse" x1="-32.3701" y1="116.4334" x2="837.0458" y2="156.6437" gradientTransform="matrix(1 0 0 -1 0 164)">
		<stop  offset="0" style="stop-color:#2E58A6"/>
		<stop  offset="1" style="stop-color:#01A0C6"/>
	</linearGradient>
	<path class="st7" d="M184.5,49.4l-8.2-2.6l-1,8.4l-5.2-6.8l-5.9,6.5v-8.4l-8.5,1.6l5.2-7.1l-7.8-3.6l8.2-2.6l-4.2-7.5l8.2,2.6
		l1-8.4l5.2,6.8l5.9-6.5v8.4l8.5-1.6l-5.2,7.1l7.8,3.6l-8.2,2.6L184.5,49.4z M206.7,42.9l-2.9-0.6c0.3-2.6,0.3-5.2,0-7.8l2.9-0.6
		c0.7,0,1-0.6,1-1.3l-2-7.1c0-0.6-0.7-1-1.3-0.6l-2.9,0.6c-1-2.6-2.3-4.9-3.9-6.8l2.3-2.3c0.3-0.3,0.3-1.3,0-1.6l-5.2-5.2
		c-0.3-0.3-1-0.3-1.6,0l-2.3,2.3c-2-1.6-4.6-2.9-6.8-3.9l0.7-3.2c0-0.6,0-1.3-0.7-1.3l-7.2-1.9c-0.7,0-1.3,0.3-1.3,1l-0.7,2.9
		c-2.6-0.3-5.2-0.3-7.8,0l-0.7-2.9c0-0.6-0.7-1-1.3-1l-7.2,1.9c-0.3,0-0.7,0.6-0.7,1.6l0.7,2.9c-2.6,1-4.9,2.3-6.8,3.9l-2.3-2.3
		c-0.3-0.3-1.3-0.3-1.6,0l-5.2,5.2c-0.3,0.3-0.3,1,0,1.6l2.3,2.3c-1.6,1.9-2.9,4.5-3.9,6.8l-2.9-0.6c-0.7,0-1.3,0-1.3,0.6l-2,7.1
		c0,0.6,0.3,1.3,1,1.3l2.9,0.6c-0.3,2.6-0.3,5.2,0,7.8l-3.3,0.6c-0.7,0-1,0.6-1,1.3l2,7.1c0,0.6,0.7,1,1.3,0.6l2.9-0.6
		c1,2.6,2.3,4.9,3.9,6.8l-2,2.3c-0.3,0.3-0.3,1.3,0,1.6l5.2,5.2c0.3,0.3,1,0.3,1.6,0L151,65c2,1.6,4.6,2.9,6.8,3.9l-0.7,2.9
		c0,0.6,0,1.3,0.7,1.3L165,75c0.7,0,1.3-0.3,1.3-1l0.7-2.9c2.6,0.3,5.2,0.3,7.8,0l0.7,2.9c0,0.6,0.7,1,1.3,1l7.2-1.9
		c0.7,0,1-0.6,0.7-1.3l-0.7-2.9c2.6-1,4.9-2.3,6.8-3.9l2,1.9c0.3,0.3,1.3,0.3,1.6,0l5.2-5.2c0.3-0.3,0.3-1,0-1.6l-2.3-2.3
		c1.6-1.9,2.9-4.5,3.9-6.8l2.9,0.6c0.7,0,1.3,0,1.3-0.6l2-7.1C208,43.9,207.7,43.2,206.7,42.9z"/>
	<path class="st8" d="M659.3,144.6c0.7,1,1.3,2.3,1.6,3.2c0.3,1,0.3,2.3,0.3,3.2c0,1.6-0.3,2.6-0.7,3.9c-0.7,1.3-1.3,2.3-2.3,2.9
		c-1,1-2,1.6-3.3,2.3s-2.6,0.6-3.9,0.6c-3.6,0-6.5-1.6-8.5-4.5l-8.2-13.6v8.1c0,1.6-0.3,2.9-0.7,3.9c-0.7,1.3-1.3,2.3-2.3,3.2
		c-1,1-2,1.6-2.9,2.3c-1.3,0.6-2.6,0.6-3.9,0.6c-1.6,0-2.9-0.3-4.6-1c-1.6-0.6-2.6-1.6-3.6-2.6c-1.6-1.9-2.3-4.9-2.3-8.8v-37.4
		c0-2.3,0.3-3.9,0.7-5.2c0.7-1.3,1.3-2.6,2.6-3.6c1.3-1,2.3-1.6,3.6-2.3c1.3-0.3,2.9-0.6,5.5-0.6h8.5c2.6,0,4.6,0,5.9,0.3
		c1.3,0,2.6,0.3,3.9,0.6c2.3,0.6,4.6,1.6,6.5,2.9c2,1.3,3.6,2.9,5.2,4.9c1.6,1.9,2.6,3.9,3.3,6.2c0.7,2.3,1.3,4.5,1.3,7.1
		c0,2.9-0.7,5.5-1.6,8.1c-1,2.3-2.6,4.9-4.9,7.5L659.3,144.6z"/>
	<path class="st8" d="M392.6,142c2.3,0,3.9,0,5.2,0.6c1.3,0.3,2.3,1,3.3,1.6c2.3,1.9,3.3,4.2,3.3,7.1c0,1.6-0.3,2.9-1,4.2
		c-0.7,1.3-1.3,2.3-2.3,3.2c-0.7,0.3-1,0.6-1.6,1c-0.7,0.3-1,0.6-1.6,0.6s-1.3,0.3-2.3,0.3c-1,0-2,0-2.9,0h-15.6c-2.3,0-3.9,0-4.9,0
		s-2-0.3-2.9-0.6c-3.3-1.3-5.2-3.9-5.9-7.5c0-0.3,0-0.6,0-1c0-0.3,0-0.6,0-1c0-0.3,0-1,0-1.6s0-1.6,0-2.6v-33.1c0-1.3,0-2.3,0-2.9
		c0-0.6,0-1.6,0-1.9c0-0.6,0-1,0.3-1.3c0-0.3,0.3-0.6,0.3-1.3c0.3-1.3,1-2.3,2-2.9c2.6-2.6,7.2-2.9,8.2-2.9c1,0,18.6,0,19.2,0
		s2,0,4.2,0.3c2.3,0.3,3.9,1.6,5.2,3.2c1.3,1.6,2,3.6,2,5.5c0,1.6-0.3,2.9-1,4.2c-0.7,1.3-1.3,2.3-2.3,3.2c-1,0.6-2,1.3-2.9,1.6
		c-1.3,0.3-2.6,0.6-4.6,0.6h-10.4v4.2h8.2c2.6,0,4.6,0.6,6.2,1.9c1.6,1.3,2.3,2.9,2.3,5.2c0,2.3-1,4.2-2.6,5.8
		c-0.7,0.6-1.6,1-2.6,1.3c-1,0.3-2.3,0.3-3.9,0.3h-7.5v4.5v0.3L392.6,142z"/>
	
		<linearGradient id="SVGID_9_" gradientUnits="userSpaceOnUse" x1="-31.235" y1="94.323" x2="838.0516" y2="134.5278" gradientTransform="matrix(1 0 0 -1 0 164)">
		<stop  offset="0" style="stop-color:#2E58A6"/>
		<stop  offset="1" style="stop-color:#01A0C6"/>
	</linearGradient>
	<path class="st9" d="M648.5,52.6c2.6,0,4.6,0,6.2,0.6c1.3,0.3,2.6,1,3.9,1.9c2.6,2.3,3.9,5.2,3.9,8.8c0,1.6-0.3,3.2-1,4.9
		c-0.7,1.6-1.6,2.9-2.9,3.9c-0.7,0.3-1,1-1.6,1.3c-0.7,0.3-1.3,0.6-2,0.6c-0.7,0-1.6,0.3-2.6,0.3c-1,0-2.3,0-3.6,0h-18.9
		c-2.6,0-4.9,0-5.9,0s-2.3-0.3-3.3-0.6c-3.9-1.6-6.2-4.5-6.8-8.8c0-0.3,0-0.6,0-1s0-0.6,0-1.3c0-0.3,0-1,0-1.9c0-0.6,0-1.6,0-2.9
		v-40c0-1.6,0-2.6,0-3.6s0-1.6,0-2.3s0-1,0.3-1.6c0-0.3,0.3-1,0.3-1.6c0.3-1.3,1.3-2.6,2.3-3.6c3.3-3.2,8.8-3.6,9.8-3.6
		c1,0,21.8,0,22.8,0s2.3,0,5.2,0.3c2.6,0.3,4.6,1.9,6.2,3.9c1.3,1.9,2.3,4.2,2.3,6.8c0,1.6-0.3,3.2-1,4.9c-0.7,1.6-1.6,2.9-2.9,3.9
		c-1,1-2.3,1.6-3.6,1.9s-3.3,0.6-5.5,0.6h-12.1v5.2h9.5c2.9,0,5.5,0.6,7.2,2.3c1.6,1.6,2.6,3.6,2.6,6.2c0,2.9-1,5.2-3.3,6.8
		c-1,0.6-2,1.3-2.9,1.3c-1,0.3-2.6,0.3-4.6,0.3h-8.8v5.5v0.3H648.5z"/>
	<path class="st8" d="M589.5,139l-6.8-2.3l-0.7,7.1l-4.2-5.8l-4.9,5.2v-7.1l-7.2,1.3l4.2-5.8l-6.5-2.9l6.8-2.3l-3.6-6.2l6.8,2.3
		l0.7-7.1l4.2,5.8l4.9-5.2v7.1l7.2-1.6l-4.2,5.8l6.5,2.9l-6.8,2.3L589.5,139z M608.1,133.8l-2.6-0.6c0.3-2.3,0.3-4.5,0-6.8l2.6-0.6
		c0.7,0,1-0.6,0.7-1.3l-1.6-5.8c0-0.6-0.7-0.6-1.3-0.6l-2.6,0.6c-1-2.3-2-3.9-3.3-5.8l2-1.9c0.3-0.3,0.3-1,0-1.6l-4.2-4.2
		c-0.3-0.3-1-0.3-1.6,0l-2,1.9c-1.6-1.3-3.6-2.3-5.9-3.2l0.7-2.6c0-0.6,0-1-0.7-1.3l-5.9-1.6c-0.7,0-1,0.3-1.3,0.6l-0.7,2.6
		c-2.3-0.3-4.6-0.3-6.8,0l-0.7-2.6c0-0.6-0.7-1-1.3-0.6l-5.9,1.6c-0.3,0-0.7,0.6-0.7,1.3l0.7,2.6c-2.3,1-3.9,1.9-5.9,3.2l-2-1.9
		c-0.3-0.3-1-0.3-1.6,0l-4.2,4.2c-0.3,0.3-0.3,1,0,1.6l2,1.9c-1.3,1.6-2.3,3.6-3.3,5.8l-2.6-0.6c-0.7,0-1,0-1.3,0.6l-1.6,5.8
		c0,0.6,0.3,1,0.7,1.3l2.6,0.6c-0.3,2.3-0.3,4.5,0,6.8l-2.6,0.6c-0.7,0-1,0.6-0.7,1.3l1.6,5.8c0,0.6,0.7,0.6,1.3,0.6l2.6-0.6
		c1,2.3,2,3.9,3.3,5.8l-1.6,1.9c-0.3,0.3-0.3,1,0,1.6l4.2,4.2c0.3,0.3,1,0.3,1.6,0l2-1.9c1.6,1.3,3.6,2.3,5.9,3.2l-0.7,2.6
		c0,0.6,0,1,0.7,1.3l5.9,1.6c0.7,0,1-0.3,1.3-0.6l0.7-2.3c2.3,0.3,4.6,0.3,6.8,0l0.7,2.3c0,0.6,0.7,1,1.3,0.6l5.9-1.6
		c0.7,0,0.7-0.6,0.7-1.3l-0.7-2.3c2.3-1,3.9-1.9,5.9-3.2l1.6,1.6c0.3,0.3,1,0.3,1.6,0l4.2-4.2c0.3-0.3,0.3-1,0-1.6l-2-1.9
		c1.3-1.6,2.3-3.6,3.3-5.8l2.6,0.6c0.7,0,1,0,1.3-0.6l1.6-5.8C609,134.5,608.7,134.2,608.1,133.8z"/>
	<path class="st8" d="M347.2,98.7c-3.3,0-10.4,1.3-10.4,12.3v14.3l-17.6-21.4c-2.9-3.6-6.2-5.2-10.1-5.2c-2.3,0-10.1,1-10.1,12v37.7
		c0,11.4,7.2,12.3,10.4,12.3c3.3,0,10.4-1.3,10.4-12.3v-14l17,20.8c3.3,3.9,6.5,5.8,10.4,5.8c2.3,0,9.8-1,9.8-11.4v-38.7
		C357.7,99.7,350.2,98.7,347.2,98.7z"/>
	<path class="st8" d="M446.3,99.4h-22.8c-12.1,0-13.4,6.5-13.4,9.4c0,2.3,1,7.5,8.5,9.1c0.7,0,2.3,0.3,5.9,0.3v30.2
		c0,11,7.2,12.3,10.4,12.3c3.3,0,10.4-1.3,10.4-12.3v-30.2c3.6,0,5.2-0.3,5.9-0.3c7.8-1.3,8.5-6.8,8.5-9.1
		C459.4,106.2,458.1,99.4,446.3,99.4z"/>
	
		<linearGradient id="SVGID_10_" gradientUnits="userSpaceOnUse" x1="-31.913" y1="106.3779" x2="837.5227" y2="146.5892" gradientTransform="matrix(1 0 0 -1 0 164)">
		<stop  offset="0" style="stop-color:#2E58A6"/>
		<stop  offset="1" style="stop-color:#01A0C6"/>
	</linearGradient>
	<path class="st10" d="M402.7,1.9h-27.4c-14.3,0-16,7.8-16,11.4c0,2.6,1,9.1,10.1,10.7c1,0.3,2.6,0.3,6.8,0.6v35.7
		c0,13.3,8.8,14.6,12.4,14.6S401,73.7,401,60.4V24.7c4.6,0,5.9-0.3,6.8-0.3c9.1-1.6,10.1-8.1,10.1-10.7
		C418.3,10.1,416.7,1.9,402.7,1.9z"/>
	
		<linearGradient id="SVGID_11_" gradientUnits="userSpaceOnUse" x1="-31.5043" y1="97.5754" x2="837.9301" y2="137.7867" gradientTransform="matrix(1 0 0 -1 0 164)">
		<stop  offset="0" style="stop-color:#2E58A6"/>
		<stop  offset="1" style="stop-color:#01A0C6"/>
	</linearGradient>
	<path class="st11" d="M593.4,1.9H566c-14.3,0-16,7.8-16,11.4c0,2.6,1,9.1,10.1,10.7c1,0.3,2.6,0.3,6.8,0.6v35.7
		c0,13.3,8.8,14.6,12.4,14.6c3.6,0,12.4-1.3,12.4-14.6V24.7c4.6,0,5.9-0.3,6.8-0.3c9.1-1.6,10.1-8.1,10.1-10.7
		C609.4,10.1,607.7,1.9,593.4,1.9z"/>
	<path class="st8" d="M536,98.7c-5.5,0-9.1,3.2-10.4,9.1l-3.6,17.5l-5.2-18.8c-1.3-5.2-5.2-8.1-11.1-8.1c-5.5,0-9.5,2.9-11.1,7.8
		l-5.2,18.8l-3.9-18.5c-1-5.2-4.9-8.4-10.1-8.4c-2.9,0-5.2,0.6-7.2,2.3c-2.3,1.6-3.3,4.2-3.3,7.1c0,1.6,0.3,3.2,0.7,4.5l9.5,37.4
		c2.3,9.4,9.1,11,12.7,11c6.8,0,11.4-3.6,13.4-10.1l4.6-16.6l4.9,17.2c1.6,6.2,6.2,9.4,12.4,9.4c3.9,0,7.2-1,9.1-3.2
		c1.6-1.6,2.6-3.9,3.9-7.5l10.1-37.4c0.3-1.6,0.7-2.9,0.7-4.5c0-2.9-1-5.2-3.3-7.1C541.2,99.4,538.9,98.7,536,98.7z"/>
	<path class="st8" d="M718.6,143.3L703.9,128l11.4-10.4c1.3-1.3,2.3-1.9,2.3-2.3c2-1.9,2.9-4.2,2.9-6.2c0-2.6-1.3-5.2-3.3-6.8
		c-2-1.6-4.2-2.6-6.8-2.6c-2.9,0-5.9,1.6-9.8,5.2l-10.4,9.7v-2.9c0-11-7.2-12.3-10.4-12.3s-10.4,1.3-10.4,12.3v37
		c0,11,7.2,12.3,10.4,12.3s10.4-1.3,10.4-12.3V142l13,14c3.3,3.6,6.5,5.5,9.8,5.5c2.6,0,4.9-1,6.8-2.6c2-1.9,2.9-4.2,2.9-6.5
		C722.8,149.1,721.2,146.2,718.6,143.3z"/>
	<ellipse class="st12" cx="274.2" cy="143.9" rx="17" ry="16.9"/>
</g>
</svg>
