<svg xmlns="http://www.w3.org/2000/svg" viewBox="0 0 47.7 40.8">
  <defs>
    <style>
      .cls-1 {
        fill: #f0efeb;
      }
    </style>
  </defs>
  <g id="Medium" transform="translate(0)">
    <path id="Path_390" data-name="Path 390" class="cls-1" d="M78.45,25.15,67.6,43.8l13.9,6.95V19.9l-1.55,2.65C79.75,22.9,78.65,24.75,78.45,25.15Z" transform="translate(-33.8 -9.95)"/>
    <path id="Path_391" data-name="Path 391" class="cls-1" d="M0,33.9,14.2,41V7.6L0,.5V33.9Z" transform="translate(0 -0.25)"/>
    <path id="Path_392" data-name="Path 392" class="cls-1" d="M31.7,19.3V34.5l14.5,7.25Z" transform="translate(-15.85 -9.65)"/>
    <path id="Path_393" data-name="Path 393" class="cls-1" d="M44.5,16.95l10.35,16.1L54.9,33V.9Z" transform="translate(-22.25 -0.45)"/>
    <path id="Path_394" data-name="Path 394" class="cls-1" d="M77.4,11.75,80.05,7.2,65.6,0l-.3.45v32.1L75.85,14.4C76.1,14,77.15,12.15,77.4,11.75Z" transform="translate(-32.65)"/>
  </g>
</svg>
