<svg xmlns="http://www.w3.org/2000/svg" xmlns:xlink="http://www.w3.org/1999/xlink" viewBox="0 0 23.51 21.234">
  <defs>
    <style>
      .cls-1 {
        fill: none;
      }

      .cls-2 {
        clip-path: url(#clip-path);
      }

      .cls-3 {
        fill: #fff;
      }
    </style>
    <clipPath id="clip-path">
      <rect class="cls-1" width="23.509" height="21.234"/>
    </clipPath>
  </defs>
  <g id="menu-icon" class="cls-2">
    <g id="Group_7" data-name="Group 7">
      <path id="Path_171" data-name="Path 171" class="cls-3" d="M21.234,0H2.275a2.275,2.275,0,0,0,0,4.55H21.234a2.275,2.275,0,0,0,0-4.55Zm0,0" transform="translate(0)"/>
      <path id="Path_172" data-name="Path 172" class="cls-3" d="M21.234,35.2H2.275a2.275,2.275,0,0,0,0,4.55H21.234a2.275,2.275,0,0,0,0-4.55Zm0,0" transform="translate(0 -26.858)"/>
      <path id="Path_173" data-name="Path 173" class="cls-3" d="M21.234,70.4H2.275a2.275,2.275,0,0,0,0,4.55H21.234a2.275,2.275,0,0,0,0-4.55Zm0,0" transform="translate(0 -53.716)"/>
    </g>
  </g>
</svg>
