<svg xmlns="http://www.w3.org/2000/svg" xmlns:xlink="http://www.w3.org/1999/xlink" viewBox="0 0 237 657.083">
  <defs>
    <style>
      .class-sm-1 {
        fill: #112a7c;
        font-size: 16px;
        font-family: SegoeUI-Bold, Segoe UI;
        font-weight: 700;
      }

      .class-sm-2 {
        font-family: SegoeUI-Bold, Montserrat;
      }

      .class-sm-3, .class-sm-5 {
        fill: #fff;
      }

      .class-sm-3 {
        font-size: 12px;
        font-family: SegoeUI-Light, Segoe UI;
        font-weight: 300;
      }

      .class-sm-4, .class-sm-6 {
        fill: none;
        stroke-linecap: round;
        stroke-width: 5px;
      }

      .class-sm-4, .class-sm-6, .class-sm-7, .class-sm-8 {
        stroke: #fff;
      }

      .class-sm-4, .class-sm-6, .class-sm-7 {
        stroke-miterlimit: 10;
      }

      .class-sm-6 {
        stroke-dasharray: 0 11;
      }

      .class-sm-7, .class-sm-8 {
        stroke-width: 3.375px;
        fill: url(#linear-gradient-sm);
      }
    </style>
    <linearGradient id="linear-gradient-sm" x1="0.5" x2="0.5" y2="1" gradientUnits="objectBoundingBox">
      <stop offset="0" stop-color="#00c6f5"/>
      <stop offset="1" stop-color="#0afa79"/>
    </linearGradient>
  </defs>
  <g id="roadmap-sm-1" transform="translate(-37 -1364)">
    <g id="Group_282" data-name="Group 282" transform="translate(-139 -4153)">
      <text id="_2017_November_" data-name="2017 November
" class="class-sm-1" transform="translate(358 5683)"><tspan x="-120.422" y="0">2017 November</tspan><tspan class="class-sm-2"><tspan x="0" y="21"></tspan></tspan></text>
      <text id="Market_and_solutions_research_for_smart_crowdfunding" data-name="Market and solutions research for smart crowdfunding" class="class-sm-3" transform="translate(186 5693)"><tspan x="4.938" y="13">Market and solutions research for </tspan><tspan x="71.113" y="29">smart crowdfunding</tspan></text>
    </g>
    <g id="Group_282-2" data-name="Group 282" transform="translate(-139 -4040)">
      <text id="_2017_January" data-name="2017 January" class="class-sm-1" transform="translate(358 5687)"><tspan x="-100.391" y="0">2017 January</tspan></text>
      <text id="Definition_of_the_concept_and_technology_of_smart_crowdfunding_and_the_start_of_product_development" data-name="Definition of the concept and technology of smart crowdfunding and the start of product development" class="class-sm-3" transform="translate(176 5697)"><tspan x="35.891" y="13">Definition of the concept and </tspan><tspan x="8.943" y="29">technology of smart crowdfunding </tspan><tspan x="62.609" y="45">and the start of product </tspan><tspan x="115.906" y="61">development</tspan></text>
    </g>
    <g id="Group_282-3" data-name="Group 282" transform="translate(-139 -3925)">
      <text id="_2018_February" data-name="2018 February" class="class-sm-1" transform="translate(358 5699)"><tspan x="-108.445" y="0">2018 February</tspan></text>
      <text id="Start_of_WhitePaper_creation" data-name="Start of WhitePaper creation" class="class-sm-3" transform="translate(358 5721)"><tspan x="-141.158" y="0">Start of WhitePaper creation</tspan></text>
    </g>
    <g id="Group_282-4" data-name="Group 282" transform="translate(-139 -3812)">
      <text id="_2018_April_" data-name="2018 April
" class="class-sm-1" transform="translate(358 5686)"><tspan x="-77.922" y="0">2018 April</tspan><tspan class="class-sm-2"><tspan x="0" y="21"></tspan></tspan></text>
      <text id="Community_formation_around_the_project" data-name="Community formation
around the project" class="class-sm-3" transform="translate(358 5708)"><tspan x="-110.438" y="0">Community formation</tspan><tspan x="-93.146" y="16">around the project</tspan></text>
    </g>
    <g id="Group_281" data-name="Group 281" transform="translate(240.938 1366.5)">
      <g id="Group_261" data-name="Group 261" transform="translate(0.1 442.019)">
        <g id="Group_260" data-name="Group 260" transform="translate(0 -334.019)">
          <line id="Line_9" data-name="Line 9" class="class-sm-4" y2="532" transform="translate(16.481)"/>
          <g id="Group_259" data-name="Group 259" transform="translate(0 517.006)">
            <path id="Path_326" data-name="Path 326" class="class-sm-5" d="M.1,380.8l16.481,16.013L33.062,380.8v13.564L16.581,410.376.1,394.364Z" transform="translate(-0.1 -380.8)"/>
          </g>
        </g>
      </g>
      <line id="Line_10" data-name="Line 10" class="class-sm-6" y2="101.385" transform="translate(16.581)"/>
      <g id="Group_262" data-name="Group 262" transform="translate(3.008 173.126)">
        <circle id="Ellipse_446" data-name="Ellipse 446" class="class-sm-7" cx="13.572" cy="13.572" r="13.572" transform="translate(0 -0.126)"/>
        <path id="Path_327" data-name="Path 327" class="class-sm-8" d="M13.572,0A13.572,13.572,0,1,1,0,13.572,13.572,13.572,0,0,1,13.572,0Z" transform="translate(0 112.874)"/>
        <path id="Path_328" data-name="Path 328" class="class-sm-8" d="M13.572,0A13.572,13.572,0,1,1,0,13.572,13.572,13.572,0,0,1,13.572,0Z" transform="translate(0 225.874)"/>
        <path id="Path_329" data-name="Path 329" class="class-sm-8" d="M13.572,0A13.572,13.572,0,1,1,0,13.572,13.572,13.572,0,0,1,13.572,0Z" transform="translate(0 338.874)"/>
      </g>
    </g>
  </g>
</svg>
