<svg xmlns="http://www.w3.org/2000/svg" viewBox="0 0 45.5 45.5">
  <defs>
    <style>
      .cls-1 {
        fill: #f0efeb;
      }
    </style>
  </defs>
  <g id="Telega" transform="translate(0)">
    <path id="Path_378" data-name="Path 378" class="cls-1" d="M22.75,0A22.75,22.75,0,1,0,45.5,22.75,22.769,22.769,0,0,0,22.75,0Zm8,33.35a.316.316,0,0,1-.4.2l-6.5-2.8a.227.227,0,0,0-.25,0l-8.45,4.7a.273.273,0,0,1-.4-.25V27.9a.275.275,0,0,0-.15-.25L7.3,24a.283.283,0,0,1,0-.5L35.15,9.1a.274.274,0,0,1,.4.3Z"/>
    <path id="Path_379" data-name="Path 379" class="cls-1" d="M47.45,30.79l-11.9,7.3c-.05,0-.05.05-.05.1l.05,7.35a.128.128,0,0,0,.25.05l1.2-2.3,1.55-3.1v-.05l9.05-9.1C47.75,30.89,47.6,30.74,47.45,30.79Z" transform="translate(-17.75 -15.39)"/>
  </g>
</svg>
