<svg id="token-author" xmlns="http://www.w3.org/2000/svg" xmlns:xlink="http://www.w3.org/1999/xlink" viewBox="0 0 135.649 108.039">
  <defs>
    <style>
      .cls-1 {
        fill: url(#linear-gradient);
      }

      .cls-2 {
        clip-path: url(#clip-path);
      }

      .cls-3 {
        fill: #fff;
      }
    </style>
    <linearGradient id="linear-gradient" x1="0.5" x2="0.5" y2="1" gradientUnits="objectBoundingBox">
      <stop offset="0" stop-color="#f5cf00"/>
      <stop offset="1" stop-color="#fa940a"/>
    </linearGradient>
    <clipPath id="clip-path">
      <path id="Path_304" data-name="Path 304" class="cls-1" d="M0,.322H135.649V-107.717H0Z" transform="translate(0 107.717)"/>
    </clipPath>
  </defs>
  <g id="Group_241" data-name="Group 241" class="cls-2">
    <g id="Group_234" data-name="Group 234" transform="translate(14.867 8.496)">
      <path id="Path_297" data-name="Path 297" class="cls-3" d="M.31,0H-101.632a1.986,1.986,0,0,0-1.987,1.987,1.986,1.986,0,0,0,1.987,1.987H.309A1.987,1.987,0,0,0,.31,0" transform="translate(103.619)"/>
    </g>
    <g id="Group_235" data-name="Group 235" transform="translate(14.867 84.951)">
      <path id="Path_298" data-name="Path 298" class="cls-3" d="M.31,0H-101.632a1.987,1.987,0,0,0-1.987,1.987,1.986,1.986,0,0,0,1.987,1.987H.309A1.987,1.987,0,0,0,.31,0" transform="translate(103.619)"/>
    </g>
    <g id="Group_236" data-name="Group 236" transform="translate(0 0)">
      <path id="Path_299" data-name="Path 299" class="cls-3" d="M.392.279H-1.87V-84.81a8.368,8.368,0,0,0-8.358-8.358H-116.416a8.368,8.368,0,0,0-8.359,8.358V.279h-2.26a4.116,4.116,0,0,0-4.111,4.111V8.636a6.241,6.241,0,0,0,6.235,6.235H-1.732A6.243,6.243,0,0,0,4.5,8.636V4.39A4.117,4.117,0,0,0,.392.279M-120.8-84.81a4.39,4.39,0,0,1,4.385-4.384h106.19A4.39,4.39,0,0,1-5.842-84.81V.279H-120.8ZM.53,8.636A2.263,2.263,0,0,1-1.732,10.9H-124.911a2.262,2.262,0,0,1-2.261-2.26V4.39a.137.137,0,0,1,.137-.137h55.362c0,.045-.007.09-.007.137a1.986,1.986,0,0,0,1.987,1.987H-56.95A1.986,1.986,0,0,0-54.963,4.39c0-.047,0-.092-.007-.137H.392A.138.138,0,0,1,.53,4.39Z" transform="translate(131.146 93.168)"/>
    </g>
    <g id="Group_237" data-name="Group 237" transform="translate(35.893 24.33)">
      <path id="Path_300" data-name="Path 300" class="cls-1" d="M.155.04-5.228-1.3V-9.4A4.107,4.107,0,0,0-7.01-12.791a4.109,4.109,0,0,0-3.8-.449L-35.192-3.864h-10.25a6.243,6.243,0,0,0-6.236,6.236v8.494a6.243,6.243,0,0,0,3.95,5.8l6.287,18.862a4.106,4.106,0,0,0,3.9,2.811H-31.4a4.12,4.12,0,0,0,3.335-1.707,4.118,4.118,0,0,0,.565-3.7l-4.92-14.761,21.605,8.311a4.116,4.116,0,0,0,1.476.274,4.117,4.117,0,0,0,2.327-.722,4.11,4.11,0,0,0,1.782-3.388v-8.1L.155,13.2A4.1,4.1,0,0,0,3.268,9.208V4.028A4.1,4.1,0,0,0,.155.04M-47.7,10.867v-8.5A2.263,2.263,0,0,1-45.442.112h8.632V13.127h-8.632A2.263,2.263,0,0,1-47.7,10.867m16.435,23.317a.127.127,0,0,1-.02.124.121.121,0,0,1-.11.057H-37.54a.136.136,0,0,1-.129-.094L-43.393,17.1h6.43ZM-9.2,22.641a.123.123,0,0,1-.059.112.125.125,0,0,1-.127.015l-23.448-9.019V-.512L-9.388-9.531a.125.125,0,0,1,.127.015A.123.123,0,0,1-9.2-9.4Zm8.5-13.432a.135.135,0,0,1-.1.131l-4.418,1.105V2.792L-.809,3.9a.137.137,0,0,1,.1.133Z" transform="translate(51.677 13.514)"/>
    </g>
    <g id="Group_238" data-name="Group 238" transform="translate(95.359 42.476)">
      <path id="Path_301" data-name="Path 301" class="cls-1" d="M.038,0H-10.581a1.987,1.987,0,0,0-1.987,1.987,1.986,1.986,0,0,0,1.987,1.987H.038A1.986,1.986,0,0,0,2.024,1.987,1.987,1.987,0,0,0,.038,0" transform="translate(12.568)"/>
    </g>
    <g id="Group_239" data-name="Group 239" transform="translate(93.235 31.857)">
      <path id="Path_302" data-name="Path 302" class="cls-1" d="M.024,0A1.987,1.987,0,0,0-2.642-.885L-6.891,1.239A1.988,1.988,0,0,0-7.779,3.9,1.988,1.988,0,0,0-6,5a1.969,1.969,0,0,0,.888-.211L-.865,2.668A1.987,1.987,0,0,0,.024,0" transform="translate(7.989 1.096)"/>
    </g>
    <g id="Group_240" data-name="Group 240" transform="translate(93.235 50.97)">
      <path id="Path_303" data-name="Path 303" class="cls-1" d="M.021.007-4.225-2.117a1.988,1.988,0,0,0-2.667.889A1.989,1.989,0,0,0-6,1.437l4.248,2.123a1.968,1.968,0,0,0,.887.211A1.986,1.986,0,0,0,.91,2.673,1.986,1.986,0,0,0,.021.007" transform="translate(7.102 2.328)"/>
    </g>
  </g>
</svg>
