<svg xmlns="http://www.w3.org/2000/svg" viewBox="0 0 100.1 70.325">
  <defs>
    <style>
      .cls-1 {
        fill: #fff;
      }
    </style>
  </defs>
  <g id="token-miner-white" transform="translate(0 0)">
    <g id="Group_243" data-name="Group 243" transform="translate(12.329 30.867)">
      <path id="Path_305" data-name="Path 305" class="cls-1" d="M-8.579,0A13.353,13.353,0,0,0-21.765,13.478,13.348,13.348,0,0,0-8.579,26.949,13.344,13.344,0,0,0,4.6,13.478,13.348,13.348,0,0,0-8.579,0m0,25.022a11.435,11.435,0,0,1-11.3-11.545A11.437,11.437,0,0,1-8.579,1.927,11.435,11.435,0,0,1,2.716,13.478,11.433,11.433,0,0,1-8.579,25.022" transform="translate(21.765)"/>
    </g>
    <g id="Group_245" data-name="Group 245" transform="translate(16.099 34.722)">
      <path id="Path_307" data-name="Path 307" class="cls-1" d="M-6.126,0a9.527,9.527,0,0,0-9.415,9.624,9.531,9.531,0,0,0,9.415,9.624A9.534,9.534,0,0,0,3.29,9.624,9.53,9.53,0,0,0-6.126,0m0,17.32a7.626,7.626,0,0,1-7.535-7.7,7.627,7.627,0,0,1,7.535-7.7,7.626,7.626,0,0,1,7.53,7.7,7.625,7.625,0,0,1-7.53,7.7" transform="translate(15.541 0)"/>
    </g>
    <g id="Group_246" data-name="Group 246" transform="translate(43.005 0)">
      <path id="Path_308" data-name="Path 308" class="cls-1" d="M-4.286-8.752a6.648,6.648,0,0,0,6.52-5.775h36.79a.95.95,0,0,0,.943-.958.951.951,0,0,0-.943-.964H2.234a6.647,6.647,0,0,0-6.52-5.775,6.671,6.671,0,0,0-6.587,6.739A6.669,6.669,0,0,0-4.286-8.752m0-11.545A4.764,4.764,0,0,1,.422-15.485a4.767,4.767,0,0,1-4.707,4.812,4.77,4.77,0,0,1-4.707-4.812A4.767,4.767,0,0,1-4.286-20.3" transform="translate(10.873 22.224)"/>
    </g>
    <g id="Group_247" data-name="Group 247" transform="translate(0 4.83)">
      <path id="Path_309" data-name="Path 309" class="cls-1" d="M-28.613-.5H-71.649a.95.95,0,0,0-.943.958.95.95,0,0,0,.943.963h43.036c.46,3.261.46-5.182,0-1.921" transform="translate(72.592 1.26)"/>
    </g>
    <g id="Group_248" data-name="Group 248" transform="translate(49.26 40.421)">
      <path id="Path_310" data-name="Path 310" class="cls-1" d="M-28.788,0A6.644,6.644,0,0,0-35.3,5.77h-36.79a.954.954,0,0,0-.943.963.954.954,0,0,0,.943.964H-35.3a6.649,6.649,0,0,0,6.514,5.775A6.673,6.673,0,0,0-22.2,6.733,6.671,6.671,0,0,0-28.788,0m0,11.545A4.766,4.766,0,0,1-33.5,6.733a4.77,4.77,0,0,1,4.707-4.812,4.767,4.767,0,0,1,4.707,4.812,4.764,4.764,0,0,1-4.707,4.812" transform="translate(73.035)"/>
    </g>
    <g id="Group_249" data-name="Group 249" transform="translate(43.005 19.811)">
      <path id="Path_311" data-name="Path 311" class="cls-1" d="M-32.464-4.012H-50.007a6.847,6.847,0,0,0-6.74-6.174A6.851,6.851,0,0,0-63.49-4.012H-81.419a.95.95,0,0,0-.943.958.951.951,0,0,0,.943.963H-63.43a6.833,6.833,0,0,0,6.684,5.776,6.833,6.833,0,0,0,6.68-5.776h17.6a.95.95,0,0,0,.943-.963.949.949,0,0,0-.943-.958m-24.282,5.77a4.965,4.965,0,0,1-4.905-5.009A4.965,4.965,0,0,1-56.747-8.26a4.961,4.961,0,0,1,4.9,5.009,4.96,4.96,0,0,1-4.9,5.009" transform="translate(82.362 10.186)"/>
    </g>
    <g id="Group_244" data-name="Group 244" transform="translate(0.092 18.359)">
      <path id="Path_306" data-name="Path 306" class="cls-1" d="M-31.376-13.131h-1.9A22.356,22.356,0,0,0-35.4-18.384l1.342-1.372a2.7,2.7,0,0,0,.764-1.889,2.691,2.691,0,0,0-.764-1.895l-4.289-4.383a2.638,2.638,0,0,0-3.7,0l-1.342,1.372a21.15,21.15,0,0,0-5.141-2.171v-1.945a2.646,2.646,0,0,0-2.615-2.674h-6.064a2.646,2.646,0,0,0-2.615,2.674v1.945a21.161,21.161,0,0,0-5.139,2.171l-1.343-1.372a2.638,2.638,0,0,0-3.7,0L-74.3-23.54a2.7,2.7,0,0,0-.763,1.895,2.687,2.687,0,0,0,.763,1.889l1.343,1.372a22.09,22.09,0,0,0-2.125,5.253h-1.9A2.647,2.647,0,0,0-79.6-10.458v6.2a2.647,2.647,0,0,0,2.616,2.673h1.9a22.151,22.151,0,0,0,2.125,5.254L-74.3,5.04a2.7,2.7,0,0,0-.763,1.893A2.707,2.707,0,0,0-74.3,8.828l4.289,4.378a2.638,2.638,0,0,0,3.7,0l1.343-1.371a21.475,21.475,0,0,0,5.139,2.175v1.942a2.646,2.646,0,0,0,2.615,2.673h6.064a2.646,2.646,0,0,0,2.615-2.673V14.01a21.4,21.4,0,0,0,5.141-2.175l1.342,1.371a2.644,2.644,0,0,0,3.706,0l4.284-4.378a2.712,2.712,0,0,0,.769-1.895,2.709,2.709,0,0,0-.769-1.893L-35.4,3.668a22.418,22.418,0,0,0,2.128-5.254h1.9a2.646,2.646,0,0,0,2.615-2.673v-6.2a2.646,2.646,0,0,0-2.615-2.673m.735,8.872a.747.747,0,0,1-.735.752H-34.76l-.171.742a20.236,20.236,0,0,1-2.46,6.076l-.4.648L-35.4,6.4a.755.755,0,0,1,0,1.062l-4.284,4.379a.721.721,0,0,1-1.039,0L-43.109,9.4l-.634.4a19.342,19.342,0,0,1-5.944,2.514l-.726.174v3.459a.747.747,0,0,1-.735.752h-6.064a.747.747,0,0,1-.736-.752V12.493l-.726-.174A19.273,19.273,0,0,1-64.614,9.8l-.634-.4-2.391,2.443a.727.727,0,0,1-1.044,0l-4.284-4.379a.767.767,0,0,1,0-1.062l2.391-2.443-.4-.648a20.252,20.252,0,0,1-2.46-6.076l-.17-.742h-3.384a.742.742,0,0,1-.731-.752v-6.2a.742.742,0,0,1,.731-.752H-73.6l.17-.742a20.305,20.305,0,0,1,2.46-6.071l.4-.649-2.391-2.443a.773.773,0,0,1,0-1.067l4.284-4.379a.729.729,0,0,1,1.044,0l2.391,2.443.634-.4a19.273,19.273,0,0,1,5.94-2.514l.726-.173v-3.459a.742.742,0,0,1,.736-.747h6.064a.742.742,0,0,1,.735.747v3.459l.726.173a19.461,19.461,0,0,1,5.944,2.514l.634.4,2.391-2.443a.723.723,0,0,1,1.039,0l4.284,4.379a.761.761,0,0,1,0,1.067l-2.39,2.443.4.649a20.164,20.164,0,0,1,2.46,6.071l.171.742h3.384a.747.747,0,0,1,.735.752Z" transform="translate(79.601 33.341)"/>
    </g>
  </g>
</svg>
