<svg xmlns="http://www.w3.org/2000/svg" xmlns:xlink="http://www.w3.org/1999/xlink" viewBox="0 0 89.845 71.598">
  <defs>
    <style>
      .cls-1 {
        fill: none;
      }

      .cls-2 {
        clip-path: url(#clip-path);
      }

      .cls-3 {
        fill: #fff;
      }
    </style>
    <clipPath id="clip-path">
      <path id="Path_304" data-name="Path 304" class="cls-1" d="M0-36.119H89.845v-71.6H0Z" transform="translate(0 107.717)"/>
    </clipPath>
  </defs>
  <g id="token-author-white" transform="translate(0 0)">
    <g id="Group_241" data-name="Group 241" class="cls-2">
      <g id="Group_234" data-name="Group 234" transform="translate(9.847 5.63)">
        <path id="Path_297" data-name="Path 297" class="cls-3" d="M-34.784,0H-102.3a1.316,1.316,0,0,0-1.316,1.317A1.316,1.316,0,0,0-102.3,2.633h67.519a1.316,1.316,0,0,0,1.316-1.317A1.315,1.315,0,0,0-34.784,0" transform="translate(103.619)"/>
      </g>
      <g id="Group_235" data-name="Group 235" transform="translate(9.847 56.298)">
        <path id="Path_298" data-name="Path 298" class="cls-3" d="M-34.784,0H-102.3a1.316,1.316,0,0,0-1.316,1.317A1.316,1.316,0,0,0-102.3,2.633h67.519a1.316,1.316,0,0,0,1.316-1.317A1.316,1.316,0,0,0-34.784,0" transform="translate(103.619)"/>
      </g>
      <g id="Group_236" data-name="Group 236" transform="translate(0 0)">
        <path id="Path_299" data-name="Path 299" class="cls-3" d="M-44.024-31.24h-1.5V-87.629a5.544,5.544,0,0,0-5.536-5.539H-121.39a5.544,5.544,0,0,0-5.536,5.539V-31.24h-1.5a2.727,2.727,0,0,0-2.723,2.725V-25.7a4.135,4.135,0,0,0,4.129,4.132h81.586A4.136,4.136,0,0,0-41.3-25.7v-2.814a2.727,2.727,0,0,0-2.723-2.725m-80.27-56.389a2.909,2.909,0,0,1,2.9-2.905h70.333a2.908,2.908,0,0,1,2.9,2.905V-31.24h-76.141ZM-43.933-25.7a1.5,1.5,0,0,1-1.5,1.5h-81.586a1.5,1.5,0,0,1-1.5-1.5v-2.814a.091.091,0,0,1,.091-.091h36.668c0,.03,0,.06,0,.091A1.316,1.316,0,0,0-90.444-27.2H-82a1.316,1.316,0,0,0,1.316-1.317c0-.031,0-.061,0-.091h36.668a.091.091,0,0,1,.091.091Z" transform="translate(131.146 93.168)"/>
      </g>
      <g id="Group_237" data-name="Group 237" transform="translate(23.773 16.124)">
        <path id="Path_300" data-name="Path 300" class="cls-3" d="M-17.347-4.531l-3.565-.891V-10.79a2.722,2.722,0,0,0-1.18-2.245,2.72,2.72,0,0,0-2.519-.3L-40.758-7.119h-6.789a4.136,4.136,0,0,0-4.13,4.132V2.643a4.137,4.137,0,0,0,2.616,3.843l4.164,12.5a2.72,2.72,0,0,0,2.584,1.863h4.068a2.728,2.728,0,0,0,2.209-1.131,2.73,2.73,0,0,0,.374-2.455l-3.258-9.782,14.31,5.508a2.725,2.725,0,0,0,.978.181,2.726,2.726,0,0,0,1.541-.479,2.724,2.724,0,0,0,1.18-2.245V5.078l3.565-.891a2.72,2.72,0,0,0,2.062-2.643V-1.889a2.719,2.719,0,0,0-2.062-2.643m-31.7,7.175v-5.63a1.5,1.5,0,0,1,1.5-1.5h5.717V4.141h-5.717a1.5,1.5,0,0,1-1.5-1.5M-38.16,18.1a.084.084,0,0,1-.013.082.08.08,0,0,1-.073.038h-4.068a.09.09,0,0,1-.086-.062L-46.19,6.775h4.259Zm14.616-7.649a.081.081,0,0,1-.039.074.083.083,0,0,1-.084.01L-39.2,4.553V-4.9l15.53-5.977a.083.083,0,0,1,.084.01.081.081,0,0,1,.039.074Zm5.627-8.9a.089.089,0,0,1-.068.087l-2.926.732V-2.708l2.926.732a.091.091,0,0,1,.068.088Z" transform="translate(51.677 13.514)"/>
      </g>
      <g id="Group_238" data-name="Group 238" transform="translate(63.16 28.149)">
        <path id="Path_301" data-name="Path 301" class="cls-3" d="M-4.219,0h-7.033a1.316,1.316,0,0,0-1.316,1.317,1.316,1.316,0,0,0,1.316,1.317h7.033A1.316,1.316,0,0,0-2.9,1.317,1.316,1.316,0,0,0-4.219,0" transform="translate(12.568)"/>
      </g>
      <g id="Group_239" data-name="Group 239" transform="translate(61.753 21.112)">
        <path id="Path_302" data-name="Path 302" class="cls-3" d="M-2.682-.367A1.316,1.316,0,0,0-4.448-.956L-7.262.452A1.318,1.318,0,0,0-7.85,2.218a1.317,1.317,0,0,0,1.178.728,1.3,1.3,0,0,0,.588-.14L-3.27,1.4A1.317,1.317,0,0,0-2.682-.367" transform="translate(7.989 1.096)"/>
      </g>
      <g id="Group_240" data-name="Group 240" transform="translate(61.753 33.778)">
        <path id="Path_303" data-name="Path 303" class="cls-3" d="M-2.384-.781-5.2-2.188A1.316,1.316,0,0,0-6.963-1.6,1.319,1.319,0,0,0-6.374.167L-3.56,1.574a1.3,1.3,0,0,0,.587.14A1.315,1.315,0,0,0-1.8.986,1.316,1.316,0,0,0-2.384-.781" transform="translate(7.102 2.328)"/>
      </g>
    </g>
  </g>
</svg>
