<svg id="token-miner" xmlns="http://www.w3.org/2000/svg" xmlns:xlink="http://www.w3.org/1999/xlink" viewBox="0 0 147.977 103.902">
  <defs>
    <style>
      .cls-1 {
        fill: url(#linear-gradient);
      }

      .cls-2 {
        fill: #fff;
      }

      .cls-3 {
        fill: none;
      }
    </style>
    <linearGradient id="linear-gradient" x1="0.5" x2="0.5" y2="1" gradientUnits="objectBoundingBox">
      <stop offset="0" stop-color="#00c6f5"/>
      <stop offset="1" stop-color="#0afa79"/>
    </linearGradient>
  </defs>
  <g id="Group_243" data-name="Group 243" transform="translate(18.226 45.605)">
    <path id="Path_305" data-name="Path 305" class="cls-1" d="M-2.272,0A19.733,19.733,0,0,0-21.765,19.913a19.726,19.726,0,0,0,19.493,19.9,19.72,19.72,0,0,0,19.484-19.9A19.727,19.727,0,0,0-2.272,0m0,36.969A16.9,16.9,0,0,1-18.978,19.913,16.9,16.9,0,0,1-2.272,2.847a16.9,16.9,0,0,1,16.7,17.065,16.9,16.9,0,0,1-16.7,17.057" transform="translate(21.765)"/>
  </g>
  <g id="Group_245" data-name="Group 245" transform="translate(23.8 51.3)">
    <path id="Path_307" data-name="Path 307" class="cls-1" d="M-1.623,0A14.079,14.079,0,0,0-15.541,14.218,14.085,14.085,0,0,0-1.623,28.437,14.09,14.09,0,0,0,12.3,14.218,14.084,14.084,0,0,0-1.623,0m0,25.59A11.27,11.27,0,0,1-12.762,14.218,11.272,11.272,0,0,1-1.623,2.838,11.27,11.27,0,0,1,9.509,14.218,11.268,11.268,0,0,1-1.623,25.59" transform="translate(15.541)"/>
  </g>
  <g id="Group_246" data-name="Group 246" transform="translate(63.574 0.001)">
    <path id="Path_308" data-name="Path 308" class="cls-2" d="M-1.135-2.32A9.825,9.825,0,0,0,8.5-10.853H62.89a1.4,1.4,0,0,0,1.394-1.415,1.405,1.405,0,0,0-1.394-1.424H8.5a9.824,9.824,0,0,0-9.638-8.532,9.859,9.859,0,0,0-9.738,9.956A9.856,9.856,0,0,0-1.135-2.32m0-17.057a7.04,7.04,0,0,1,6.959,7.109A7.045,7.045,0,0,1-1.135-5.159a7.049,7.049,0,0,1-6.959-7.109,7.045,7.045,0,0,1,6.959-7.109" transform="translate(10.873 22.224)"/>
  </g>
  <g id="Group_247" data-name="Group 247" transform="translate(0 7.136)">
    <path id="Path_309" data-name="Path 309" class="cls-2" d="M-7.579-.132H-71.2a1.4,1.4,0,0,0-1.394,1.415A1.4,1.4,0,0,0-71.2,2.707H-7.579c.681,4.818.681-7.656,0-2.838" transform="translate(72.592 1.26)"/>
  </g>
  <g id="Group_248" data-name="Group 248" transform="translate(72.821 59.721)">
    <path id="Path_310" data-name="Path 310" class="cls-2" d="M-7.626,0a9.82,9.82,0,0,0-9.629,8.524H-71.641a1.41,1.41,0,0,0-1.394,1.423,1.41,1.41,0,0,0,1.394,1.424h54.386A9.827,9.827,0,0,0-7.626,19.9,9.861,9.861,0,0,0,2.12,9.947,9.858,9.858,0,0,0-7.626,0m0,17.057a7.044,7.044,0,0,1-6.959-7.109A7.049,7.049,0,0,1-7.626,2.838,7.045,7.045,0,0,1-.667,9.947a7.04,7.04,0,0,1-6.959,7.109" transform="translate(73.035)"/>
  </g>
  <g id="Group_249" data-name="Group 249" transform="translate(63.574 29.271)">
    <path id="Path_311" data-name="Path 311" class="cls-2" d="M-8.6-1.064H-34.532A10.12,10.12,0,0,0-44.5-10.186a10.126,10.126,0,0,0-9.969,9.122h-26.5A1.4,1.4,0,0,0-82.362.352a1.405,1.405,0,0,0,1.394,1.423h26.593a10.1,10.1,0,0,0,9.88,8.533,10.1,10.1,0,0,0,9.875-8.533H-8.6A1.4,1.4,0,0,0-7.206.352,1.4,1.4,0,0,0-8.6-1.064M-44.5,7.461A7.337,7.337,0,0,1-51.747.06a7.338,7.338,0,0,1,7.252-7.4A7.331,7.331,0,0,1-37.251.06a7.33,7.33,0,0,1-7.244,7.4" transform="translate(82.362 10.186)"/>
  </g>
  <g id="Group_244" data-name="Group 244" transform="translate(0.136 27.125)">
    <path id="Path_306" data-name="Path 306" class="cls-1" d="M-8.311-3.481h-2.808a33.019,33.019,0,0,0-3.146-7.761l1.984-2.028a3.982,3.982,0,0,0,1.129-2.791,3.975,3.975,0,0,0-1.129-2.8l-6.34-6.476a3.9,3.9,0,0,0-5.471,0l-1.984,2.028a31.274,31.274,0,0,0-7.6-3.208v-2.874a3.911,3.911,0,0,0-3.865-3.95h-8.965a3.911,3.911,0,0,0-3.866,3.95v2.874a31.291,31.291,0,0,0-7.6,3.208l-1.986-2.028a3.9,3.9,0,0,0-5.471,0l-6.34,6.476a3.986,3.986,0,0,0-1.128,2.8,3.968,3.968,0,0,0,1.128,2.791l1.986,2.028a32.626,32.626,0,0,0-3.141,7.761h-2.813A3.911,3.911,0,0,0-79.6.468V9.627a3.911,3.911,0,0,0,3.867,3.949h2.813a32.715,32.715,0,0,0,3.141,7.763l-1.986,2.027a3.994,3.994,0,0,0-1.128,2.8,4,4,0,0,0,1.128,2.8l6.34,6.469a3.9,3.9,0,0,0,5.471,0l1.986-2.026a31.755,31.755,0,0,0,7.6,3.213v2.869a3.911,3.911,0,0,0,3.866,3.949h8.965a3.91,3.91,0,0,0,3.865-3.949V36.618a31.646,31.646,0,0,0,7.6-3.213l1.984,2.026a3.91,3.91,0,0,0,5.478,0l6.333-6.469a4.006,4.006,0,0,0,1.137-2.8,4,4,0,0,0-1.137-2.8l-1.984-2.027a33.11,33.11,0,0,0,3.146-7.763h2.808A3.91,3.91,0,0,0-4.446,9.627V.468A3.91,3.91,0,0,0-8.311-3.481M-7.224,9.627a1.1,1.1,0,0,1-1.087,1.111h-5l-.253,1.1A29.888,29.888,0,0,1-17.2,20.811l-.584.957,3.533,3.61a1.116,1.116,0,0,1,0,1.569l-6.333,6.47a1.067,1.067,0,0,1-1.536,0l-3.534-3.61-.938.6a28.6,28.6,0,0,1-8.788,3.715l-1.073.257v5.11A1.1,1.1,0,0,1-37.541,40.6h-8.965a1.1,1.1,0,0,1-1.088-1.111v-5.11l-1.073-.257a28.5,28.5,0,0,1-8.78-3.715l-.938-.6-3.534,3.61a1.075,1.075,0,0,1-1.543,0l-6.333-6.47a1.133,1.133,0,0,1,0-1.569l3.534-3.61-.585-.957a29.911,29.911,0,0,1-3.636-8.977l-.251-1.1h-5a1.1,1.1,0,0,1-1.08-1.111V.468a1.1,1.1,0,0,1,1.08-1.111h5l.251-1.1a29.991,29.991,0,0,1,3.636-8.97l.585-.958-3.534-3.609a1.142,1.142,0,0,1,0-1.576l6.333-6.47a1.078,1.078,0,0,1,1.543,0l3.534,3.61.938-.6a28.5,28.5,0,0,1,8.78-3.715l1.073-.255v-5.11a1.1,1.1,0,0,1,1.088-1.1h8.965a1.1,1.1,0,0,1,1.087,1.1v5.11l1.073.255a28.777,28.777,0,0,1,8.788,3.715l.938.6,3.534-3.61a1.07,1.07,0,0,1,1.536,0l6.333,6.47a1.124,1.124,0,0,1,0,1.576l-3.533,3.609.584.958a29.781,29.781,0,0,1,3.636,8.97l.253,1.1h5A1.1,1.1,0,0,1-7.224.468Z" transform="translate(79.601 33.341)"/>
  </g>
  <path id="Path_312" data-name="Path 312" class="cls-3" d="M0-12.113H147.977v-103.9H0Z" transform="translate(0 116.015)"/>
</svg>
