<svg xmlns="http://www.w3.org/2000/svg" xmlns:xlink="http://www.w3.org/1999/xlink" viewBox="0 0 193.707 193.707">
  <defs>
    <style>
      .cls-1 {
        fill: url(#linear-gradient);
      }

      .cls-2 {
        fill: none;
      }

      .cls-3, .cls-4 {
        stroke: none;
      }

      .cls-4 {
        fill: #fffdfd;
      }
    </style>
    <linearGradient id="linear-gradient" x1="0.5" x2="0.5" y2="1" gradientUnits="objectBoundingBox">
      <stop offset="0" stop-color="#00c6f5"/>
      <stop offset="1" stop-color="#0afa79"/>
    </linearGradient>
  </defs>
  <g id="token-icon" transform="translate(24 22.494)">
    <path id="Path_338" data-name="Path 338" class="cls-1" d="M430.306,100.909l7.6-4.993a73.471,73.471,0,0,0-5.844-7.716L425.2,94.157A62.881,62.881,0,0,1,430.306,100.909Z" transform="translate(-304.58 -63.18)"/>
    <path id="Path_339" data-name="Path 339" class="cls-1" d="M72.622,136.165a63.544,63.544,0,0,1,0-127.088,62.831,62.831,0,0,1,27.971,6.468l4-8.142A71.739,71.739,0,0,0,72.622,0,72.622,72.622,0,1,0,87.146,143.8l-1.816-8.879A65.88,65.88,0,0,1,72.622,136.165Z" transform="translate(0 0)"/>
    <path id="Path_340" data-name="Path 340" class="cls-1" d="M464.1,176.56a63.469,63.469,0,0,1-5.3,25.474l8.312,3.631A72.723,72.723,0,0,0,465.97,145.1l-8.17,3.943A62.467,62.467,0,0,1,464.1,176.56Z" transform="translate(-327.932 -103.939)"/>
    <path id="Path_341" data-name="Path 341" class="cls-1" d="M393.209,49.1a73.315,73.315,0,0,0-7.659-5.9L380.5,50.746a62.68,62.68,0,0,1,6.695,5.163Z" transform="translate(-272.56 -30.946)"/>
    <path id="Path_342" data-name="Path 342" class="cls-1" d="M118.5,163.813a45.287,45.287,0,1,1,43.828-33.5l8.766,2.383a54.475,54.475,0,1,0-52.594,40.2,51.77,51.77,0,0,0,14.893-2.1l-2.581-8.709A43.035,43.035,0,0,1,118.5,163.813Z" transform="translate(-45.875 -45.804)"/>
    <path id="Path_343" data-name="Path 343" class="cls-1" d="M374.6,420.344l19.432-24.283h27.829L374.6,348.8Zm9.078-49.644,16.283,16.283h-10.3l-5.986,7.489Z" transform="translate(-268.334 -249.854)"/>
    <path id="Path_344" data-name="Path 344" class="cls-1" d="M197.473,213.657a8.823,8.823,0,0,1-7.064-3.149c-1.787-2.1-2.667-4.908-2.667-8.454a12.635,12.635,0,0,1,2.667-8.454,8.823,8.823,0,0,1,7.064-3.149c3.489,0,6.5,1.816,9.078,5.418l8.822-8.794a20.331,20.331,0,0,0-7.829-6.893,23.634,23.634,0,0,0-10.78-2.383,23.154,23.154,0,0,0-11.858,3.064,17.583,17.583,0,0,0-2.071,1.39.391.391,0,0,0-.113-.085c-2.837-2.213-7.007-3.319-12.539-3.319H148v46.381h23.347q7.829,0,12.255-2.808a13.942,13.942,0,0,0,1.277.794,23.173,23.173,0,0,0,11.858,3.092,23.634,23.634,0,0,0,10.78-2.383,20.745,20.745,0,0,0,7.83-6.893l-8.822-8.794C203.97,211.841,200.934,213.657,197.473,213.657ZM161.758,189.8h6.525c3.035,0,4.567,1.135,4.567,3.432s-1.532,3.433-4.567,3.433h-6.525Zm8.425,24.51h-8.425v-7.291h8.425q3.319,0,4.255,1.872l.34,1.277a2.752,2.752,0,0,1,.028.482C174.808,213.09,173.247,214.309,170.184,214.309Z" transform="translate(-106.016 -127.363)"/>
    <g id="Path_327" data-name="Path 327" class="cls-2" transform="translate(-24 -22.494)">
      <path class="cls-3" d="M96.853,0A96.853,96.853,0,1,1,0,96.853,96.854,96.854,0,0,1,96.853,0Z"/>
      <path class="cls-4" d="M 96.85349273681641 187.7069854736328 C 146.9502716064453 187.7069854736328 187.7069854736328 146.9502716064453 187.7069854736328 96.85349273681641 C 187.7069854736328 46.75671005249023 146.9502716064453 5.999992847442627 96.85349273681641 5.999992847442627 C 46.75671005249023 5.999992847442627 5.999992847442627 46.75671005249023 5.999992847442627 96.85349273681641 C 5.999992847442627 146.9502716064453 46.75671005249023 187.7069854736328 96.85349273681641 187.7069854736328 M 96.85349273681641 193.7069854736328 C 43.3628044128418 193.7069854736328 -7.263183761097025e-06 150.3441772460938 -7.263183761097025e-06 96.85349273681641 C -7.263183761097025e-06 43.3628044128418 43.3628044128418 -7.263183761097025e-06 96.85349273681641 -7.263183761097025e-06 C 150.3441772460938 -7.263183761097025e-06 193.7069854736328 43.3628044128418 193.7069854736328 96.85349273681641 C 193.7069854736328 150.3441772460938 150.3441772460938 193.7069854736328 96.85349273681641 193.7069854736328 Z"/>
    </g>
  </g>
</svg>
