<svg xmlns="http://www.w3.org/2000/svg" viewBox="0 0 44.9 44.9">
  <defs>
    <style>
      .cls-1 {
        fill: #f0efeb;
      }
    </style>
  </defs>
  <path id="Twitter" class="cls-1" d="M22.45,0A22.45,22.45,0,1,0,44.9,22.45,22.448,22.448,0,0,0,22.45,0ZM33.5,18.9v.7A15.241,15.241,0,0,1,10.05,32.45a10.875,10.875,0,0,0,1.3.05A10.616,10.616,0,0,0,18,30.2a5.347,5.347,0,0,1-5-3.7,6.776,6.776,0,0,0,1,.1,4.314,4.314,0,0,0,1.4-.2,5.363,5.363,0,0,1-4.3-5.25V21.1a4.969,4.969,0,0,0,2.45.65,5.32,5.32,0,0,1-2.4-4.45,4.989,4.989,0,0,1,.75-2.7,15.134,15.134,0,0,0,11.05,5.6A4.931,4.931,0,0,1,22.8,19a5.356,5.356,0,0,1,5.35-5.35,5.241,5.241,0,0,1,3.9,1.7,11.679,11.679,0,0,0,3.4-1.3A5.319,5.319,0,0,1,33.1,17a10.966,10.966,0,0,0,3.1-.85A11.749,11.749,0,0,1,33.5,18.9Z" transform="translate(0)"/>
</svg>
